<svg width="335" height="122" viewBox="0 0 335 122" fill="none" xmlns="http://www.w3.org/2000/svg">
<path fill-rule="evenodd" clip-rule="evenodd" d="M125.184 1.76796L148.105 12.3766C138.154 14.2251 128.604 17.8161 119.895 22.9854L126.665 8.84043L125.184 1.76796Z" fill="white"/>
<path fill-rule="evenodd" clip-rule="evenodd" d="M235.575 88.3528L245.855 66.2512H237.039L239.913 60.0628H269.886L267.013 66.2512H258.197L247.918 88.3528H235.575Z" fill="white"/>
<path fill-rule="evenodd" clip-rule="evenodd" d="M286.02 120.179L296.281 98.0771H287.465L290.357 91.8886H320.33L317.439 98.0771H308.623L298.362 120.179H286.02Z" fill="white"/>
<path fill-rule="evenodd" clip-rule="evenodd" d="M200.295 88.3528H189.716L202.869 60.0628H213.448L206.448 75.0919L224.027 60.0628H234.606L221.47 88.3528H210.874L217.856 73.3237L200.295 88.3528Z" fill="white"/>
<path fill-rule="evenodd" clip-rule="evenodd" d="M152.707 88.3528L165.86 60.0628H179.084L174.147 70.6715H179.436L184.374 60.0628H197.597L184.444 88.3528H171.22L175.734 78.6281H170.445L165.931 88.3528H152.707Z" fill="white"/>
<path fill-rule="evenodd" clip-rule="evenodd" d="M83.944 88.4056L91.3493 72.4924C74.6519 74.2605 66.0655 81.333 55.7331 88.4056L63.1384 72.4924C56.1847 73.0924 49.386 74.8867 43.0386 77.7968C37.0086 80.5553 28.7922 88.4056 28.7922 88.4056C34.0817 72.4924 39.0538 67.188 46.7943 58.3474C65.466 37.1302 92.6362 28.2896 116.95 21.2172L109.545 37.1302C119.066 31.8258 131.179 24.7534 145.161 21.2172L113.917 88.4056H83.944Z" fill="white"/>
<path fill-rule="evenodd" clip-rule="evenodd" d="M28.2106 120.232C7.35242 120.232 1.7632 107.855 1.7632 93.7104C1.7632 79.5654 15.4982 57.2868 38.7895 40.6667C58.29 26.7517 86.2712 12.9427 122.628 5.30443L118.696 15.2589C50.1264 28.9441 10.579 72.4928 10.579 95.4785C10.579 104.319 15.8685 111.391 31.7369 111.391H181.605C183.243 111.332 184.793 110.634 185.925 109.447C187.379 108.089 188.34 106.285 188.658 104.319C188.658 103.683 188.658 102.551 186.895 102.551H33.5C31.4371 102.551 28.7924 100.783 28.7924 93.7104H194.9C201.423 93.7104 202.393 99.8988 200.806 103.293L197.28 110.967C196.169 113.742 194.245 116.114 191.761 117.769C189.277 119.423 186.35 120.282 183.369 120.232H28.2106Z" fill="white"/>
<path fill-rule="evenodd" clip-rule="evenodd" d="M146.466 60.1159C141.176 60.1159 132.36 60.1159 128.252 68.9566L122.487 81.3335C120.036 86.6379 128.023 88.406 133.313 88.406C138.602 88.406 148.247 86.6379 150.697 81.3335L156.463 68.9566C160.571 60.1159 151.755 60.1159 146.466 60.1159ZM144.121 68.9566L138.355 81.3335C137.544 83.1016 134.018 83.1016 134.829 81.3335L140.594 68.9566C141.423 67.1885 144.949 67.1885 144.121 68.9566Z" fill="white"/>
<path fill-rule="evenodd" clip-rule="evenodd" d="M287.518 60.1159C282.229 60.1159 273.413 60.1159 269.305 68.9566L263.539 81.3335C261.089 86.6379 269.076 88.406 274.365 88.406C279.655 88.406 289.299 86.6379 291.75 81.3335L297.515 68.9566C301.624 60.1159 292.808 60.1159 287.518 60.1159ZM285.173 68.9566L279.408 81.3335C278.596 83.1016 275.07 83.1016 275.881 81.3335L281.647 68.9566C282.475 67.1885 286.002 67.1885 285.173 68.9566Z" fill="white"/>
<path fill-rule="evenodd" clip-rule="evenodd" d="M223.357 91.9418C218.068 91.9418 209.252 91.9418 205.144 100.782L199.378 113.159C196.91 118.464 204.914 120.232 210.204 120.232C215.493 120.232 225.12 118.464 227.589 113.159L233.354 100.782C237.462 91.9418 228.647 91.9418 223.357 91.9418ZM221.012 100.782L215.247 113.159C214.436 114.927 210.909 114.927 211.72 113.159L217.486 100.782C218.297 99.0143 221.823 99.0143 221.012 100.782Z" fill="white"/>
<path fill-rule="evenodd" clip-rule="evenodd" d="M268.494 97.2462L270.962 91.9418H258.62L256.151 97.2462C251.673 95.4781 241.006 91.9418 236.051 102.551L231.944 111.391C227.835 120.232 241.817 116.696 247.935 114.927L245.467 120.232H257.809L260.278 114.927C264.738 116.696 275.441 120.232 279.549 111.391L283.657 102.551C288.594 91.9418 274.594 95.4781 268.494 97.2462ZM247.812 111.391C246.983 113.159 243.457 113.159 244.285 111.391L249.223 100.782C250.034 99.0143 253.56 99.0143 252.749 100.782L247.812 111.391ZM267.206 111.391C266.378 113.159 262.851 113.159 263.68 111.391L268.617 100.782C269.428 99.0143 272.955 99.0143 272.144 100.782L267.206 111.391Z" fill="white"/>
<path fill-rule="evenodd" clip-rule="evenodd" d="M318.409 61.8841L319.22 60.1159H305.115L291.961 88.4056H306.066L308.94 82.2171C311.503 83.2153 314.202 83.8118 316.945 83.9852C319.042 84.1508 321.136 83.6393 322.922 82.526C324.708 81.4128 326.092 79.7558 326.872 77.7972L332.62 65.4203C335.088 60.1159 325.338 58.3478 318.409 61.8841ZM316.293 77.7972C315.464 79.5654 311.938 79.5654 312.766 77.7972L318.515 65.4203C319.343 63.6522 322.87 63.6522 322.041 65.4203L316.293 77.7972Z" fill="white"/>
</svg>
