<svg width="596" height="81" viewBox="0 0 596 81" fill="none" xmlns="http://www.w3.org/2000/svg">
<path d="M98.9104 61.4847H108.096V56.7148C108.134 56.1457 108.07 55.5744 107.906 55.0279C107.771 54.786 107.555 54.5984 107.297 54.4971C106.883 54.2994 106.43 54.1975 105.971 54.199H105.27V53.7337H113.726V54.1881H113.025C112.567 54.1862 112.115 54.2842 111.7 54.4753C111.559 54.5271 111.43 54.6066 111.321 54.7091C111.212 54.8115 111.125 54.9348 111.064 55.0715C110.919 55.6028 110.862 56.1543 110.896 56.7039V67.4834C110.858 68.0488 110.923 68.6165 111.086 69.1594C111.219 69.3992 111.43 69.5865 111.685 69.6902C112.105 69.8853 112.562 69.987 113.025 69.9883H113.726V70.4427H105.267V69.9883H105.968C106.773 69.9883 107.361 69.7871 107.731 69.3848C107.974 69.1206 108.096 68.488 108.096 67.487V62.3972H98.9104V67.487C98.8723 68.0525 98.9366 68.6202 99.1003 69.163C99.2352 69.4053 99.4508 69.593 99.71 69.6938C100.124 69.8898 100.577 69.9916 101.035 69.9919H101.765V70.4464H93.2953V69.9919H93.9963C94.8141 69.9919 95.4068 69.7907 95.7743 69.3884C96.0079 69.1266 96.1394 68.4941 96.1394 67.4906V56.7148C96.1774 56.1457 96.1131 55.5745 95.9495 55.0279C95.8166 54.7881 95.6054 54.6008 95.3508 54.4971C94.9318 54.3003 94.4742 54.1985 94.0109 54.199H93.3099V53.7337H101.78V54.1881H101.05C100.592 54.1864 100.14 54.2845 99.7246 54.4753C99.4455 54.5854 99.2204 54.7992 99.0966 55.0715C98.9457 55.6018 98.8864 56.1538 98.9214 56.7039L98.9104 61.4847Z" fill="white"/>
<path d="M122.828 68.814C122.004 69.3882 121.143 69.9068 120.25 70.3664C119.716 70.5741 119.147 70.679 118.574 70.6754C117.739 70.7074 116.923 70.4214 116.292 69.8756C115.997 69.6111 115.764 69.285 115.609 68.9206C115.454 68.5561 115.382 68.1623 115.398 67.7669C115.385 67.2561 115.539 66.7549 115.836 66.3382C116.394 65.6568 117.106 65.1162 117.913 64.7603C119.506 64.042 121.15 63.4417 122.831 62.9644V62.5317C122.831 61.4047 122.619 60.634 122.196 60.2122C121.948 59.9926 121.66 59.824 121.346 59.716C121.033 59.6081 120.701 59.563 120.37 59.5833C119.85 59.5546 119.335 59.7034 118.91 60.005C118.747 60.1088 118.612 60.2503 118.516 60.4174C118.42 60.5846 118.366 60.7724 118.359 60.9648L118.388 61.6919C118.398 61.854 118.373 62.0164 118.314 62.1677C118.254 62.3191 118.163 62.4557 118.045 62.5681C117.797 62.7813 117.477 62.8919 117.15 62.8771C116.826 62.8898 116.51 62.7748 116.27 62.5572C116.154 62.4438 116.063 62.307 116.004 62.1559C115.945 62.0048 115.919 61.8429 115.927 61.681C115.927 60.9757 116.354 60.3286 117.209 59.736C118.063 59.1434 119.264 58.8489 120.809 58.8489C121.806 58.814 122.801 58.9848 123.729 59.3506C124.282 59.5876 124.731 60.013 124.996 60.5503C125.169 60.9042 125.257 61.6313 125.259 62.7317V66.5308C125.24 67.1922 125.265 67.854 125.332 68.5122C125.352 68.6968 125.438 68.8682 125.573 68.9958C125.685 69.0785 125.821 69.122 125.96 69.1194C126.101 69.1218 126.241 69.0919 126.369 69.0321C126.788 68.7671 127.184 68.4666 127.552 68.1341V68.8213C126.464 70.0549 125.423 70.6718 124.43 70.6718C124.222 70.682 124.015 70.6503 123.82 70.5784C123.624 70.5066 123.446 70.3961 123.295 70.2537C122.958 69.8519 122.791 69.336 122.828 68.814ZM122.828 68.0142V63.7169C121.367 64.2017 120.42 64.5495 119.987 64.7603C119.365 65.0204 118.804 65.4067 118.341 65.8946C118.023 66.252 117.847 66.7118 117.844 67.1889C117.837 67.4647 117.89 67.7388 117.998 67.9928C118.106 68.2467 118.268 68.4747 118.472 68.6613C118.664 68.8501 118.893 68.9991 119.143 69.0995C119.394 69.2 119.662 69.25 119.932 69.2466C120.658 69.2466 121.623 68.8358 122.828 68.0142Z" fill="white"/>
<path d="M126.241 59.1579H132.448V59.6233H132.163C131.818 59.5987 131.475 59.6826 131.181 59.8632C131.081 59.9284 130.999 60.0168 130.942 60.1207C130.885 60.2246 130.854 60.3409 130.852 60.4595C130.905 60.9347 131.07 61.3908 131.334 61.7901L134.583 67.4834L137.57 61.2484C137.729 60.9387 137.814 60.5965 137.818 60.2486C137.828 60.1294 137.791 60.011 137.716 59.9178C137.616 59.8135 137.49 59.7381 137.351 59.6996C137.064 59.634 136.769 59.6071 136.475 59.6196V59.1652H140.819V59.6233C140.533 59.639 140.253 59.7055 139.99 59.8196C139.744 59.9645 139.526 60.153 139.348 60.3758C139.16 60.6788 138.994 60.9947 138.851 61.3211L133.415 72.5913C132.97 73.5902 132.256 74.4471 131.352 75.0672C130.634 75.5817 129.779 75.8727 128.895 75.9033C128.39 75.9243 127.891 75.7772 127.479 75.4852C127.316 75.3802 127.181 75.2379 127.085 75.0703C126.99 74.9027 126.935 74.7146 126.927 74.5218C126.923 74.3618 126.957 74.203 127.027 74.0588C127.097 73.9146 127.201 73.7891 127.329 73.6929C127.648 73.4673 128.034 73.3558 128.424 73.3766C128.872 73.4011 129.314 73.4918 129.735 73.6456C129.971 73.7335 130.216 73.7957 130.465 73.8311C130.813 73.8124 131.147 73.6852 131.418 73.4675C131.875 73.0601 132.232 72.554 132.462 71.9878L133.408 70.0319L128.611 61.5174C128.405 61.1826 128.17 60.8664 127.91 60.5722C127.739 60.3519 127.537 60.1573 127.311 59.9941C126.968 59.8153 126.598 59.6925 126.216 59.6305L126.241 59.1579Z" fill="white"/>
<path d="M150.899 64.2186V61.8046C150.93 61.2976 150.883 60.7889 150.761 60.2959C150.707 60.176 150.628 60.0688 150.53 59.9812C150.432 59.8935 150.316 59.8273 150.191 59.7869C149.768 59.6586 149.326 59.6033 148.884 59.6233V59.1579H155.343V59.6233C154.897 59.5913 154.449 59.6469 154.025 59.7869C153.824 59.886 153.647 60.0274 153.506 60.2013C153.378 60.3649 153.316 60.8994 153.316 61.8046V67.7888C153.286 68.2958 153.333 68.8044 153.455 69.2975C153.51 69.4172 153.588 69.5245 153.686 69.6127C153.784 69.7009 153.899 69.7681 154.025 69.8101C154.45 69.9452 154.896 70.0043 155.343 69.9846V70.4391H148.57V69.9846C149.082 69.9859 149.592 69.9421 150.096 69.8537C150.221 69.8188 150.337 69.7588 150.437 69.6776C150.538 69.5963 150.62 69.4954 150.68 69.3811C150.872 68.8745 150.948 68.3318 150.903 67.7924V65.033C149.477 65.6487 147.938 65.9631 146.383 65.9564C145.701 65.9837 145.02 65.8901 144.372 65.6801C144.003 65.5776 143.683 65.3499 143.466 65.0366C143.316 64.6629 143.251 64.2605 143.276 63.8587V61.8046C143.301 61.3169 143.262 60.828 143.159 60.3504C143.114 60.229 143.044 60.1183 142.953 60.0251C142.863 59.9319 142.754 59.8583 142.634 59.8087C142.25 59.6561 141.838 59.5879 141.425 59.6087V59.1434H147.705V59.6233C147.261 59.5928 146.816 59.6483 146.394 59.7869C146.19 59.8847 146.011 60.0262 145.868 60.2013C145.741 60.3649 145.679 60.8994 145.679 61.8046V63.1934C145.654 63.5625 145.701 63.9327 145.817 64.2841C145.964 64.5165 146.194 64.6853 146.46 64.7567C146.918 64.9028 147.399 64.968 147.88 64.9494C148.931 64.9544 149.968 64.7035 150.899 64.2186Z" fill="white"/>
<path d="M161.104 64.1968H166.876V61.8046C166.898 61.3345 166.863 60.8634 166.774 60.4013C166.685 60.1597 166.505 59.9616 166.273 59.8487C165.824 59.6614 165.336 59.5829 164.849 59.6196V59.1543H171.308V59.6233C170.862 59.6006 170.415 59.6598 169.99 59.7978C169.745 59.8846 169.543 60.0633 169.428 60.2959C169.298 60.7878 169.249 61.2972 169.282 61.8046V67.7888C169.259 68.2641 169.296 68.7404 169.391 69.2066C169.437 69.3312 169.508 69.4451 169.6 69.5413C169.691 69.6376 169.802 69.7142 169.924 69.7665C170.364 69.9405 170.836 70.015 171.308 69.9846V70.4391H164.849V69.9846C165.656 69.9846 166.197 69.8574 166.467 69.6211C166.737 69.3848 166.876 68.7631 166.876 67.8033V65.0075H161.104V67.8033C161.081 68.2786 161.118 68.7549 161.213 69.2212C161.259 69.3457 161.33 69.4596 161.422 69.5559C161.513 69.6521 161.624 69.7288 161.746 69.781C162.185 69.955 162.658 70.0295 163.13 69.9992V70.4536H156.671V69.9992C157.537 69.9992 158.092 69.8647 158.333 69.5956C158.574 69.3266 158.698 68.7304 158.698 67.8033V61.8046C158.72 61.3281 158.683 60.8506 158.588 60.3831C158.543 60.259 158.472 60.1458 158.38 60.0506C158.289 59.9554 158.178 59.8805 158.055 59.8305C157.614 59.6634 157.142 59.5915 156.671 59.6196V59.1543H163.13V59.6233C162.684 59.6006 162.237 59.6598 161.812 59.7978C161.567 59.8846 161.365 60.0633 161.25 60.2959C161.12 60.7878 161.071 61.2972 161.104 61.8046V64.1968Z" fill="white"/>
<path d="M179.442 58.8234C181.465 58.8234 183.088 59.4718 184.312 60.7685C185.314 61.7898 185.874 63.1617 185.871 64.5894C185.852 65.6671 185.557 66.722 185.013 67.6542C184.476 68.6525 183.651 69.4679 182.644 69.9955C181.606 70.5293 180.453 70.8002 179.285 70.7845C177.272 70.7845 175.673 70.107 174.488 68.7522C173.523 67.7029 172.988 66.332 172.987 64.9094C173.004 63.8159 173.32 62.7476 173.9 61.8191C174.457 60.8445 175.292 60.0563 176.299 59.5542C177.275 59.07 178.351 58.8198 179.442 58.8234ZM178.989 59.6233C178.449 59.6305 177.918 59.7625 177.438 60.0086C176.878 60.3114 176.435 60.791 176.178 61.372C175.829 62.1572 175.664 63.0114 175.696 63.8696C175.656 65.3697 176.058 66.8486 176.854 68.1232C177.628 69.3133 178.646 69.9083 179.909 69.9083C180.347 69.9207 180.781 69.8392 181.184 69.6692C181.586 69.4991 181.948 69.2446 182.242 68.923C182.853 68.2662 183.16 67.1368 183.162 65.5347C183.162 63.5327 182.651 61.9573 181.629 60.8085C181.307 60.4262 180.902 60.1211 180.445 59.9159C179.988 59.7107 179.491 59.6107 178.989 59.6233Z" fill="white"/>
<path d="M188.113 63.8514H195.649V65.7128H188.113V63.8514Z" fill="white"/>
<path d="M207.718 59.9577H201.946V67.7924C201.946 68.6649 201.997 69.1812 202.107 69.352C202.238 69.5439 202.417 69.6991 202.625 69.8029C203.061 69.9658 203.527 70.0315 203.991 69.9955V70.45H197.514V69.9955C198.379 69.9955 198.934 69.861 199.175 69.592C199.416 69.323 199.54 68.7267 199.54 67.7997V61.8046C199.54 60.9248 199.489 60.4013 199.38 60.245C199.252 60.0643 199.083 59.9161 198.887 59.8123C198.449 59.6497 197.98 59.5851 197.514 59.6233V59.1579H212.151V59.6233C211.707 59.5926 211.262 59.6482 210.84 59.7869C210.636 59.8844 210.456 60.026 210.314 60.2013C210.186 60.3649 210.124 60.8994 210.124 61.8046V67.7888C210.124 68.6613 210.176 69.1775 210.285 69.3484C210.413 69.5361 210.586 69.6886 210.789 69.7919C211.223 69.9548 211.688 70.0206 212.151 69.9846V70.4391H205.692V69.9846C206.499 69.9846 207.039 69.8574 207.31 69.6211C207.58 69.3848 207.718 68.7631 207.718 67.8033V59.9577Z" fill="white"/>
<path d="M212.793 60.2777L216.904 58.8707H217.459V61.5101C217.989 60.6702 218.699 59.9566 219.536 59.4197C220.2 59.0302 220.957 58.8244 221.727 58.8234C222.347 58.8063 222.964 58.9155 223.541 59.1443C224.117 59.3731 224.64 59.7167 225.079 60.1541C225.629 60.7111 226.059 61.3747 226.342 62.1039C226.624 62.8331 226.753 63.6122 226.721 64.3931C226.748 65.2911 226.585 66.1847 226.244 67.0163C225.902 67.8478 225.39 68.5989 224.739 69.2212C224.193 69.7412 223.548 70.1476 222.842 70.4167C222.136 70.6857 221.383 70.812 220.628 70.7881C219.996 70.801 219.367 70.7139 218.762 70.53C218.287 70.363 217.844 70.1172 217.452 69.8029V73.2421C217.413 73.7391 217.47 74.2389 217.62 74.7145C217.752 74.9418 217.958 75.1175 218.204 75.2126C218.691 75.3645 219.202 75.4274 219.712 75.398V75.8524H212.72V75.398H213.085C213.556 75.4182 214.024 75.3299 214.454 75.1399C214.643 75.046 214.794 74.8926 214.885 74.7036C215.025 74.2036 215.077 73.6833 215.039 73.1657V62.4845C215.066 62.0171 215.027 61.5483 214.922 61.092C214.854 60.9072 214.725 60.7507 214.557 60.6485C214.343 60.5413 214.105 60.4912 213.867 60.5031C213.562 60.5159 213.262 60.5748 212.976 60.6776L212.793 60.2777ZM217.455 62.2336V66.4509C217.429 67.0526 217.473 67.6553 217.587 68.2468C217.759 68.7706 218.112 69.2164 218.584 69.5047C219.181 69.8845 219.88 70.0735 220.588 70.0464C221.027 70.0629 221.465 69.9855 221.872 69.8193C222.279 69.6531 222.645 69.4021 222.946 69.083C223.733 68.2444 224.127 67.0653 224.129 65.5456C224.129 63.8199 223.683 62.4929 222.789 61.5647C222.508 61.2589 222.165 61.0152 221.784 60.8493C221.402 60.6834 220.99 60.5989 220.573 60.6012C220.096 60.6053 219.626 60.7068 219.19 60.8994C218.553 61.2631 217.97 61.712 217.455 62.2336Z" fill="white"/>
<path d="M235.21 58.8234C237.232 58.8234 238.856 59.4718 240.08 60.7685C241.082 61.7898 241.642 63.1617 241.639 64.5894C241.62 65.6671 241.324 66.722 240.781 67.6542C240.243 68.6525 239.418 69.4679 238.412 69.9955C237.374 70.5293 236.221 70.8002 235.053 70.7845C233.04 70.7845 231.441 70.107 230.256 68.7522C229.291 67.7029 228.755 66.332 228.755 64.9094C228.772 63.8159 229.087 62.7476 229.668 61.8191C230.225 60.8445 231.059 60.0563 232.066 59.5542C233.043 59.07 234.119 58.8198 235.21 58.8234ZM234.753 59.6233C234.213 59.6305 233.682 59.7625 233.202 60.0086C232.642 60.3114 232.199 60.791 231.942 61.372C231.593 62.1572 231.428 63.0114 231.46 63.8696C231.42 65.3697 231.822 66.8486 232.618 68.1232C233.392 69.3133 234.41 69.9083 235.673 69.9083C236.111 69.9207 236.545 69.8392 236.948 69.6692C237.351 69.4991 237.712 69.2446 238.006 68.923C238.617 68.2662 238.924 67.1368 238.926 65.5347C238.926 63.5327 238.415 61.9573 237.393 60.8085C237.071 60.4262 236.666 60.1211 236.209 59.9159C235.752 59.7107 235.255 59.6107 234.753 59.6233Z" fill="white"/>
<path d="M247.776 66.9671L253.548 61.3283C253.584 60.8504 253.433 60.3772 253.125 60.0086C252.735 59.7207 252.253 59.5849 251.77 59.6269V59.1616H257.977V59.6233C257.533 59.5926 257.088 59.6482 256.666 59.7869C256.462 59.8844 256.283 60.026 256.14 60.2013C256.013 60.3649 255.951 60.8994 255.951 61.8046V67.7888C255.951 68.6613 256.002 69.1775 256.111 69.3484C256.239 69.5361 256.412 69.6886 256.615 69.7919C257.049 69.9548 257.514 70.0206 257.977 69.9846V70.4391H251.518V69.9846C252.325 69.9846 252.866 69.8574 253.136 69.6211C253.406 69.3848 253.545 68.7631 253.545 67.8033V62.4954L247.773 68.1523C247.74 68.663 247.868 69.1711 248.138 69.6065C248.353 69.8683 248.813 70.0101 249.521 70.0173V70.4718H243.344V70.0173C244.209 70.0173 244.764 69.8828 245.005 69.6138C245.246 69.3448 245.37 68.7485 245.37 67.8215V61.8046C245.37 60.9248 245.319 60.4013 245.21 60.245C245.082 60.0643 244.913 59.9161 244.717 59.8123C244.279 59.6485 243.81 59.5827 243.344 59.6196V59.1543H249.802V59.6233C249.359 59.5926 248.914 59.6482 248.492 59.7869C248.288 59.8844 248.108 60.026 247.966 60.2013C247.838 60.3649 247.776 60.8994 247.776 61.8046V66.9671Z" fill="white"/>
<path d="M259.872 62.6917V59.1543H260.481C260.649 59.2829 260.854 59.352 261.066 59.3506C261.436 59.3185 261.802 59.2528 262.161 59.1543C262.899 58.9581 263.657 58.8458 264.421 58.8198C265.54 58.7814 266.649 59.0412 267.634 59.5724C268.493 60.0717 268.922 60.737 268.922 61.5683C268.922 62.8432 267.781 63.7678 265.498 64.3422C268.16 64.8124 269.492 65.868 269.492 67.5088C269.492 68.3692 269.065 69.1303 268.21 69.7919C267.356 70.4536 266.112 70.7845 264.479 70.7845C263.516 70.8046 262.557 70.6392 261.657 70.2973C260.698 69.8829 259.806 69.3292 259.01 68.654L259.375 68.3304C260.969 69.3751 262.481 69.8974 263.91 69.8974C264.645 69.9242 265.363 69.6736 265.921 69.1957C266.178 68.9685 266.381 68.6879 266.517 68.3738C266.652 68.0596 266.717 67.7197 266.706 67.3779C266.706 65.7444 265.458 64.8779 262.96 64.7785V64.0514C264.136 64.0514 264.988 63.786 265.516 63.2552C265.757 63.0391 265.952 62.7767 266.089 62.4837C266.226 62.1906 266.302 61.8731 266.312 61.5501C266.311 61.2801 266.249 61.0137 266.132 60.7704C266.014 60.527 265.844 60.3127 265.633 60.1432C265.13 59.7241 264.487 59.5098 263.833 59.5433C262.102 59.5433 260.956 60.5903 260.394 62.6844L259.872 62.6917Z" fill="white"/>
<path d="M279.842 64.4768C282.276 64.9057 283.493 65.8752 283.493 67.3852C283.493 68.4104 282.986 69.1788 281.971 69.6902C280.956 70.2016 279.539 70.456 277.721 70.4536H271.149V69.9992C272.015 69.9992 272.562 69.861 272.789 69.5847C273.015 69.3084 273.132 68.7158 273.132 67.8033V61.8046C273.132 60.9139 273.081 60.394 272.978 60.2377C272.853 60.0611 272.688 59.9156 272.497 59.8123C272.068 59.6482 271.607 59.5823 271.149 59.6196V59.1543H277.301C278.267 59.1338 279.232 59.2117 280.182 59.387C280.868 59.5097 281.503 59.8308 282.007 60.3104C282.235 60.5258 282.415 60.786 282.537 61.0746C282.658 61.3631 282.718 61.6736 282.712 61.9864C282.692 63.271 281.736 64.1011 279.842 64.4768ZM275.541 64.1932H276.312C277.643 64.1932 278.606 63.9775 279.2 63.546C279.466 63.3777 279.687 63.1462 279.842 62.8721C279.997 62.598 280.081 62.2899 280.087 61.9755C280.105 61.6568 280.029 61.3398 279.868 61.0639C279.707 60.7879 279.468 60.5651 279.181 60.4231C278.579 60.0995 277.619 59.9432 276.297 59.9432H275.538L275.541 64.1932ZM275.541 69.4393C276.108 69.5814 276.691 69.6487 277.276 69.6393C278.432 69.6393 279.292 69.4248 279.857 68.9958C280.122 68.81 280.338 68.5626 280.486 68.275C280.633 67.9873 280.708 67.6682 280.704 67.3452C280.709 66.9813 280.608 66.6237 280.413 66.3155C280.219 66.0072 279.94 65.7614 279.608 65.6074C278.664 65.159 277.623 64.9517 276.578 65.0039C276.261 65.0039 275.914 65.0039 275.545 65.0294L275.541 69.4393Z" fill="white"/>
<path d="M291.792 58.8234C293.814 58.8234 295.438 59.4718 296.662 60.7685C297.664 61.7898 298.224 63.1617 298.221 64.5894C298.202 65.6671 297.906 66.722 297.363 67.6542C296.825 68.6525 296 69.4679 294.993 69.9955C293.956 70.5293 292.802 70.8002 291.635 70.7845C289.622 70.7845 288.023 70.107 286.837 68.7522C285.873 67.7029 285.337 66.332 285.337 64.9094C285.345 63.8126 285.655 62.7391 286.231 61.8046C286.788 60.83 287.623 60.0417 288.63 59.5397C289.613 59.0578 290.696 58.8124 291.792 58.8234ZM291.343 59.6233C290.802 59.6305 290.271 59.7625 289.791 60.0086C289.231 60.3114 288.788 60.791 288.531 61.372C288.182 62.1572 288.017 63.0114 288.049 63.8696C288.009 65.3697 288.411 66.8486 289.207 68.1232C289.981 69.3133 290.999 69.9083 292.263 69.9083C292.7 69.9207 293.134 69.8392 293.537 69.6692C293.94 69.4991 294.301 69.2446 294.595 68.923C295.206 68.2662 295.513 67.1368 295.516 65.5347C295.516 63.5327 295.004 61.9573 293.982 60.8085C293.66 60.4262 293.255 60.1211 292.798 59.9159C292.341 59.7107 291.844 59.6107 291.343 59.6233Z" fill="white"/>
<path d="M301.149 59.1579H312.927V59.6233C312.481 59.5916 312.033 59.6472 311.609 59.7869C311.408 59.8857 311.231 60.0272 311.09 60.2013C310.962 60.3649 310.9 60.8994 310.9 61.8046V67.3852C310.9 68.5583 311.022 69.2781 311.266 69.5447C311.509 69.8113 312.065 69.958 312.934 69.9846V73.5693H312.383C312.358 72.9376 312.152 72.326 311.791 71.806C311.429 71.301 310.909 70.9291 310.313 70.7481C309.4 70.5076 308.456 70.4034 307.512 70.4391H304.073C303.23 70.4148 302.388 70.4954 301.565 70.679C300.965 70.8392 300.435 71.1919 300.057 71.6824C299.641 72.2306 299.388 72.8845 299.327 73.5693H298.787V69.9846C299.579 69.9599 300.341 69.6791 300.959 69.1848C301.609 68.6734 302.182 67.6748 302.679 66.1891C303.156 64.776 303.403 63.2956 303.409 61.8046C303.409 60.3916 302.655 59.6645 301.149 59.6233V59.1579ZM304.369 59.9577V60.634C304.369 64.667 303.504 67.6688 301.773 69.6393H306.731C307.624 69.6393 308.139 69.575 308.275 69.4466C308.412 69.3181 308.48 68.8479 308.48 68.036V59.9577H304.369Z" fill="white"/>
<path d="M325.858 66.1673C325.581 67.5232 324.832 68.7383 323.744 69.5993C322.753 70.3801 321.525 70.8041 320.261 70.8026C319.526 70.8094 318.797 70.6701 318.116 70.393C317.435 70.1158 316.817 69.7063 316.296 69.1884C315.167 68.1147 314.604 66.6605 314.606 64.8258C314.578 64.0117 314.732 63.2016 315.056 62.4536C315.379 61.7056 315.866 61.0382 316.479 60.4994C317.711 59.3964 319.317 58.8012 320.973 58.8344C322.117 58.7877 323.247 59.0951 324.208 59.7142C325.053 60.3031 325.475 60.909 325.475 61.5319C325.478 61.6783 325.447 61.8233 325.384 61.9553C325.32 62.0874 325.226 62.2026 325.11 62.2918C324.821 62.5001 324.469 62.6029 324.113 62.5826C323.876 62.6005 323.637 62.5684 323.413 62.4882C323.189 62.408 322.985 62.2816 322.813 62.1173C322.605 61.8287 322.49 61.4837 322.485 61.1284C322.469 60.9154 322.408 60.7082 322.306 60.5203C322.204 60.3324 322.063 60.1679 321.893 60.0377C321.472 59.772 320.978 59.6448 320.48 59.6742C320.047 59.6556 319.615 59.7269 319.211 59.8833C318.807 60.0398 318.44 60.278 318.133 60.5831C317.732 61.0105 317.421 61.5133 317.218 62.0621C317.015 62.6108 316.924 63.1945 316.95 63.7787C316.93 65.0645 317.343 66.3199 318.122 67.3452C318.484 67.8411 318.962 68.2411 319.515 68.5104C320.068 68.7798 320.679 68.9102 321.295 68.8903C322.213 68.8985 323.11 68.6102 323.85 68.0687C324.523 67.5128 325.057 66.8082 325.409 66.011L325.858 66.1673Z" fill="white"/>
<path d="M327.563 59.1579H339.107L339.692 62.2118H339.034C338.959 61.6943 338.758 61.2028 338.45 60.7794C338.214 60.4699 337.889 60.2382 337.519 60.1141C336.931 59.9853 336.328 59.9327 335.727 59.9577H334.562V67.7924C334.521 68.3311 334.583 68.8727 334.745 69.3884C334.805 69.5008 334.889 69.5988 334.991 69.676C335.093 69.7531 335.211 69.8076 335.336 69.8356C335.952 69.9418 336.576 69.9917 337.202 69.9846V70.4391H329.94V69.9846C330.872 69.9652 331.472 69.838 331.74 69.6029C332.006 69.3666 332.141 68.7594 332.141 67.7851V59.9577H330.948C330.376 59.9335 329.804 59.9762 329.243 60.085C328.898 60.2015 328.596 60.4165 328.374 60.703C328.035 61.1516 327.794 61.6654 327.665 62.2118H327.012L327.563 59.1579Z" fill="white"/>
<path d="M349.279 64.4768C351.713 64.9057 352.93 65.8752 352.93 67.3852C352.93 68.4104 352.422 69.1788 351.407 69.6902C350.392 70.2016 348.976 70.456 347.158 70.4536H340.586V69.9992C341.451 69.9992 341.999 69.861 342.225 69.5847C342.452 69.3084 342.568 68.7158 342.568 67.8033V61.8046C342.568 60.9139 342.517 60.394 342.415 60.2377C342.289 60.0611 342.124 59.9156 341.933 59.8123C341.504 59.6482 341.044 59.5823 340.586 59.6196V59.1543H346.738C347.703 59.1338 348.669 59.2117 349.618 59.387C350.305 59.5097 350.939 59.8308 351.444 60.3104C351.672 60.5258 351.852 60.786 351.973 61.0746C352.094 61.3631 352.154 61.6736 352.148 61.9864C352.131 63.271 351.175 64.1011 349.279 64.4768ZM344.978 64.1932H345.748C347.08 64.1932 348.042 63.9775 348.636 63.546C348.903 63.3777 349.124 63.1462 349.279 62.8721C349.433 62.598 349.517 62.2899 349.523 61.9755C349.542 61.6568 349.466 61.3398 349.305 61.0639C349.144 60.7879 348.905 60.5651 348.618 60.4231C348.016 60.0995 347.055 59.9432 345.734 59.9432H344.974L344.978 64.1932ZM344.978 69.4393C345.545 69.5814 346.128 69.6487 346.712 69.6393C347.868 69.6393 348.729 69.4248 349.293 68.9958C349.559 68.81 349.775 68.5626 349.922 68.275C350.07 67.9873 350.145 67.6682 350.14 67.3452C350.145 66.9813 350.044 66.6237 349.85 66.3155C349.656 66.0072 349.376 65.7614 349.045 65.6074C348.101 65.159 347.06 64.9517 346.015 65.0039C345.697 65.0039 345.35 65.0039 344.982 65.0294L344.978 69.4393Z" fill="white"/>
<path d="M356.975 63.4079C356.975 65.0827 357.462 66.3963 358.435 67.3488C358.879 67.8053 359.412 68.1673 360 68.4129C360.589 68.6585 361.222 68.7825 361.86 68.7776C362.663 68.7972 363.455 68.5865 364.142 68.1705C364.88 67.6498 365.445 66.9221 365.766 66.08L366.219 66.3272C365.978 67.5166 365.353 68.5952 364.441 69.3993C363.444 70.3288 362.118 70.8269 360.754 70.7845C359.225 70.8129 357.747 70.2439 356.635 69.1993C355.494 68.1475 354.923 66.7296 354.923 64.9457C354.923 63.0068 355.508 61.5016 356.679 60.4304C357.878 59.3435 359.454 58.7633 361.075 58.8125C362.417 58.7594 363.732 59.2052 364.762 60.0632C365.239 60.4774 365.616 60.993 365.866 61.572C366.115 62.151 366.231 62.7784 366.204 63.4079H356.975ZM356.975 62.6808H363.156C363.15 62.156 363.046 61.637 362.849 61.1502C362.602 60.6855 362.221 60.3055 361.754 60.0595C361.292 59.8054 360.774 59.6716 360.246 59.6705C359.452 59.6655 358.683 59.9471 358.081 60.4631C357.758 60.7433 357.494 61.0846 357.304 61.4671C357.114 61.8496 357.002 62.2658 356.975 62.6917V62.6808Z" fill="white"/>
<path d="M372.152 64.1968H377.924V61.8046C377.946 61.3345 377.911 60.8634 377.822 60.4013C377.733 60.1597 377.554 59.9616 377.321 59.8487C376.872 59.6614 376.384 59.5829 375.898 59.6196V59.1543H382.356V59.6233C381.91 59.6006 381.463 59.6598 381.038 59.7978C380.793 59.8846 380.591 60.0633 380.476 60.2959C380.347 60.7878 380.297 61.2972 380.33 61.8046V67.7888C380.307 68.2641 380.344 68.7404 380.439 69.2066C380.485 69.3312 380.556 69.4451 380.648 69.5413C380.739 69.6376 380.85 69.7142 380.972 69.7665C381.412 69.9405 381.884 70.015 382.356 69.9846V70.4391H375.898V69.9846C376.704 69.9846 377.245 69.8574 377.515 69.6211C377.785 69.3848 377.924 68.7631 377.924 67.8033V65.0075H372.152V67.8033C372.129 68.2786 372.166 68.7549 372.261 69.2212C372.307 69.3457 372.378 69.4596 372.47 69.5559C372.561 69.6521 372.672 69.7288 372.794 69.781C373.234 69.955 373.706 70.0295 374.178 69.9992V70.4536H367.72V69.9992C368.585 69.9992 369.14 69.8647 369.381 69.5956C369.622 69.3266 369.746 68.7304 369.746 67.8033V61.8046C369.768 61.3281 369.732 60.8506 369.636 60.3831C369.591 60.259 369.52 60.1458 369.428 60.0506C369.337 59.9554 369.226 59.8805 369.103 59.8305C368.662 59.6634 368.191 59.5915 367.72 59.6196V59.1543H374.178V59.6233C373.732 59.6006 373.285 59.6598 372.86 59.7978C372.615 59.8846 372.413 60.0633 372.298 60.2959C372.169 60.7878 372.119 61.2972 372.152 61.8046V64.1968Z" fill="white"/>
<path d="M388.124 64.1968H393.897V61.8046C393.918 61.3345 393.884 60.8634 393.794 60.4013C393.706 60.1597 393.526 59.9616 393.294 59.8487C392.844 59.6614 392.356 59.5829 391.87 59.6196V59.1543H398.314V59.6233C397.868 59.6006 397.421 59.6598 396.996 59.7978C396.751 59.8846 396.549 60.0633 396.434 60.2959C396.305 60.7878 396.255 61.2972 396.288 61.8046V67.7888C396.265 68.2641 396.302 68.7404 396.397 69.2066C396.443 69.3312 396.514 69.4451 396.606 69.5413C396.698 69.6376 396.808 69.7142 396.93 69.7665C397.37 69.9405 397.842 70.015 398.314 69.9846V70.4391H391.856V69.9846C392.663 69.9846 393.203 69.8574 393.473 69.6211C393.743 69.3848 393.882 68.7631 393.882 67.8033V65.0075H388.11V67.8033C388.087 68.2786 388.124 68.7549 388.219 69.2212C388.265 69.3457 388.336 69.4596 388.428 69.5559C388.52 69.6521 388.63 69.7288 388.752 69.781C389.192 69.955 389.664 70.0295 390.136 69.9992V70.4536H383.711V69.9992C384.576 69.9992 385.131 69.8647 385.372 69.5956C385.613 69.3266 385.737 68.7304 385.737 67.8033V61.8046C385.759 61.3281 385.723 60.8506 385.627 60.3831C385.582 60.259 385.511 60.1458 385.419 60.0506C385.328 59.9554 385.217 59.8805 385.094 59.8305C384.653 59.6646 384.181 59.594 383.711 59.6233V59.1579H390.169V59.6233C389.723 59.6006 389.276 59.6598 388.851 59.7978C388.606 59.8846 388.404 60.0633 388.289 60.2959C388.16 60.7878 388.11 61.2972 388.143 61.8046L388.124 64.1968Z" fill="white"/>
<path d="M406.459 58.8234C408.482 58.8234 410.105 59.4718 411.33 60.7685C412.332 61.7898 412.891 63.1617 412.889 64.5894C412.869 65.6671 412.574 66.722 412.031 67.6542C411.493 68.6525 410.668 69.4679 409.661 69.9955C408.624 70.5293 407.47 70.8002 406.302 70.7845C404.289 70.7845 402.69 70.107 401.505 68.7522C400.54 67.7029 400.005 66.332 400.004 64.9094C400.021 63.8159 400.337 62.7476 400.917 61.8191C401.474 60.8445 402.309 60.0563 403.316 59.5542C404.292 59.07 405.369 58.8198 406.459 58.8234ZM406.007 59.6233C405.466 59.6305 404.935 59.7625 404.455 60.0086C403.895 60.3114 403.452 60.791 403.195 61.372C402.846 62.1572 402.681 63.0114 402.713 63.8696C402.673 65.3697 403.076 66.8486 403.871 68.1232C404.645 69.3133 405.663 69.9083 406.927 69.9083C407.364 69.9207 407.798 69.8392 408.201 69.6692C408.604 69.4991 408.965 69.2446 409.26 68.923C409.87 68.2662 410.177 67.1368 410.18 65.5347C410.18 63.5327 409.668 61.9573 408.646 60.8085C408.324 60.4267 407.92 60.1219 407.464 59.9167C407.008 59.7115 406.511 59.6113 406.01 59.6233H406.007Z" fill="white"/>
<path d="M417.467 63.4079C417.467 65.0827 417.954 66.3963 418.927 67.3488C419.371 67.8053 419.904 68.1673 420.492 68.4129C421.081 68.6585 421.714 68.7825 422.352 68.7776C423.155 68.7972 423.947 68.5865 424.634 68.1705C425.372 67.6498 425.937 66.9221 426.258 66.08L426.711 66.3272C426.47 67.5166 425.845 68.5952 424.933 69.3993C423.936 70.3288 422.61 70.8269 421.246 70.7845C419.717 70.8129 418.239 70.2439 417.127 69.1993C415.986 68.1475 415.415 66.7296 415.415 64.9457C415.415 63.0068 416 61.5016 417.171 60.4304C418.374 59.3399 419.956 58.7595 421.581 58.8125C422.924 58.7594 424.238 59.2052 425.269 60.0632C425.746 60.4774 426.123 60.993 426.372 61.572C426.622 62.151 426.738 62.7784 426.711 63.4079H417.467ZM417.467 62.6808H423.648C423.642 62.156 423.538 61.637 423.341 61.1502C423.094 60.6855 422.713 60.3055 422.246 60.0595C421.784 59.8054 421.266 59.6716 420.738 59.6705C419.944 59.6655 419.175 59.9471 418.573 60.4631C418.25 60.7433 417.986 61.0846 417.796 61.4671C417.606 61.8496 417.494 62.2658 417.467 62.6917V62.6808Z" fill="white"/>
<path d="M445.875 59.9577H440.102V67.7924C440.102 68.6649 440.154 69.1812 440.263 69.352C440.39 69.5389 440.562 69.6914 440.763 69.7956C441.199 69.9585 441.665 70.0243 442.129 69.9883V70.4427H435.67V69.9883C436.535 69.9883 437.09 69.8537 437.331 69.5847C437.572 69.3157 437.696 68.7195 437.696 67.7924V61.8046C437.696 60.9248 437.645 60.4013 437.536 60.245C437.408 60.0643 437.239 59.9161 437.043 59.8123C436.605 59.6485 436.136 59.5827 435.67 59.6196V59.1543H450.307V59.6233C449.863 59.5926 449.418 59.6482 448.996 59.7869C448.792 59.8844 448.612 60.026 448.47 60.2013C448.343 60.3649 448.28 60.8994 448.28 61.8046V67.7888C448.28 68.6613 448.332 69.1775 448.441 69.3484C448.569 69.5361 448.742 69.6886 448.945 69.7919C449.379 69.9548 449.844 70.0206 450.307 69.9846V70.4391H443.848V69.9846C444.655 69.9846 445.195 69.8574 445.466 69.6211C445.736 69.3848 445.875 68.7631 445.875 67.8033V59.9577Z" fill="white"/>
<path d="M450.949 60.2777L455.06 58.8707H455.615V61.5101C456.145 60.6702 456.855 59.9566 457.693 59.4197C458.356 59.0302 459.113 58.8244 459.883 58.8234C460.503 58.8063 461.12 58.9155 461.697 59.1443C462.273 59.3731 462.796 59.7167 463.235 60.1541C463.786 60.7108 464.216 61.3743 464.5 62.1035C464.783 62.8326 464.913 63.6119 464.881 64.3931C464.908 65.2911 464.745 66.1847 464.403 67.0163C464.062 67.8478 463.549 68.5989 462.899 69.2212C462.352 69.7412 461.707 70.1476 461.002 70.4167C460.296 70.6857 459.543 70.812 458.788 70.7881C458.156 70.801 457.526 70.7139 456.922 70.53C456.447 70.363 456.004 70.1172 455.611 69.8029V73.2421C455.573 73.7391 455.63 74.2389 455.779 74.7145C455.912 74.9418 456.118 75.1175 456.364 75.2126C456.851 75.3645 457.362 75.4274 457.871 75.398V75.8524H450.887V75.398H451.252C451.723 75.4182 452.191 75.3299 452.621 75.1399C452.81 75.046 452.961 74.8926 453.052 74.7036C453.192 74.2036 453.244 73.6833 453.206 73.1657V62.4845C453.231 62.0118 453.188 61.5379 453.078 61.0775C453.01 60.8926 452.881 60.7362 452.713 60.634C452.499 60.5268 452.261 60.4767 452.023 60.4885C451.719 60.5014 451.418 60.5602 451.132 60.663L450.949 60.2777ZM455.611 62.2336V66.4509C455.585 67.0526 455.629 67.6553 455.743 68.2468C455.915 68.7706 456.268 69.2164 456.74 69.5047C457.337 69.8845 458.036 70.0735 458.744 70.0464C459.185 70.0631 459.625 69.985 460.033 69.8175C460.441 69.65 460.808 69.397 461.11 69.0757C461.896 68.2371 462.29 67.058 462.293 65.5383C462.293 63.8127 461.846 62.4857 460.953 61.5574C460.671 61.2516 460.329 61.008 459.947 60.842C459.565 60.6761 459.153 60.5916 458.737 60.594C458.26 60.5981 457.789 60.6995 457.353 60.8921C456.715 61.2578 456.13 61.7092 455.615 62.2336H455.611Z" fill="white"/>
<path d="M469.08 63.4079C469.08 65.0827 469.566 66.3963 470.54 67.3488C470.984 67.8053 471.517 68.1673 472.105 68.4129C472.694 68.6585 473.326 68.7825 473.965 68.7776C474.768 68.7972 475.56 68.5865 476.246 68.1705C476.985 67.6498 477.55 66.9221 477.871 66.08L478.324 66.3272C478.083 67.5166 477.458 68.5952 476.546 69.3993C475.549 70.3288 474.223 70.8269 472.858 70.7845C471.33 70.8129 469.852 70.2439 468.74 69.1993C467.599 68.1475 467.028 66.7296 467.028 64.9457C467.028 63.0068 467.613 61.5016 468.784 60.4304C469.987 59.3399 471.569 58.7595 473.194 58.8125C474.537 58.7594 475.851 59.2052 476.882 60.0632C477.358 60.4774 477.736 60.993 477.985 61.572C478.235 62.151 478.351 62.7784 478.324 63.4079H469.08ZM469.08 62.6808H475.261C475.255 62.156 475.151 61.637 474.954 61.1502C474.707 60.6855 474.325 60.3055 473.859 60.0595C473.397 59.8054 472.878 59.6716 472.351 59.6705C471.557 59.6655 470.788 59.9471 470.186 60.4631C469.863 60.7433 469.599 61.0846 469.409 61.4671C469.219 61.8496 469.107 62.2658 469.08 62.6917V62.6808Z" fill="white"/>
<path d="M481.511 59.1579H493.289V59.6233C492.843 59.5916 492.395 59.6472 491.971 59.7869C491.77 59.8857 491.593 60.0272 491.452 60.2013C491.325 60.3649 491.263 60.8994 491.263 61.8046V67.3852C491.263 68.5583 491.384 69.2781 491.628 69.5447C491.871 69.8113 492.427 69.958 493.296 69.9846V73.5693H492.745C492.72 72.9376 492.515 72.326 492.153 71.806C491.791 71.301 491.271 70.9291 490.675 70.7481C489.762 70.5076 488.818 70.4034 487.875 70.4391H484.435C483.593 70.4148 482.75 70.4954 481.927 70.679C481.327 70.8392 480.797 71.1919 480.419 71.6824C480.003 72.2306 479.75 72.8845 479.689 73.5693H479.149V69.9846C479.941 69.9599 480.703 69.6791 481.321 69.1848C481.971 68.6734 482.544 67.6748 483.041 66.1891C483.518 64.776 483.765 63.2956 483.771 61.8046C483.771 60.3916 483.018 59.6645 481.511 59.6233V59.1579ZM484.731 59.9577V60.634C484.731 64.667 483.866 67.6688 482.135 69.6393H487.093C487.987 69.6393 488.501 69.575 488.638 69.4466C488.774 69.3181 488.842 68.8479 488.842 68.036V59.9577H484.731Z" fill="white"/>
<path d="M504.818 59.9577H499.046V67.7924C499.046 68.6649 499.097 69.1812 499.207 69.352C499.334 69.5389 499.506 69.6914 499.707 69.7956C500.143 69.9585 500.609 70.0243 501.073 69.9883V70.4427H494.614V69.9883C495.479 69.9883 496.034 69.8537 496.275 69.5847C496.516 69.3157 496.64 68.7195 496.64 67.7924V61.8046C496.64 60.9248 496.589 60.4013 496.48 60.245C496.352 60.0643 496.183 59.9161 495.987 59.8123C495.549 59.6485 495.08 59.5827 494.614 59.6196V59.1543H509.251V59.6233C508.807 59.5926 508.362 59.6482 507.94 59.7869C507.736 59.8844 507.556 60.026 507.414 60.2013C507.286 60.3649 507.224 60.8994 507.224 61.8046V67.7888C507.224 68.6613 507.276 69.1775 507.385 69.3484C507.513 69.5361 507.686 69.6886 507.889 69.7919C508.323 69.9548 508.788 70.0206 509.251 69.9846V70.4391H502.792V69.9846C503.599 69.9846 504.139 69.8574 504.41 69.6211C504.68 69.3848 504.818 68.7631 504.818 67.8033V59.9577Z" fill="white"/>
<path d="M509.893 60.2777L514.004 58.8707H514.559V61.5101C515.089 60.6702 515.799 59.9566 516.636 59.4197C517.3 59.0302 518.056 58.8244 518.827 58.8234C519.447 58.8063 520.064 58.9155 520.641 59.1443C521.217 59.3731 521.74 59.7167 522.178 60.1541C522.73 60.7108 523.16 61.3743 523.443 62.1035C523.727 62.8326 523.857 63.6119 523.825 64.3931C523.852 65.2911 523.689 66.1847 523.347 67.0163C523.006 67.8478 522.493 68.5989 521.843 69.2212C521.296 69.7412 520.651 70.1476 519.946 70.4167C519.24 70.6857 518.487 70.812 517.732 70.7881C517.102 70.8003 516.475 70.7131 515.873 70.53C515.398 70.363 514.955 70.1172 514.563 69.8029V73.2421C514.524 73.7391 514.581 74.2389 514.731 74.7145C514.863 74.9418 515.069 75.1175 515.315 75.2126C515.802 75.3645 516.313 75.4274 516.823 75.398V75.8524H509.827V75.398H510.193C510.663 75.4182 511.131 75.3299 511.562 75.1399C511.75 75.046 511.901 74.8926 511.992 74.7036C512.132 74.2036 512.184 73.6833 512.146 73.1657V62.4845C512.174 62.0171 512.134 61.5483 512.029 61.092C511.961 60.9072 511.833 60.7507 511.664 60.6485C511.45 60.5413 511.213 60.4912 510.974 60.5031C510.67 60.5159 510.369 60.5748 510.083 60.6776L509.893 60.2777ZM514.555 62.2336V66.4509C514.529 67.0526 514.573 67.6553 514.687 68.2468C514.859 68.7706 515.212 69.2164 515.684 69.5047C516.281 69.8845 516.98 70.0735 517.688 70.0464C518.127 70.0629 518.565 69.9855 518.972 69.8193C519.379 69.6531 519.745 69.4021 520.046 69.083C520.833 68.2444 521.227 67.0653 521.229 65.5456C521.229 63.8199 520.783 62.4929 519.889 61.5647C519.608 61.2589 519.265 61.0152 518.884 60.8493C518.502 60.6834 518.09 60.5989 517.673 60.6012C517.196 60.6053 516.726 60.7068 516.29 60.8994C515.654 61.2634 515.072 61.7123 514.559 62.2336H514.555Z" fill="white"/>
<path d="M529.951 66.9671L535.723 61.3283C535.759 60.8504 535.608 60.3772 535.3 60.0086C534.91 59.7207 534.429 59.5849 533.945 59.6269V59.1616H540.152V59.6233C539.709 59.5926 539.263 59.6482 538.841 59.7869C538.637 59.8844 538.458 60.026 538.315 60.2013C538.188 60.3649 538.126 60.8994 538.126 61.8046V67.7888C538.126 68.6613 538.177 69.1775 538.286 69.3484C538.414 69.5361 538.587 69.6886 538.79 69.7919C539.224 69.9548 539.689 70.0206 540.152 69.9846V70.4391H533.693V69.9846C534.5 69.9846 535.041 69.8574 535.311 69.6211C535.581 69.3848 535.72 68.7631 535.72 67.8033V62.4954L529.948 68.1523C529.915 68.663 530.043 69.1711 530.313 69.6065C530.528 69.8683 530.988 70.0101 531.696 70.0173V70.4718H525.53V70.0173C526.395 70.0173 526.95 69.8828 527.191 69.6138C527.432 69.3448 527.556 68.7485 527.556 67.8215V61.8046C527.556 60.9248 527.505 60.4013 527.396 60.245C527.268 60.0643 527.099 59.9161 526.903 59.8123C526.465 59.6485 525.996 59.5827 525.53 59.6196V59.1543H531.989V59.6233C531.545 59.5926 531.1 59.6482 530.678 59.7869C530.474 59.8844 530.294 60.026 530.152 60.2013C530.024 60.3649 529.962 60.8994 529.962 61.8046L529.951 66.9671Z" fill="white"/>
<path d="M553.883 59.1579V59.6233C553.429 59.5985 552.975 59.6704 552.55 59.8341C552.304 59.935 552.105 60.1245 551.992 60.3649C551.874 60.8401 551.829 61.3306 551.86 61.8191V67.8033C551.836 68.2766 551.876 68.7509 551.977 69.2139C552.028 69.3399 552.104 69.4546 552.2 69.5513C552.296 69.648 552.41 69.7249 552.536 69.7774C552.963 69.948 553.423 70.0237 553.883 69.9992V70.4536H547.428V69.9992C548.235 69.9992 548.772 69.8719 549.046 69.6356C549.319 69.3993 549.454 68.7776 549.454 67.8178V65.3675H548.388L544.131 70.4573H540.805V70.0028C541.153 70.0293 541.501 69.9706 541.82 69.8319C542.218 69.5153 542.573 69.1487 542.875 68.7413L545.997 65.0221C543.76 64.3653 542.643 63.3594 542.645 62.0046C542.645 61.2375 543.047 60.5758 543.847 60.0123C544.646 59.4488 546.015 59.1688 547.95 59.1688L553.883 59.1579ZM549.462 60.0923C549.103 60.0043 548.736 59.9592 548.366 59.9577C547.384 59.9577 546.651 60.1613 546.176 60.5758C545.952 60.7476 545.77 60.9676 545.643 61.2195C545.517 61.4714 545.449 61.7485 545.446 62.03C545.447 62.3963 545.543 62.7561 545.724 63.0745C545.906 63.393 546.167 63.6593 546.483 63.8478C547.256 64.3516 548.166 64.6056 549.089 64.5749C549.211 64.5747 549.333 64.5662 549.454 64.5495L549.462 60.0923Z" fill="white"/>
<path d="M555.281 59.1579H566.825L567.41 62.2118H566.752C566.677 61.6943 566.476 61.2028 566.168 60.7794C565.932 60.4699 565.607 60.2382 565.237 60.1141C564.649 59.9853 564.047 59.9327 563.445 59.9577H562.28V67.7924C562.239 68.3311 562.301 68.8727 562.463 69.3884C562.523 69.5008 562.608 69.5988 562.71 69.676C562.812 69.7531 562.929 69.8076 563.054 69.8356C563.67 69.9418 564.295 69.9917 564.92 69.9846V70.4391H557.662V69.9846C558.594 69.9652 559.194 69.838 559.462 69.6029C559.728 69.3666 559.863 68.7594 559.863 67.7851V59.9577H558.669C558.098 59.9335 557.526 59.9762 556.964 60.085C556.62 60.2015 556.318 60.4165 556.095 60.703C555.757 61.1516 555.516 61.6654 555.387 62.2118H554.734L555.281 59.1579Z" fill="white"/>
<path d="M572.7 66.9671L578.472 61.3283C578.508 60.8504 578.356 60.3772 578.048 60.0086C577.659 59.7207 577.177 59.5849 576.694 59.6269V59.1616H582.9V59.6233C582.457 59.5926 582.012 59.6482 581.59 59.7869C581.386 59.8844 581.206 60.026 581.064 60.2013C580.936 60.3649 580.874 60.8994 580.874 61.8046V67.7888C580.874 68.6613 580.925 69.1775 581.035 69.3484C581.163 69.5361 581.336 69.6886 581.539 69.7919C581.973 69.9548 582.438 70.0206 582.9 69.9846V70.4391H576.442V69.9846C577.249 69.9846 577.789 69.8574 578.059 69.6211C578.33 69.3848 578.468 68.7631 578.468 67.8033V62.4954L572.696 68.1523C572.664 68.663 572.791 69.1711 573.061 69.6065C573.277 69.8683 573.737 70.0101 574.445 70.0173V70.4718H568.279V70.0173C569.144 70.0173 569.699 69.8828 569.94 69.6138C570.181 69.3448 570.305 68.7485 570.305 67.8215V61.8046C570.305 60.9248 570.254 60.4013 570.144 60.245C570.016 60.0643 569.847 59.9161 569.651 59.8123C569.214 59.6485 568.745 59.5827 568.279 59.6196V59.1543H574.737V59.6233C574.294 59.5926 573.848 59.6482 573.426 59.7869C573.222 59.8844 573.043 60.026 572.901 60.2013C572.773 60.3649 572.711 60.8994 572.711 61.8046L572.7 66.9671Z" fill="white"/>
<path d="M586.752 63.4079C586.752 65.0827 587.239 66.3963 588.213 67.3488C588.657 67.8053 589.189 68.1673 589.778 68.4129C590.366 68.6585 590.999 68.7825 591.637 68.7776C592.44 68.7972 593.232 68.5865 593.919 68.1705C594.657 67.6498 595.222 66.9221 595.544 66.08L595.996 66.3272C595.755 67.5166 595.131 68.5952 594.218 69.3993C593.222 70.3288 591.896 70.8269 590.531 70.7845C589.003 70.8129 587.524 70.2439 586.413 69.1993C585.271 68.1475 584.7 66.7296 584.7 64.9457C584.7 63.0068 585.286 61.5016 586.456 60.4304C587.659 59.3399 589.241 58.7595 590.867 58.8125C592.209 58.7594 593.523 59.2052 594.554 60.0632C595.031 60.4774 595.408 60.993 595.658 61.572C595.907 62.151 596.023 62.7784 595.996 63.4079H586.752ZM586.752 62.6808H592.933C592.927 62.156 592.823 61.637 592.626 61.1502C592.379 60.6855 591.998 60.3055 591.531 60.0595C591.07 59.8054 590.551 59.6716 590.023 59.6705C589.229 59.6655 588.46 59.9471 587.858 60.4631C587.535 60.7433 587.271 61.0846 587.081 61.4671C586.891 61.8496 586.779 62.2658 586.752 62.6917V62.6808Z" fill="white"/>
<path d="M104.726 8.8017C106.227 5.2643 108.279 3.02115 115.65 3.02115C120.224 3.02115 124.321 3.49378 126.573 8.8017L144.255 51.156H128.008L124.251 41.3691H107.045L103.292 51.156H87.0413L104.726 8.8017ZM110.732 30.4879H120.564L116.263 18.4541C116.128 18.1124 115.854 17.4325 115.65 17.4325C115.445 17.4325 115.172 18.1124 115.036 18.4541L110.732 30.4879Z" fill="white"/>
<path d="M144.941 22.3987C144.941 20.0211 145.828 17.8434 147.194 16.6872C148.968 15.2621 151.768 15.1239 154.156 15.1239H171.293C174.579 15.1239 178.803 14.9894 181.33 17.5743C183.308 19.6139 183.52 22.875 183.52 24.4383C183.52 26.4124 183.381 28.8009 181.472 30.5606C180.245 31.713 178.186 32.462 176.284 32.5965V32.7201C178.058 32.8546 180.3 33.6035 181.677 34.9014C183.451 36.5992 183.725 38.9005 183.725 41.0819C183.725 42.9178 183.59 46.5898 181.198 48.8329C178.672 51.2106 175.054 51.1451 171.505 51.1451H153.809C151.418 51.1451 148.698 51.1451 146.913 49.6509C146.16 49.0401 144.934 47.5423 144.934 44.5611L144.941 22.3987ZM166.449 28.5792C168.701 28.5792 169.318 28.1684 169.519 28.0338C170.202 27.5576 170.271 26.7396 170.271 26.1288C170.287 25.8474 170.224 25.5671 170.09 25.3189C169.956 25.0706 169.756 24.864 169.512 24.7218C168.76 24.2456 167.686 24.2456 166.85 24.2456H161.045C160.402 24.2093 159.763 24.376 159.22 24.7218C158.936 24.9311 158.707 25.2057 158.552 25.5222C158.398 25.8388 158.322 26.1878 158.333 26.5396V28.5792H166.449ZM158.322 39.3223C158.322 39.5913 158.322 40.4129 158.734 40.8856C159.212 41.4963 160.03 41.4963 160.439 41.4963H166.788C167.883 41.4963 168.614 41.7654 169.658 40.8165C169.899 40.6382 170.089 40.4 170.209 40.1257C170.329 39.8513 170.374 39.5505 170.34 39.2532C170.34 38.5733 170.34 37.9589 169.588 37.4172C168.635 36.7374 167.61 36.8719 166.719 36.8719H158.322V39.3223Z" fill="white"/>
<path d="M215.316 51.156L215.999 32.4583C215.999 31.913 215.999 31.3677 215.455 31.3677C215.046 31.3677 214.703 31.9094 214.224 32.4583L201.388 48.4366C199.135 51.2251 197.565 51.5669 194.63 51.5669C191.695 51.5669 186.981 51.0215 186.981 44.7647V15.124H200.362L199.683 33.8108C199.683 34.4215 199.752 34.8287 200.296 34.8287C200.84 34.8287 201.253 34.1743 201.53 33.8108L214.637 17.4507C215.732 16.0946 216.827 14.7349 220.916 14.7349C228.565 14.7349 228.7 20.1047 228.7 21.9406V51.1742L215.316 51.156Z" fill="white"/>
<path d="M258.397 15.124C262.833 15.124 265.772 16.6872 267.341 18.2542C270.346 21.1626 270.755 25.4599 270.755 28.3829V43.4741C270.755 45.3791 270.616 47.5532 268.981 49.2546C267.272 51.0252 264.884 51.1597 262.836 51.1597H241.533C239.277 51.1597 236.823 51.0252 234.91 49.2546C232.114 46.7425 231.99 41.9835 231.99 39.126C231.99 35.9994 232.264 32.1929 235.129 30.0189C237.108 28.5246 239.43 28.4556 241.548 28.4556H257.385V27.9102C257.424 27.0648 257.184 26.2299 256.703 25.5326C255.677 24.1729 253.972 24.1038 252.606 24.1038H234.428V15.124H258.397ZM247.897 37.0173C247.488 37.0173 246.531 37.0864 245.918 37.6245C245.714 37.8555 245.561 38.1257 245.466 38.4185C245.372 38.7112 245.339 39.0201 245.37 39.3259C245.346 39.6102 245.382 39.8965 245.476 40.166C245.57 40.4354 245.721 40.6819 245.918 40.8892C246.443 41.2865 247.084 41.5011 247.743 41.5H254.706C255.388 41.5 256.276 41.3655 256.684 41.0237C257.298 40.5475 257.367 39.8676 257.367 39.2568V37.0137L247.897 37.0173Z" fill="white"/>
<path d="M288.294 51.156C285.22 51.156 280.51 50.7452 277.232 46.8733C274.435 43.6013 274.023 39.1223 274.023 33.6181C274.023 28.3829 274.296 22.7405 278.039 18.8613C280.839 15.9529 284.661 15.124 288.962 15.124H308.421V24.2347H295.187C290.612 24.2347 289.042 26.2742 288.294 28.5974C287.834 30.1353 287.63 31.7381 287.692 33.3418C287.692 37.4899 288.444 38.9842 288.787 39.5986C290.426 42.2525 293.898 42.0453 295.957 42.0453H309.203V51.156H288.294Z" fill="white"/>
<path d="M343.185 15.124C345.376 15.124 347.76 15.193 349.673 17.0981C351.174 18.6614 351.378 20.2247 351.378 22.0606V51.1451H337.994V26.4778C337.994 25.798 337.924 25.1836 337.311 24.7109C336.764 24.2347 335.946 24.2347 335.602 24.2347H328.217C327.874 24.2347 327.056 24.2347 326.508 24.7109C325.895 25.1836 325.825 25.8016 325.825 26.4778V51.156H312.459V22.0715C312.459 20.2356 312.664 18.6723 314.164 17.109C316.077 15.2039 318.465 15.1349 320.652 15.1349L343.185 15.124Z" fill="white"/>
<path d="M369.326 51.156C363.933 51.156 359.355 51.156 356.489 46.4662C354.919 43.8813 354.664 40.0748 354.664 33.549C354.664 26.9541 354.321 21.5807 357.585 18.2505C360.932 14.8513 367.829 14.7131 374.653 14.7131C381.954 14.7131 386.737 14.8476 389.621 17.1599C393.104 19.9483 393.513 25.3181 393.513 29.2627C393.513 31.5749 393.378 34.2252 391.323 35.8576C390.162 36.8065 389.001 36.8755 387.77 36.8755H368.055C367.976 37.8835 368.189 38.8929 368.669 39.784C369.83 41.62 372.287 41.4854 374.674 41.4854H392.224V51.1379L369.326 51.156ZM377.927 28.4483C379.841 28.4483 380.118 27.2231 380.118 26.5433C380.118 25.5944 379.64 24.5037 377.661 24.0965C376.485 23.918 375.298 23.8268 374.109 23.8239C372.539 23.8239 370.421 23.8929 369.465 24.4346C368.099 25.1836 367.895 26.616 368.03 28.4338L377.927 28.4483Z" fill="white"/>
<path d="M402.502 51.156C401.206 51.156 399.84 51.0215 398.486 49.7963C397.051 48.5021 396.781 47.0769 396.781 45.5791V15.124H410.161V38.7188C410.161 39.4677 410.161 40.2821 410.775 40.9001C411.457 41.58 412.275 41.5109 413.027 41.5109H422.107V15.124H435.491V41.5073H441.158V51.1597L402.502 51.156Z" fill="white"/>
<path d="M474.731 48.0331C473.636 51.1597 471.113 51.5705 468.452 51.5705C465.79 51.5705 463.264 51.1597 462.172 48.0331L456.437 31.9166C456.232 31.3095 455.958 30.9677 455.685 30.9677C455.48 30.9677 455.206 31.1713 455.206 31.7821L455.889 51.1597H442.49V21.5807C442.49 16.8254 447.269 14.7168 452.118 14.7168C457.101 14.7168 460.036 16.2801 461.471 20.2901L467.137 35.923C467.481 36.8719 468.025 37.4863 468.437 37.4863C468.85 37.4863 469.394 36.8755 469.733 35.923L475.399 20.2901C476.834 16.291 479.781 14.7168 484.753 14.7168C489.601 14.7168 494.381 16.8254 494.381 21.5807V51.156H480.996L481.679 31.7094C481.679 31.0295 481.336 30.895 481.201 30.895C480.927 30.895 480.653 31.2368 480.449 31.8439L474.731 48.0331Z" fill="white"/>
<path d="M524.088 15.124C528.524 15.124 531.463 16.6872 533.033 18.2542C536.037 21.1626 536.446 25.4599 536.446 28.3829V43.4741C536.446 45.3791 536.311 47.5532 534.672 49.2546C532.963 51.0252 530.576 51.1597 528.527 51.1597H507.228C504.972 51.1597 502.518 51.0252 500.605 49.2546C497.809 46.7425 497.685 41.9835 497.685 39.126C497.685 35.9994 497.958 32.1929 500.824 30.0189C502.803 28.5246 505.125 28.4556 507.243 28.4556H523.08V27.9102C523.119 27.0648 522.879 26.2299 522.398 25.5326C521.372 24.1729 519.667 24.1038 518.301 24.1038H500.138V15.124H524.088ZM513.573 37.021C513.164 37.021 512.208 37.09 511.595 37.6281C511.391 37.8591 511.237 38.1294 511.143 38.4221C511.049 38.7148 511.016 39.0237 511.047 39.3296C511.022 39.6139 511.058 39.9001 511.153 40.1696C511.247 40.439 511.398 40.6855 511.595 40.8928C512.119 41.2901 512.761 41.5047 513.42 41.5036H520.382C521.065 41.5036 521.952 41.3691 522.361 41.0274C522.974 40.5511 523.044 39.8712 523.044 39.2605V37.0173L513.573 37.021Z" fill="white"/>
<path d="M574.606 15.124V41.3691H580.341C580.622 41.3893 580.903 41.3446 581.163 41.2387C581.423 41.1327 581.656 40.9683 581.842 40.7583C582.185 40.2821 582.185 39.6022 582.185 39.0569V15.124H595.43V44.7684C595.43 46.6734 595.569 48.0404 593.995 49.5309C592.221 51.2978 590.173 51.1633 588.519 51.1633H547.432C545.384 51.1633 543.54 51.1633 541.955 49.5309C540.59 48.1022 540.521 46.5389 540.521 44.7684V15.124H553.766V39.0569C553.766 39.6022 553.766 40.2821 554.109 40.7583C554.295 40.9683 554.528 41.1327 554.788 41.2387C555.048 41.3446 555.329 41.3893 555.61 41.3691H561.345V15.124H574.606Z" fill="white"/>
<path d="M72.5655 43.2341L80.4697 40.0676L72.5655 36.901C70.9355 36.2476 69.4529 35.2768 68.2045 34.0456C66.956 32.8143 65.9669 31.3474 65.2951 29.7307C64.6232 28.1139 64.2821 26.3799 64.2918 24.6303C64.3014 22.8806 64.6616 21.1504 65.3513 19.5412L68.6918 11.7392L60.857 15.0658C59.2403 15.7513 57.5026 16.1089 55.7455 16.1175C53.9884 16.1261 52.2472 15.7856 50.6238 15.116C49.0005 14.4464 47.5276 13.461 46.2913 12.2176C45.055 10.9742 44.0802 9.49776 43.4239 7.87463L40.2367 0L37.0567 7.871C36.4004 9.49412 35.4256 10.9706 34.1894 12.214C32.9531 13.4574 31.4802 14.4427 29.8568 15.1124C28.2334 15.782 26.4922 16.1225 24.7351 16.1139C22.978 16.1052 21.2403 15.7477 19.6236 15.0621L11.7851 11.7356L15.1257 19.5375C15.8146 21.1471 16.174 22.8773 16.1829 24.6269C16.1917 26.3765 15.8499 28.1103 15.1773 29.7267C14.5048 31.343 13.5151 32.8095 12.2662 34.0402C11.0173 35.2709 9.53437 36.241 7.90422 36.8937L0 40.0676L7.90422 43.2341C9.53437 43.8869 11.0173 44.857 12.2662 46.0877C13.5151 47.3183 14.5048 48.7848 15.1773 50.4012C15.8499 52.0176 16.1917 53.7513 16.1829 55.5009C16.174 57.2505 15.8146 58.9808 15.1257 60.5903L11.7851 68.3923L19.6236 65.0766C21.2403 64.3911 22.978 64.0335 24.7351 64.0249C26.4922 64.0163 28.2334 64.3568 29.8568 65.0264C31.4802 65.696 32.9531 66.6814 34.1894 67.9248C35.4256 69.1682 36.4004 70.6446 37.0567 72.2678L40.2367 80.1388L43.4166 72.2678C44.0729 70.6451 45.0476 69.169 46.2836 67.9259C47.5196 66.6829 48.9922 65.6977 50.6151 65.0281C52.238 64.3585 53.9788 64.0179 55.7355 64.0262C57.4922 64.0346 59.2296 64.3916 60.846 65.0766L68.6809 68.4032L65.3513 60.5903C64.6627 58.9812 64.3033 57.2514 64.2942 55.5023C64.2851 53.7532 64.6264 52.0198 65.2982 50.4036C65.97 48.7875 66.9587 47.3209 68.2066 46.0899C69.4544 44.8588 70.9363 43.888 72.5655 43.2341ZM40.2367 58.558C36.5642 58.558 32.9741 57.4736 29.9205 55.4418C26.867 53.4101 24.487 50.5223 23.0816 47.1436C21.6762 43.7649 21.3085 40.0471 22.0249 36.4602C22.7414 32.8734 24.5099 29.5788 27.1067 26.9928C29.7036 24.4069 33.0122 22.6458 36.6141 21.9324C40.2161 21.2189 43.9496 21.5851 47.3425 22.9846C50.7355 24.3841 53.6355 26.7541 55.6758 29.7948C57.7162 32.8355 58.8052 36.4105 58.8052 40.0676C58.8042 44.9713 56.8476 49.6738 53.3655 53.1412C49.8835 56.6087 45.161 58.5571 40.2367 58.558Z" fill="#0EA2CF"/>
</svg>
