<svg width="179" height="58" viewBox="0 0 179 58" fill="none" xmlns="http://www.w3.org/2000/svg">
<path d="M20.6003 22.9581H26.4976V34.1704C24.9823 35.3032 23.2311 36.1721 21.2386 36.7769C19.246 37.3818 17.2395 37.6843 15.2219 37.6843C12.3246 37.6843 9.7215 37.0711 7.41254 35.8476C5.10358 34.6241 3.2886 32.9277 1.97316 30.7556C0.657721 28.5835 0 26.131 0 23.3925C0 20.6541 0.657721 18.2015 1.97316 16.0295C3.2886 13.8574 5.11468 12.161 7.4514 10.9374C9.78811 9.71393 12.419 9.1008 15.3413 9.1008C17.7862 9.1008 20.0036 9.51047 21.9962 10.3243C23.9888 11.1409 25.6622 12.3259 27.0165 13.8766L22.8731 17.6654C20.8806 15.5868 18.4772 14.5475 15.6604 14.5475C13.8815 14.5475 12.2997 14.9159 10.9176 15.6528C9.53557 16.3896 8.45879 17.4289 7.69006 18.7707C6.91856 20.1124 6.53558 21.6521 6.53558 23.3898C6.53558 25.1274 6.92133 26.6259 7.69006 27.9704C8.46157 29.3121 9.53002 30.3597 10.8982 31.1103C12.2664 31.8609 13.826 32.2348 15.5799 32.2348C17.4393 32.2348 19.1128 31.8389 20.6003 31.0498V22.9554V22.9581Z" fill="white"/>
<path d="M51.6214 31.289H38.6695L36.1996 37.2114H29.5863L42.0192 9.57646H48.3938L60.8656 37.2114H54.0913L51.6214 31.289ZM49.5872 26.4334L45.1635 15.8535L40.7398 26.4334H49.5872Z" fill="white"/>
<path d="M7.87323 49.7407H15.1331V52.0805H7.87323V57.7829H5.08138V42.8862H16.0573V45.2068H7.87323V49.7407Z" fill="white"/>
<path d="M33.5243 57.0075C32.2922 56.3476 31.3264 55.4321 30.6243 54.2635C29.9221 53.095 29.5725 51.7835 29.5725 50.3373C29.5725 48.8911 29.9221 47.5823 30.6243 46.4111C31.3264 45.2398 32.2922 44.327 33.5243 43.6671C34.7565 43.0072 36.1386 42.6773 37.6705 42.6773C39.2024 42.6773 40.5844 43.0072 41.8166 43.6671C43.0488 44.327 44.0146 45.237 44.7167 46.4028C45.4188 47.5658 45.7685 48.8773 45.7685 50.34C45.7685 51.8028 45.416 53.1143 44.7167 54.2773C44.0146 55.4403 43.0488 56.3531 41.8166 57.013C40.5844 57.6729 39.2024 58.0028 37.6705 58.0028C36.1386 58.0028 34.7565 57.6729 33.5243 57.013V57.0075ZM40.3763 54.9014C41.1783 54.456 41.8083 53.8319 42.2662 53.029C42.7241 52.2289 42.9544 51.3299 42.9544 50.3373C42.9544 49.3447 42.7241 48.4457 42.2662 47.6456C41.8083 46.8455 41.1783 46.2186 40.3763 45.7732C39.5743 45.3278 38.6723 45.1023 37.6705 45.1023C36.6686 45.1023 35.7667 45.325 34.9647 45.7732C34.1626 46.2186 33.5327 46.8455 33.0748 47.6456C32.6169 48.4484 32.3865 49.3447 32.3865 50.3373C32.3865 51.3299 32.6169 52.2289 33.0748 53.029C33.5327 53.8319 34.1626 54.456 34.9647 54.9014C35.7667 55.3496 36.6686 55.5723 37.6705 55.5723C38.6723 55.5723 39.5743 55.3496 40.3763 54.9014Z" fill="white"/>
<path d="M70.4622 57.7856L67.39 53.4222C67.2624 53.436 67.0681 53.4442 66.81 53.4442H63.416V57.7856H60.6241V42.889H66.81C68.1116 42.889 69.2466 43.1007 70.2152 43.5269C71.1837 43.953 71.9219 44.5634 72.4381 45.358C72.9543 46.1526 73.2124 47.0957 73.2124 48.1872C73.2124 49.2788 72.9376 50.2713 72.3854 51.0824C71.8331 51.8907 71.0422 52.4929 70.0126 52.8916L73.4705 57.7856H70.4622ZM69.4548 45.9959C68.8248 45.4845 67.9007 45.2288 66.6851 45.2288H63.4215V51.1649H66.6851C67.9007 51.1649 68.8248 50.9064 69.4548 50.3895C70.0847 49.8726 70.4011 49.1385 70.4011 48.1872C70.4011 47.2359 70.0847 46.5073 69.4548 45.9959Z" fill="white"/>
<path d="M99.6683 55.4651V57.7856H88.3927V42.889H99.3686V45.2095H91.1845V49.0835H98.4445V51.3601H91.1845V55.4678H99.6683V55.4651Z" fill="white"/>
<path d="M115.948 57.5079C114.865 57.1807 114.011 56.7491 113.381 56.2102L114.346 54.0601C114.962 54.5412 115.717 54.9372 116.614 55.2396C117.507 55.5448 118.406 55.696 119.308 55.696C120.424 55.696 121.259 55.52 121.812 55.1654C122.364 54.8107 122.639 54.3433 122.639 53.7604C122.639 53.3342 122.483 52.985 122.178 52.7073C121.87 52.4296 121.479 52.2152 121.007 52.0585C120.535 51.9017 119.888 51.7258 119.072 51.5278C117.926 51.2584 116.999 50.9889 116.292 50.7195C115.584 50.45 114.973 50.0266 114.466 49.4547C113.958 48.8801 113.702 48.102 113.702 47.1232C113.702 46.3011 113.927 45.5532 114.38 44.8769C114.829 44.2032 115.512 43.6671 116.419 43.2712C117.33 42.8752 118.442 42.6745 119.761 42.6745C120.677 42.6745 121.578 42.7873 122.467 43.0155C123.355 43.2437 124.121 43.5681 124.764 43.9943L123.885 46.1444C123.227 45.7622 122.539 45.4707 121.823 45.2728C121.107 45.0748 120.413 44.9758 119.739 44.9758C118.637 44.9758 117.815 45.1601 117.28 45.5285C116.744 45.8969 116.475 46.3863 116.475 46.9967C116.475 47.4229 116.628 47.7693 116.936 48.0387C117.244 48.3082 117.635 48.5199 118.107 48.6766C118.578 48.8333 119.225 49.0093 120.041 49.2073C121.157 49.463 122.075 49.7297 122.791 50.0046C123.507 50.2823 124.121 50.703 124.628 51.2721C125.136 51.8385 125.392 52.6056 125.392 53.5707C125.392 54.3928 125.167 55.1379 124.714 55.806C124.262 56.4741 123.579 57.0048 122.664 57.4007C121.748 57.7966 120.629 57.9973 119.314 57.9973C118.154 57.9973 117.033 57.8351 115.953 57.5079H115.948Z" fill="white"/>
<path d="M143.039 45.2288H138.055V42.889H150.812V45.2288H145.828V57.7829H143.036V45.2288H143.039Z" fill="white"/>
<path d="M174.574 54.3378H167.056L165.574 57.7856H162.696L169.462 42.889H172.212L179 57.7856H176.078L174.574 54.3378ZM173.652 52.1657L170.816 45.655L168.002 52.1657H173.652Z" fill="white"/>
<path d="M82.5731 37.2114L77.1948 29.5128H71.2587V37.2114H64.8036V9.57646H76.8784C79.3483 9.57646 81.4936 9.98613 83.3141 10.8C85.1346 11.6166 86.5361 12.7741 87.5185 14.2753C88.5009 15.7765 88.9921 17.5527 88.9921 19.6038C88.9921 21.6549 88.4954 23.4283 87.4991 24.913C86.5028 26.4004 85.0874 27.5387 83.2558 28.3278L89.5111 37.2114H82.5731ZM80.9385 16.0295C79.9284 15.2019 78.4547 14.7867 76.5149 14.7867H71.2559V24.4208H76.5149C78.4547 24.4208 79.9284 24.0002 80.9385 23.1588C81.9487 22.3175 82.4538 21.1325 82.4538 19.6065C82.4538 18.0806 81.9487 16.8625 80.9385 16.0322V16.0295Z" fill="white"/>
<path d="M146.175 32.0781V37.2114H124.578V9.57646H145.659V14.7097H130.995V20.7118H143.947V25.6856H130.995V32.0808H146.178L146.175 32.0781Z" fill="white"/>
<path d="M177.837 9.57646V37.2114H172.537L158.63 20.4341V37.2114H152.255V9.57646H157.595L171.463 26.3537V9.57646H177.837Z" fill="white"/>
<path d="M119.891 9.48023V22.0343C119.891 25.034 119.314 27.6872 118.157 29.9885C117.002 32.2926 115.373 34.0797 113.275 35.3582C111.177 36.634 108.732 37.2718 105.943 37.2718C103.154 37.2718 100.709 36.634 98.611 35.3582C96.5129 34.0825 94.8867 32.2926 93.7294 29.9885C92.5749 27.6844 91.9949 25.034 91.9949 22.0343V9.48023H119.891ZM97.2983 21.7181C97.2983 24.4813 98.0753 26.6864 99.6295 28.3306C101.184 29.9748 103.287 30.7968 105.946 30.7968C108.604 30.7968 110.708 29.9748 112.262 28.3306C113.816 26.6864 114.593 24.4813 114.593 21.7181V15.8755H97.2983V21.7181Z" fill="white"/>
<path d="M108.765 -0.00268555H103.737V19.92H108.765V-0.00268555Z" fill="white"/>
</svg>
