<svg width="394" height="140" viewBox="0 0 394 140" fill="none" xmlns="http://www.w3.org/2000/svg">
<path fill-rule="evenodd" clip-rule="evenodd" d="M390.978 73.7604C389.095 70.855 381.371 68.7486 381.025 68.3855C380.718 66.9328 380.718 65.4074 381.025 63.9184C380.756 61.7394 379.68 59.7783 377.951 58.2893C377.067 57.5266 360.235 50.1542 357.468 49.0283C355.124 48.0841 352.511 47.9752 350.128 48.7741C348.36 49.6821 346.708 50.8079 345.286 52.188C344.902 52.4422 343.749 51.7885 343.749 51.7885L335.602 48.5562C334.756 48.1931 335.832 47.0309 336.14 46.3409C336.37 45.9414 336.37 45.4329 336.14 45.0334C336.14 45.0334 323.919 39.5859 322.882 39.259C321.844 38.9321 320.96 40.5664 320.538 41.2201C320.115 41.8738 319.731 41.7286 319.731 41.7286L317.54 41.2201C315.311 41.0749 313.044 41.3291 310.892 41.9828C308.817 42.7455 306.934 43.9076 305.358 45.3966L295.251 58.0714L283.031 73.5062C283.031 73.5062 272.617 85.0551 272.501 91.1564C272.501 94.8244 274.231 98.3109 277.228 100.708L289.448 106.192C296.135 102.705 300.055 95.8776 299.555 88.6868C299.094 74.8136 284.261 71.6903 284.261 71.6903L288.68 66.2064C288.68 66.2064 307.011 70.2376 307.011 91.3017C306.78 98.5651 303.014 105.284 296.827 109.569L360.004 137.606C369.189 142.618 376.414 135.064 378.143 133.284C379.872 130.306 381.217 127.147 382.101 123.842C382.101 123.842 392.016 91.1564 393.591 85.6725C394.629 81.5323 393.668 77.1742 390.978 73.7604ZM315.849 113.891L314.889 114.799H309.508L308.74 114.036V65.5164L309.701 64.7537H314.85L315.811 65.6617V113.891H315.849ZM315.619 59.742C313.813 61.3036 311.084 61.3036 309.278 59.742C308.01 58.1077 308.394 55.8197 310.123 54.6212C311.43 53.7133 313.159 53.677 314.504 54.4759C316.234 55.2023 317.041 57.1271 316.272 58.7614C316.118 59.1246 315.888 59.4514 315.58 59.7056L315.619 59.742ZM359.159 114.327C345.286 119.375 329.684 112.838 324.342 99.7273C323.574 97.8751 323.074 95.914 322.767 93.9165C321.229 79.9344 328.877 65.589 344.364 64.1C362.694 62.3205 373.378 72.3077 375.222 84.8735C376.683 95.006 373.531 109.133 359.159 114.327Z" fill="#DE063A"/>
<path fill-rule="evenodd" clip-rule="evenodd" d="M289.294 106.192L296.903 109.606L289.294 106.228V106.192Z" fill="#DE063A"/>
<path fill-rule="evenodd" clip-rule="evenodd" d="M261.472 65.6617L262.279 64.899H280.149C280.149 64.899 284.875 65.3711 285.682 65.5527L288.757 66.3154L284.606 71.6903C283.185 71.3635 281.763 71.1456 280.341 71.0366H268.85V108.843H279.649C279.649 108.843 282.723 108.48 283.915 108.334C285.913 107.971 287.834 107.318 289.602 106.373L297.211 109.787C293.33 112.293 288.91 113.891 284.261 114.472C277.497 115.162 262.663 114.872 262.663 114.872L261.549 114.109L261.472 65.698V65.6617Z" fill="#DE063A"/>
<path fill-rule="evenodd" clip-rule="evenodd" d="M0 43.8712L1.42188 42.5275H11.7593L53.1859 99.9451V44.1254L54.6078 42.6001H62.3321L63.754 43.5807V114.763L62.3321 116.106H52.1868L10.568 58.4708V114.726L8.99242 115.888H1.26816L0 114.726V43.8712Z" fill="#0E1011"/>
<path fill-rule="evenodd" clip-rule="evenodd" d="M70.0951 43.8712L71.517 42.5275H79.0107L80.4326 43.8712V114.726L79.2029 115.888H71.7092L70.0951 114.545V43.8712Z" fill="#0E1011"/>
<path fill-rule="evenodd" clip-rule="evenodd" d="M86.5424 44.0892L87.9643 42.5639H95.458L96.8799 43.9076V72.7072L130.813 42.6002H142.188L142.995 44.7066L106.41 75.7942L145.185 113.964L144.148 115.888H132.581L97.0336 80.1523V114.508L95.8039 115.852H88.3102L86.6961 114.508L86.504 44.0529L86.5424 44.0892Z" fill="#0E1011"/>
<path fill-rule="evenodd" clip-rule="evenodd" d="M154.139 104.485C154.139 104.485 157.906 109.823 163.017 109.969C168.128 110.114 171.778 108.77 173.546 106.301C175.314 103.831 178.196 96.7492 168.281 93.6259C159.673 90.8658 153.87 89.74 150.719 84.2198C147.568 78.6995 149.72 69.5476 155.139 66.7148C160.557 63.8821 162.555 62.9741 172.009 64.1C174.199 64.7174 176.275 65.6616 178.119 67.0054V65.9522L179.08 65.0442H223.581L224.388 65.8069V96.9308C224.388 96.9308 224.388 110.259 237.915 110.005C250.558 109.787 250.135 96.7855 250.135 96.7855V65.8069L251.096 64.7537H256.707L257.668 65.6616V96.386C257.668 96.386 258.244 116.397 237.608 115.997C216.971 115.598 217.624 98.674 217.548 95.9866C217.471 93.2991 217.548 71.0366 217.548 71.0366H202.483V113.927L201.523 114.835H196.296L195.182 113.927V71.0003H181.347L177.351 73.9057H175.814C174.392 72.1987 172.547 70.855 170.433 69.9834C167.129 69.0755 159.596 69.0028 157.291 73.5062C155.216 76.4479 155.754 80.4064 158.559 82.7671C162.517 84.9098 166.744 86.5804 171.125 87.7425C174.545 88.7231 182.116 92.5364 182.462 99.2914C182.808 106.046 180.54 111.24 174.738 113.746C168.205 116.905 160.442 116.833 153.986 113.491C151.949 111.894 150.066 110.114 148.298 108.262C148.298 108.262 148.068 107.318 148.298 107.063L152.449 104.158L154.139 104.448V104.485Z" fill="#DE063A"/>
<path fill-rule="evenodd" clip-rule="evenodd" d="M304.243 17.9044C308.547 17.9044 312.044 21.173 312.083 25.2405C312.083 29.3081 308.624 32.6129 304.32 32.6493C300.016 32.6493 296.519 29.3807 296.481 25.3132C296.481 21.2456 299.939 17.9771 304.243 17.9408V17.9044Z" fill="#DE063A"/>
<path fill-rule="evenodd" clip-rule="evenodd" d="M321.69 11.5489C324.88 11.5489 327.455 13.9821 327.455 16.9965C327.455 20.0108 324.88 22.4441 321.69 22.4441C318.501 22.4441 315.926 20.0108 315.926 16.9965C315.926 13.9821 318.501 11.5489 321.69 11.5489Z" fill="#DE063A"/>
<path fill-rule="evenodd" clip-rule="evenodd" d="M292.792 12.7837C294.483 12.7837 295.866 14.0911 295.866 15.6891C295.866 17.287 294.483 18.5945 292.792 18.5945C291.101 18.5945 289.718 17.287 289.718 15.6891C289.718 14.0911 291.101 12.7837 292.792 12.7837Z" fill="#DE063A"/>
<path fill-rule="evenodd" clip-rule="evenodd" d="M300.016 0C301.707 0 303.091 1.30742 303.091 2.90538C303.091 4.50334 301.707 5.81076 300.016 5.81076C298.325 5.81076 296.942 4.50334 296.942 2.90538C296.942 1.30742 298.325 0 300.016 0Z" fill="#DE063A"/>
<path fill-rule="evenodd" clip-rule="evenodd" d="M310.2 8.02614C310.93 8.02614 311.545 8.60721 311.545 9.29724C311.545 9.98727 310.93 10.5683 310.2 10.5683C309.47 10.5683 308.855 9.98727 308.855 9.29724C308.855 8.60721 309.47 8.02614 310.2 8.02614Z" fill="#DE063A"/>
</svg>
