<svg width="322" height="120" viewBox="0 0 322 120" fill="none" xmlns="http://www.w3.org/2000/svg">
<path fill-rule="evenodd" clip-rule="evenodd" d="M319.519 63.5349C317.98 61.0323 311.668 59.2179 311.385 58.9051C311.134 57.6538 311.134 56.3399 311.385 55.0574C311.165 53.1804 310.286 51.4911 308.872 50.2085C308.15 49.5516 294.395 43.2013 292.133 42.2315C290.218 41.4181 288.082 41.3243 286.135 42.0125C284.69 42.7946 283.34 43.7643 282.178 44.9531C281.864 45.1721 280.922 44.609 280.922 44.609L274.264 41.8248C273.573 41.512 274.452 40.5109 274.703 39.9166C274.892 39.5725 274.892 39.1345 274.703 38.7904C274.703 38.7904 264.716 34.098 263.868 33.8165C263.021 33.5349 262.298 34.9427 261.953 35.5057C261.607 36.0688 261.293 35.9437 261.293 35.9437L259.503 35.5057C257.682 35.3806 255.829 35.5996 254.07 36.1627C252.374 36.8196 250.835 37.8206 249.548 39.1032L241.288 50.0209L231.301 63.316C231.301 63.316 222.79 73.2638 222.696 78.5193C222.696 81.6788 224.109 84.682 226.559 86.7466L236.546 91.4703C242.01 88.4671 245.214 82.586 244.805 76.3921C244.429 64.4421 232.306 61.7518 232.306 61.7518L235.918 57.0282C235.918 57.0282 250.898 60.5005 250.898 78.6444C250.71 84.9009 247.632 90.6882 242.576 94.3796L294.206 118.53C301.712 122.847 307.616 116.34 309.03 114.807C310.443 112.242 311.542 109.52 312.264 106.674C312.264 106.674 320.367 78.5193 321.655 73.7956C322.502 70.2294 321.717 66.4755 319.519 63.5349ZM258.121 98.1022L257.336 98.8842H252.939L252.311 98.2273V56.4338L253.096 55.7768H257.305L258.09 56.5589V98.1022H258.121ZM257.933 51.4599C256.457 52.805 254.227 52.805 252.751 51.4599C251.715 50.0521 252.029 48.0813 253.442 47.049C254.51 46.2669 255.923 46.2357 257.022 46.9239C258.435 47.5495 259.095 49.2075 258.467 50.6152C258.341 50.9281 258.153 51.2096 257.901 51.4286L257.933 51.4599ZM293.515 98.4776C282.178 102.826 269.427 97.195 265.062 85.902C264.434 84.3066 264.026 82.6173 263.774 80.8968C262.518 68.853 268.768 56.4963 281.424 55.2138C296.405 53.6809 305.135 62.2836 306.643 73.1074C307.836 81.8353 305.261 94.0042 293.515 98.4776Z" fill="#DE063A"/>
<path fill-rule="evenodd" clip-rule="evenodd" d="M236.42 91.4703L242.638 94.4109L236.42 91.5016V91.4703Z" fill="#DE063A"/>
<path fill-rule="evenodd" clip-rule="evenodd" d="M213.683 56.5589L214.342 55.902H228.946C228.946 55.902 232.809 56.3086 233.468 56.4651L235.98 57.122L232.589 61.7518C231.427 61.4703 230.265 61.2826 229.103 61.1887H219.712V93.7539H228.537C228.537 93.7539 231.05 93.4411 232.023 93.3159C233.656 93.0031 235.227 92.44 236.671 91.6267L242.89 94.5673C239.718 96.7257 236.106 98.1022 232.306 98.6027C226.779 99.1971 214.656 98.9468 214.656 98.9468L213.745 98.2899L213.683 56.5902V56.5589Z" fill="#DE063A"/>
<path fill-rule="evenodd" clip-rule="evenodd" d="M0 37.7894L1.162 36.6319H9.61007L43.4651 86.0897V38.0083L44.6271 36.6945H50.9396L52.1016 37.5391V98.853L50.9396 100.01H42.6486L8.6365 50.365V98.8217L7.34887 99.8227H1.03638L0 98.8217V37.7894Z" fill="white"/>
<path fill-rule="evenodd" clip-rule="evenodd" d="M57.2835 37.7894L58.4455 36.6319H64.5696L65.7316 37.7894V98.8217L64.7266 99.8227H58.6026L57.2835 98.6653V37.7894Z" fill="white"/>
<path fill-rule="evenodd" clip-rule="evenodd" d="M70.7251 37.9771L71.8871 36.6632H78.0111L79.1731 37.8206V62.6277L106.904 36.6945H116.2L116.86 38.5089L86.9617 65.2868L118.65 98.1648L117.802 99.8227H108.349L79.2987 69.0407V98.634L78.2938 99.7915H72.1697L70.8507 98.634L70.6936 37.9458L70.7251 37.9771Z" fill="white"/>
<path fill-rule="evenodd" clip-rule="evenodd" d="M125.967 90C125.967 90 129.045 94.5985 133.222 94.7237C137.399 94.8488 140.382 93.6913 141.827 91.5641C143.272 89.4369 145.627 83.3368 137.524 80.6465C130.49 78.269 125.747 77.2993 123.172 72.5443C120.597 67.7894 122.356 59.9062 126.784 57.4661C131.212 55.0261 132.845 54.244 140.571 55.2138C142.361 55.7456 144.057 56.5589 145.564 57.7164V56.8092L146.349 56.0271H182.717L183.376 56.684V83.4932C183.376 83.4932 183.376 94.9739 194.431 94.755C204.763 94.5673 204.418 83.3681 204.418 83.3681V56.684L205.203 55.7768H209.788L210.574 56.5589V83.024C210.574 83.024 211.045 100.261 194.18 99.9166C177.315 99.5725 177.849 84.9948 177.786 82.6799C177.723 80.365 177.786 61.1887 177.786 61.1887H165.475V98.1335L164.69 98.9155H160.419L159.508 98.1335V61.1574H148.202L144.936 63.6601H143.68C142.518 62.1898 141.01 61.0323 139.283 60.2815C136.582 59.4995 130.427 59.4369 128.542 63.3159C126.847 65.8498 127.286 69.2596 129.579 71.293C132.814 73.1387 136.268 74.5777 139.848 75.5787C142.644 76.4233 148.83 79.708 149.113 85.5266C149.396 91.3451 147.543 95.8186 142.801 97.9771C137.462 100.699 131.118 100.636 125.842 97.7581C124.177 96.3816 122.638 94.8488 121.194 93.2534C121.194 93.2534 121.005 92.44 121.194 92.2211L124.585 89.7185L125.967 89.9687V90Z" fill="#DE063A"/>
<path fill-rule="evenodd" clip-rule="evenodd" d="M248.637 15.4223C252.154 15.4223 255.012 18.2377 255.044 21.7414C255.044 25.245 252.217 28.0918 248.7 28.123C245.182 28.123 242.324 25.3076 242.293 21.804C242.293 18.3003 245.119 15.4849 248.637 15.4536V15.4223Z" fill="#DE063A"/>
<path fill-rule="evenodd" clip-rule="evenodd" d="M262.895 9.94786C265.502 9.94786 267.606 12.0438 267.606 14.6402C267.606 17.2367 265.502 19.3326 262.895 19.3326C260.288 19.3326 258.184 17.2367 258.184 14.6402C258.184 12.0438 260.288 9.94786 262.895 9.94786Z" fill="#DE063A"/>
<path fill-rule="evenodd" clip-rule="evenodd" d="M239.278 11.0115C240.66 11.0115 241.791 12.1376 241.791 13.5141C241.791 14.8905 240.66 16.0167 239.278 16.0167C237.896 16.0167 236.766 14.8905 236.766 13.5141C236.766 12.1376 237.896 11.0115 239.278 11.0115Z" fill="#DE063A"/>
<path fill-rule="evenodd" clip-rule="evenodd" d="M245.182 0C246.564 0 247.695 1.12617 247.695 2.50261C247.695 3.87904 246.564 5.00521 245.182 5.00521C243.8 5.00521 242.67 3.87904 242.67 2.50261C242.67 1.12617 243.8 0 245.182 0Z" fill="#DE063A"/>
<path fill-rule="evenodd" clip-rule="evenodd" d="M253.505 6.91345C254.101 6.91345 254.604 7.41397 254.604 8.00834C254.604 8.60271 254.101 9.10323 253.505 9.10323C252.908 9.10323 252.406 8.60271 252.406 8.00834C252.406 7.41397 252.908 6.91345 253.505 6.91345Z" fill="#DE063A"/>
</svg>
