<svg width="216" height="48" viewBox="0 0 216 48" fill="none" xmlns="http://www.w3.org/2000/svg">
<path d="M128.92 34.18H149.25V27.7H137V20.42H147.83V14.18H137V7.47003H149.25V0.990029H128.92V34.18ZM182.2 0.990029H172.7L161.64 15.55V0.990029H153.56V34.18H161.64V19.52L172.8 34.18H182.68L169.35 17.25L182.2 0.990029ZM17.27 17.29C15.97 16.72 14.24 16.13 12.1 15.54C10.33 15.04 8.96 14.6 7.98 14.21C7 13.82 6.18 13.26 5.51 12.51C4.84 11.77 4.51 10.8 4.51 9.62003C4.51 7.98003 5.07 6.69003 6.19 5.78003C7.31 4.86003 8.75 4.41003 10.52 4.41003C12.41 4.41003 13.93 4.88003 15.08 5.83003C16.23 6.78003 16.88 7.87003 17.04 9.11003H21.7C21.45 6.60003 20.36 4.58003 18.42 3.06003C16.48 1.54003 13.99 0.780029 10.95 0.780029C8.84 0.780029 6.97 1.15003 5.34 1.90003C3.71 2.64003 2.45 3.70003 1.55 5.07003C0.64 6.43003 0.19 8.00003 0.19 9.77003C0.19 11.79 0.65 13.39 1.56 14.59C2.48 15.79 3.58 16.66 4.87 17.22C6.16 17.78 7.87 18.34 10.01 18.9C11.75 19.37 13.13 19.8 14.15 20.2C15.17 20.6 16.03 21.19 16.71 21.97C17.39 22.75 17.73 23.76 17.73 25C17.73 26.58 17.15 27.88 15.98 28.89C14.82 29.9 13.22 30.4 11.21 30.4C9.2 30.4 7.49 29.88 6.39 28.84C5.29 27.8 4.66 26.52 4.5 25H0C0.03 26.77 0.53 28.33 1.49 29.68C2.45 31.03 3.78 32.09 5.47 32.85C7.16 33.61 9.08 33.99 11.22 33.99C13.36 33.99 15.39 33.56 17.04 32.69C18.68 31.82 19.93 30.69 20.76 29.29C21.6 27.89 22.02 26.4 22.02 24.82C22.02 22.77 21.55 21.15 20.62 19.95C19.69 18.76 18.57 17.87 17.27 17.3V17.29ZM25.33 4.64003H34.22V33.65H38.46V4.64003H47.31V1.20003H25.33V4.65003V4.64003ZM48.89 1.20003L59.51 21.41V33.66H63.75V21.41L53.59 1.20003H48.89ZM82.08 1.20003H77.84V33.65H93.44V30.2H82.08V1.20003ZM97.03 33.65H114.49V30.16H101.27V18.99H113.1V15.5H101.27V4.64003H114.49V1.15003H97.03V33.65ZM1.51 42.16H0.45V47.16H3.54V46.28H1.51V42.16ZM14.51 42.13L12.75 47.15H13.89L14.25 45.96H16.07L16.43 47.15H17.57L15.8 42.13H14.5H14.51ZM14.51 45.08C14.87 43.93 15.08 43.21 15.16 42.92C15.18 43 15.21 43.11 15.25 43.26C15.29 43.4 15.48 44.01 15.82 45.09H14.52L14.51 45.08ZM30.65 44.52C30.65 44.79 30.67 45.25 30.7 45.9H30.68L28.51 42.16H27.17V47.16H28.12V44.81C28.12 44.52 28.1 44.05 28.05 43.38H28.08L30.25 47.16H31.6V42.16H30.65V44.53V44.52ZM43.4 42.16H41.83V47.16H43.25C44.13 47.16 44.81 46.94 45.28 46.5C45.75 46.06 45.98 45.43 45.98 44.61C45.98 43.84 45.75 43.24 45.3 42.8C44.85 42.37 44.21 42.15 43.4 42.15V42.16ZM43.34 46.28H42.89V43.02H43.45C44.4 43.02 44.87 43.56 44.87 44.63C44.87 45.7 44.36 46.27 43.34 46.27V46.28ZM57.7 44.27C57.35 44.1 57.12 43.98 57.03 43.92C56.94 43.86 56.87 43.79 56.82 43.72C56.78 43.65 56.75 43.57 56.75 43.48C56.75 43.33 56.8 43.21 56.91 43.11C57.02 43.02 57.17 42.97 57.37 42.97C57.54 42.97 57.71 42.99 57.88 43.04C58.05 43.08 58.27 43.16 58.54 43.27L58.88 42.45C58.62 42.34 58.38 42.25 58.14 42.19C57.9 42.13 57.66 42.1 57.4 42.1C56.87 42.1 56.46 42.23 56.16 42.48C55.86 42.73 55.71 43.08 55.71 43.52C55.71 43.75 55.76 43.96 55.85 44.14C55.94 44.32 56.06 44.47 56.22 44.6C56.37 44.73 56.6 44.87 56.91 45.01C57.24 45.16 57.45 45.28 57.56 45.35C57.67 45.42 57.75 45.49 57.8 45.57C57.85 45.65 57.88 45.73 57.88 45.83C57.88 46.01 57.82 46.14 57.69 46.23C57.57 46.32 57.39 46.36 57.15 46.36C56.96 46.36 56.74 46.33 56.51 46.27C56.28 46.21 55.99 46.1 55.65 45.95V46.93C56.06 47.13 56.53 47.23 57.07 47.23C57.65 47.23 58.1 47.1 58.43 46.84C58.75 46.58 58.92 46.22 58.92 45.77C58.92 45.44 58.83 45.17 58.66 44.94C58.49 44.72 58.17 44.49 57.7 44.27ZM70.92 42.97C71.1 42.97 71.29 43 71.48 43.07C71.67 43.14 71.86 43.21 72.04 43.3L72.38 42.44C71.89 42.21 71.4 42.09 70.92 42.09C70.44 42.09 70.03 42.19 69.67 42.4C69.32 42.61 69.04 42.91 68.85 43.3C68.66 43.69 68.57 44.15 68.57 44.67C68.57 45.5 68.76 46.13 69.15 46.57C69.54 47.01 70.09 47.23 70.82 47.23C71.33 47.23 71.78 47.14 72.19 46.97V46.08C71.69 46.26 71.27 46.34 70.91 46.34C70.07 46.34 69.65 45.78 69.65 44.67C69.65 44.13 69.76 43.72 69.98 43.42C70.2 43.12 70.51 42.97 70.91 42.97H70.92ZM83.36 42.13L81.6 47.15H82.74L83.1 45.96H84.92L85.28 47.15H86.42L84.65 42.13H83.35H83.36ZM83.36 45.08C83.72 43.93 83.93 43.21 84.01 42.92C84.03 43 84.06 43.11 84.1 43.26C84.14 43.4 84.33 44.01 84.67 45.09H83.37L83.36 45.08ZM97.62 42.16H96.02V47.16H97.08V45.38H97.53C98.15 45.38 98.63 45.24 98.96 44.95C99.3 44.67 99.46 44.25 99.46 43.72C99.46 43.19 99.3 42.81 98.99 42.55C98.67 42.29 98.21 42.16 97.61 42.16H97.62ZM98.16 44.31C98 44.44 97.75 44.5 97.43 44.5H97.08V43.02H97.56C97.85 43.02 98.06 43.08 98.2 43.2C98.34 43.32 98.4 43.5 98.4 43.75C98.4 44 98.32 44.18 98.16 44.31ZM109.38 47.15H112.26V46.27H110.44V44.98H112.13V44.11H110.44V43.01H112.26V42.14H109.38V47.15ZM130.96 44.27C130.61 44.1 130.38 43.98 130.29 43.92C130.2 43.86 130.13 43.79 130.08 43.72C130.04 43.65 130.01 43.57 130.01 43.48C130.01 43.33 130.06 43.21 130.17 43.11C130.28 43.02 130.43 42.97 130.63 42.97C130.8 42.97 130.97 42.99 131.14 43.04C131.31 43.08 131.54 43.16 131.8 43.27L132.14 42.45C131.88 42.34 131.64 42.25 131.4 42.19C131.16 42.13 130.92 42.1 130.66 42.1C130.13 42.1 129.72 42.23 129.42 42.48C129.12 42.73 128.97 43.08 128.97 43.52C128.97 43.75 129.02 43.96 129.11 44.14C129.2 44.32 129.32 44.47 129.48 44.6C129.63 44.73 129.86 44.87 130.17 45.01C130.5 45.16 130.71 45.28 130.82 45.35C130.93 45.42 131.01 45.49 131.06 45.57C131.11 45.65 131.14 45.73 131.14 45.83C131.14 46.01 131.08 46.14 130.95 46.23C130.83 46.32 130.65 46.36 130.41 46.36C130.22 46.36 130 46.33 129.77 46.27C129.54 46.21 129.25 46.1 128.91 45.95V46.93C129.32 47.13 129.79 47.23 130.33 47.23C130.91 47.23 131.36 47.1 131.69 46.84C132.01 46.58 132.18 46.22 132.18 45.77C132.18 45.44 132.09 45.17 131.92 44.94C131.75 44.72 131.43 44.49 130.96 44.27ZM141.56 43.04H142.92V47.16H143.98V43.04H145.34V42.16H141.56V43.04ZM158.08 45.21C158.08 45.6 158 45.88 157.85 46.06C157.69 46.24 157.44 46.33 157.1 46.33C156.76 46.33 156.49 46.24 156.33 46.06C156.17 45.88 156.1 45.6 156.1 45.21V42.15H155.04V45.37C155.04 45.94 155.22 46.39 155.57 46.72C155.93 47.05 156.42 47.21 157.07 47.21C157.5 47.21 157.87 47.14 158.18 46.99C158.49 46.84 158.73 46.63 158.9 46.35C159.07 46.07 159.15 45.75 159.15 45.38V42.15H158.09V45.2L158.08 45.21ZM170.89 42.16H169.32V47.16H170.74C171.62 47.16 172.3 46.94 172.77 46.5C173.24 46.06 173.47 45.43 173.47 44.61C173.47 43.84 173.24 43.24 172.79 42.8C172.34 42.37 171.7 42.15 170.89 42.15V42.16ZM170.84 46.28H170.39V43.02H170.95C171.9 43.02 172.37 43.56 172.37 44.63C172.37 45.7 171.86 46.27 170.84 46.27V46.28ZM183.47 47.15H184.53V42.15H183.47V47.15ZM198.68 42.74C198.27 42.3 197.69 42.08 196.92 42.08C196.15 42.08 195.56 42.3 195.15 42.74C194.74 43.18 194.53 43.81 194.53 44.65C194.53 45.49 194.74 46.12 195.15 46.56C195.56 47 196.15 47.23 196.91 47.23C197.67 47.23 198.26 47.01 198.67 46.56C199.08 46.12 199.29 45.48 199.29 44.65C199.29 43.82 199.09 43.18 198.68 42.74ZM196.91 46.33C196.49 46.33 196.17 46.19 195.96 45.91C195.75 45.63 195.64 45.21 195.64 44.65C195.64 44.09 195.75 43.67 195.96 43.39C196.17 43.11 196.49 42.96 196.91 42.96C197.75 42.96 198.17 43.52 198.17 44.65C198.17 45.78 197.75 46.34 196.9 46.34L196.91 46.33Z" fill="white"/>
<path d="M197.66 26.5L189.58 18.23C189.68 17.29 189.83 16.28 190.03 15.24L197.66 23.05V26.5Z" fill="white"/>
<path d="M197.66 5.63003L195.16 3.07003C195.92 2.19003 196.75 1.48003 197.66 0.990029V5.63003Z" fill="white"/>
<path d="M194.56 3.83003L197.66 7.00003V10.97L193.05 6.25003C193.51 5.38003 194.01 4.56003 194.56 3.83003Z" fill="white"/>
<path d="M192.6 7.15003L197.66 12.33V16.21L191.48 9.88003C191.81 8.94003 192.18 8.02003 192.6 7.15003Z" fill="white"/>
<path d="M191.14 10.9L197.66 17.58V21.67L190.27 14.1C190.51 13.04 190.8 11.96 191.14 10.9Z" fill="white"/>
<path d="M189.48 19.49L197.66 27.87V27.9C194.69 27.72 189.44 25.86 189.44 20.71C189.44 20.33 189.45 19.92 189.48 19.49Z" fill="white"/>
<path d="M180.92 17.75C180.92 9.26003 187.41 2.22003 195.81 1.11003C190.71 5.28003 188.47 15.61 188.47 20.72C188.47 26.58 194.37 28.66 197.66 28.85V34.55C188.39 34.3 180.92 26.87 180.92 17.76V17.75Z" fill="white"/>
<path d="M198.63 34.54V28.84C201.92 28.65 207.82 26.57 207.82 20.71C207.82 15.61 205.58 5.28003 200.48 1.10003C208.88 2.22003 215.37 9.25003 215.37 17.74C215.37 26.85 207.9 34.28 198.63 34.53V34.54Z" fill="white"/>
</svg>
