<svg width="256" height="72" viewBox="0 0 256 72" fill="none" xmlns="http://www.w3.org/2000/svg">
<path d="M44.4292 0.0777644C44.6167 0.0575747 44.8503 -0.086637 45.0089 0.0777644C53.2684 6.66247 61.5249 13.2529 69.7844 19.8348C69.7786 30.4661 69.7988 41.0945 69.7757 51.7258C66.9149 53.9668 64.0887 56.2569 61.2394 58.5153C55.8927 62.7839 50.5402 67.0439 45.1963 71.3155C45.0608 71.4049 44.9368 71.5866 44.7522 71.5318C34.4452 69.184 24.1382 66.8247 13.8311 64.477C9.21115 54.9128 4.61423 45.3372 0 35.7702C4.57962 26.2637 9.15635 16.7544 13.7331 7.24797C13.7648 7.14414 13.8283 7.07492 13.9234 7.04608C24.092 4.7185 34.2635 2.40534 44.4292 0.0777644ZM19.2846 8.93525C24.6342 11.6782 29.978 14.4326 35.3363 17.1611C37.4762 12.7049 39.6247 8.25457 41.7645 3.80131C34.2722 5.5232 26.7769 7.22778 19.2846 8.93525ZM38.0443 18.5513C46.5373 22.9238 55.042 27.2703 63.5379 31.6371C57.2712 22.6383 51.0074 13.6394 44.7493 4.63486C42.5028 9.26982 40.2764 13.9106 38.0443 18.5513ZM51.7514 9.35346C52.3167 10.2072 52.9194 11.0379 53.4991 11.8829C57.9201 18.2283 62.3295 24.5851 66.7563 30.9275C66.7563 27.7232 66.7563 24.5188 66.7563 21.3173C61.7585 17.3284 56.7579 13.3366 51.7543 9.35346M4.1182 34.2415C11.2904 34.2415 18.4627 34.2415 25.6349 34.2415C22.0502 26.7887 18.4598 19.3416 14.8751 11.8916C11.2876 19.3416 7.69422 26.7887 4.1182 34.2415ZM18.2147 11.8022C21.4879 18.6234 24.7755 25.4388 28.0603 32.2543C30.0501 28.1385 32.04 24.0256 34.0068 19.8982C28.7351 17.213 23.4749 14.5076 18.2147 11.8022ZM36.7148 21.2942C34.6471 25.6148 32.5591 29.9267 30.4856 34.2415C40.9801 34.2444 51.4717 34.2386 61.9633 34.2444C53.5452 29.9325 45.1271 25.6177 36.7148 21.2942ZM4.1182 37.2959C7.69999 44.7488 11.2904 52.1959 14.878 59.6488C18.4598 52.1959 22.0531 44.7488 25.6349 37.2988C18.4627 37.2988 11.2875 37.2988 4.11531 37.2988M30.4856 37.2959C32.562 41.6107 34.6471 45.9256 36.7177 50.2433C45.1271 45.9198 53.5423 41.6079 61.9575 37.2959C51.4659 37.2959 40.9772 37.2959 30.4856 37.2959ZM28.0574 39.2832C24.7755 46.1015 21.4879 52.9141 18.2147 59.7324C23.4778 57.0299 28.738 54.3245 34.0068 51.6363C32.0314 47.5148 30.0501 43.3961 28.0574 39.2832ZM58.9121 42.2741C51.9591 45.8506 44.9945 49.4011 38.0443 52.9862C40.2822 57.6211 42.4884 62.2734 44.758 66.8911C51.0074 57.8951 57.2654 48.905 63.5264 39.9177C61.9777 40.6849 60.455 41.4954 58.9121 42.2712M51.7428 62.1869C56.7521 58.2066 61.7499 54.212 66.7505 50.2202C66.7563 47.0158 66.7505 43.8085 66.7563 40.6042C61.747 47.7945 56.7377 54.985 51.7428 62.184M19.2961 62.5993C26.7827 64.3154 34.2722 66.0172 41.7587 67.7304C39.6247 63.2742 37.4704 58.8268 35.3334 54.3735C29.9838 57.1106 24.64 59.8507 19.2961 62.5993Z" fill="white"/>
<path d="M78.0844 21.3684V19.2341H92.8788V21.3684H78.0844ZM86.5977 20.757V36.8741H84.3598V20.757H86.5977Z" fill="white"/>
<path d="M98.3407 35.072L98.009 34.7403H107.235V36.8747H96.1028V19.2318H107.235V21.3661H98.009L98.3407 21.0344V35.072ZM97.934 26.8606H106.779V28.9719H97.934V26.8606Z" fill="white"/>
<path d="M112.423 19.2341L117.455 26.6062H116.896L121.879 19.2341H124.625L118.473 28.181L118.447 27.6214L124.8 36.8741H122.003L116.87 29.2222H117.377L112.244 36.8741H109.499L115.852 27.6214L115.878 28.2069L109.674 19.2341H112.423Z" fill="white"/>
<path d="M130.012 36.8747H127.774V19.2318H130.012V36.8747ZM140.076 28.969H129.605V26.8346H140.076V28.969ZM139.67 19.2347H141.908V36.8776H139.67V19.2347Z" fill="white"/>
<path d="M154.49 37.1053C152.846 37.1053 151.353 36.7073 150.003 35.9112C148.656 35.1152 147.598 34.0307 146.825 32.6578C146.055 31.2849 145.668 29.7505 145.668 28.0575C145.668 26.3644 146.055 24.83 146.825 23.4571C147.595 22.0842 148.656 20.9997 150.003 20.2037C151.35 19.4076 152.846 19.0096 154.49 19.0096C156.134 19.0096 157.625 19.4076 158.963 20.2037C160.301 20.9997 161.357 22.0842 162.127 23.4571C162.897 24.83 163.283 26.3644 163.283 28.0575C163.283 29.7505 162.897 31.2849 162.127 32.6578C161.357 34.0307 160.301 35.1152 158.963 35.9112C157.625 36.7073 156.134 37.1053 154.49 37.1053ZM154.49 34.8931C155.71 34.8931 156.815 34.596 157.807 34.0047C158.799 33.4106 159.574 32.5944 160.131 31.5503C160.691 30.5091 160.97 29.3438 160.97 28.0546C160.97 26.7653 160.691 25.6001 160.131 24.5589C159.572 23.5177 158.796 22.6985 157.807 22.1044C156.815 21.5102 155.71 21.216 154.49 21.216C153.27 21.216 152.166 21.5131 151.174 22.1044C150.182 22.6985 149.403 23.5148 148.835 24.5589C148.267 25.6001 147.984 26.7653 147.984 28.0546C147.984 29.3438 148.267 30.5091 148.835 31.5503C149.403 32.5915 150.182 33.4106 151.174 34.0047C152.166 34.5989 153.27 34.8931 154.49 34.8931Z" fill="white"/>
<path d="M181.126 19.2341V36.877H178.888V21.0656L179.219 21.3713H168.95L169.282 21.0656V36.877H167.044V19.2341H181.126Z" fill="white"/>
<path d="M193.708 37.1053C192.064 37.1053 190.571 36.7073 189.221 35.9112C187.874 35.1152 186.816 34.0307 186.043 32.6578C185.273 31.2849 184.886 29.7505 184.886 28.0575C184.886 26.3644 185.273 24.83 186.043 23.4571C186.813 22.0842 187.874 20.9997 189.221 20.2037C190.568 19.4076 192.064 19.0096 193.708 19.0096C195.352 19.0096 196.843 19.4076 198.181 20.2037C199.519 20.9997 200.575 22.0842 201.345 23.4571C202.115 24.83 202.501 26.3644 202.501 28.0575C202.501 29.7505 202.115 31.2849 201.345 32.6578C200.575 34.0307 199.519 35.1152 198.181 35.9112C196.843 36.7073 195.352 37.1053 193.708 37.1053ZM193.708 34.8931C194.928 34.8931 196.033 34.596 197.025 34.0047C198.017 33.4106 198.793 32.5944 199.349 31.5503C199.909 30.5091 200.188 29.3438 200.188 28.0546C200.188 26.7653 199.909 25.6001 199.349 24.5589C198.79 23.5177 198.014 22.6985 197.025 22.1044C196.033 21.5102 194.928 21.216 193.708 21.216C192.488 21.216 191.384 21.5131 190.392 22.1044C189.4 22.6985 188.621 23.5148 188.053 24.5589C187.485 25.6001 187.202 26.7653 187.202 28.0546C187.202 29.3438 187.485 30.5091 188.053 31.5503C188.621 32.5915 189.4 33.4106 190.392 34.0047C191.384 34.5989 192.488 34.8931 193.708 34.8931Z" fill="white"/>
<path d="M203.799 34.8926C204.56 34.8926 205.172 34.6474 205.63 34.1542C206.089 33.6639 206.432 32.9775 206.66 32.0949C206.888 31.2152 207.069 30.0961 207.205 28.7405L208.145 19.2341H218.922V36.877H216.684V20.3791L217.676 21.3713H209.085L210.178 20.3791L209.29 29.251C209.12 31.0133 208.875 32.4468 208.552 33.5485C208.229 34.6503 207.715 35.5156 207.015 36.1415C206.311 36.7674 205.342 37.0817 204.105 37.0817L203.799 34.8955V34.8926Z" fill="white"/>
<path d="M225.838 19.2341V33.7995H225.457L235.675 19.2341H237.861V36.877H235.623V22.3116H236.003L225.786 36.877H223.6V19.2341H225.838Z" fill="white"/>
<path d="M254.685 22.8417C254.091 22.3167 253.448 21.9129 252.753 21.6332C252.058 21.3534 251.279 21.2149 250.414 21.2149C249.229 21.2149 248.139 21.5062 247.147 22.0917C246.154 22.6772 245.37 23.4848 244.796 24.5203C244.219 25.5528 243.931 26.7325 243.931 28.0535C243.931 29.3744 244.228 30.6031 244.819 31.6386C245.413 32.6711 246.229 33.4729 247.273 34.0411C248.315 34.6093 249.497 34.892 250.818 34.892C251.596 34.892 252.297 34.791 252.914 34.5863C253.531 34.3815 254.154 34.0613 254.783 33.62L255.951 35.3477C255.374 35.9072 254.639 36.3399 253.739 36.6427C252.839 36.9484 251.859 37.1013 250.792 37.1013C249.012 37.1013 247.432 36.7379 246.051 36.0082C244.669 35.2785 243.585 34.2286 242.798 32.8557C242.01 31.4828 241.615 29.8821 241.615 28.0506C241.615 26.3229 242.019 24.7712 242.824 23.3983C243.628 22.0254 244.704 20.9496 246.051 20.1709C247.397 19.3921 248.842 19.0027 250.385 19.0027C251.689 19.0027 252.808 19.2017 253.739 19.5998C254.671 19.9978 255.426 20.4939 256 21.088L254.679 22.8417H254.685Z" fill="white"/>
<path d="M79.6845 56.2725V42.4657H82.231L87.0644 54.2247H86.5857L91.3989 42.4657H93.9252V56.2725H92.1747V44.476H92.3131L87.4999 56.2725H86.107L81.2736 44.476H81.4322V56.2725H79.6817H79.6845Z" fill="white"/>
<path d="M103.774 56.4509C102.487 56.4509 101.317 56.1394 100.264 55.5164C99.2085 54.8934 98.3808 54.0455 97.778 52.9697C97.1753 51.8938 96.8725 50.694 96.8725 49.3701C96.8725 48.0463 97.1753 46.8435 97.778 45.7706C98.3808 44.6948 99.2113 43.8468 100.264 43.2238C101.319 42.6008 102.487 42.2893 103.774 42.2893C105.06 42.2893 106.228 42.6008 107.275 43.2238C108.322 43.8468 109.146 44.6948 109.752 45.7706C110.355 46.8435 110.657 48.0463 110.657 49.3701C110.657 50.694 110.355 51.8967 109.752 52.9697C109.149 54.0426 108.322 54.8934 107.275 55.5164C106.228 56.1394 105.06 56.4509 103.774 56.4509ZM103.774 54.7204C104.728 54.7204 105.593 54.4897 106.369 54.0253C107.145 53.5609 107.751 52.9206 108.189 52.1044C108.627 51.2882 108.846 50.3767 108.846 49.3701C108.846 48.3635 108.627 47.4492 108.189 46.6359C107.751 45.8196 107.145 45.1793 106.369 44.715C105.593 44.2506 104.728 44.0199 103.774 44.0199C102.819 44.0199 101.954 44.2535 101.178 44.715C100.402 45.1793 99.791 45.8196 99.3469 46.6359C98.9027 47.4521 98.6807 48.3635 98.6807 49.3701C98.6807 50.3767 98.9027 51.291 99.3469 52.1044C99.791 52.9206 100.402 53.5609 101.178 54.0253C101.954 54.4897 102.819 54.7204 103.774 54.7204Z" fill="white"/>
<path d="M123.107 45.2918C122.643 44.8823 122.138 44.565 121.596 44.3458C121.051 44.1266 120.443 44.017 119.765 44.017C118.836 44.017 117.986 44.2448 117.21 44.7034C116.434 45.162 115.82 45.7937 115.37 46.6041C114.92 47.4146 114.692 48.3347 114.692 49.3701C114.692 50.4056 114.923 51.366 115.387 52.1765C115.851 52.987 116.492 53.6128 117.308 54.057C118.124 54.5012 119.05 54.7233 120.082 54.7233C120.691 54.7233 121.239 54.6425 121.723 54.4839C122.208 54.3252 122.695 54.0743 123.185 53.7282L124.099 55.0809C123.65 55.5193 123.073 55.8568 122.369 56.0962C121.665 56.3356 120.898 56.4538 120.062 56.4538C118.669 56.4538 117.432 56.1683 116.353 55.5972C115.272 55.0261 114.424 54.2041 113.807 53.1312C113.19 52.0582 112.881 50.8036 112.881 49.3701C112.881 48.0174 113.195 46.8032 113.827 45.7302C114.456 44.6573 115.298 43.8151 116.353 43.2036C117.409 42.5951 118.539 42.2893 119.745 42.2893C120.766 42.2893 121.642 42.4451 122.369 42.7566C123.099 43.0681 123.69 43.4574 124.14 43.9218L123.104 45.2947L123.107 45.2918Z" fill="white"/>
<path d="M128.518 56.2725H126.767V42.4657H128.518V56.2725ZM134.666 42.4657H136.993L129.873 49.5869L129.893 48.4534L137.155 56.2725H134.767L128.024 49.111L134.669 42.4657H134.666Z" fill="white"/>
<path d="M146.721 49.1312C147.185 49.2494 147.612 49.4427 148.004 49.708C148.396 49.9734 148.713 50.3281 148.959 50.7723C149.204 51.2165 149.328 51.7443 149.328 52.3529C149.328 53.2153 149.126 53.9392 148.722 54.5218C148.318 55.1044 147.753 55.5428 147.032 55.8341C146.308 56.1255 145.463 56.2725 144.497 56.2725H139.384V42.4657H144.538C145.4 42.4657 146.155 42.6128 146.804 42.9041C147.453 43.1954 147.955 43.6108 148.307 44.1472C148.659 44.6837 148.835 45.3125 148.835 46.0277C148.835 46.8498 148.641 47.5131 148.258 48.0179C147.874 48.5226 147.364 48.8918 146.726 49.1312H146.721ZM147.018 46.2469C147.018 45.5692 146.787 45.05 146.323 44.6866C145.858 44.3232 145.201 44.1386 144.353 44.1386H141.132V48.4361H144.353C145.201 48.4361 145.858 48.2428 146.323 47.8592C146.787 47.4756 147.018 46.9363 147.018 46.2469ZM144.454 54.6026C145.382 54.6026 146.124 54.4122 146.683 54.0344C147.24 53.6566 147.519 53.0884 147.519 52.3327C147.519 51.577 147.24 51.0117 146.683 50.6425C146.127 50.2705 145.382 50.0859 144.454 50.0859H141.132V54.6026H144.454Z" fill="white"/>
<path d="M150.738 56.2725L156.108 42.4657H157.858L163.211 56.2725H161.302L156.846 44.5741H157.085L152.63 56.2725H150.738ZM153.504 52.5923V50.9223H160.506V52.5923H153.504Z" fill="white"/>
<path d="M178.447 49.1215C178.954 49.1215 179.344 49.0004 179.606 48.761C179.871 48.5216 180.004 48.2015 180.004 47.8005C180.004 47.3996 179.871 47.0853 179.606 46.8516C179.341 46.618 178.954 46.4998 178.447 46.4998H176.826L176.959 46.3671V52.7932H176.05V45.6345H178.504C179 45.6345 179.43 45.7181 179.794 45.8883C180.157 46.0556 180.44 46.3036 180.639 46.6267C180.838 46.9497 180.938 47.3419 180.938 47.8034C180.938 48.2649 180.838 48.66 180.633 48.9888C180.428 49.3177 180.145 49.5686 179.776 49.7359C179.407 49.9032 178.983 49.9897 178.502 49.9897H176.789V49.1244H178.438L178.447 49.1215Z" fill="white"/>
<path d="M184.687 51.5241L181.561 45.6345H182.562L185.204 50.5867L184.687 51.5241ZM183.635 52.7932L184.563 50.6877L184.656 50.555L186.873 45.6345H187.863L184.612 52.7932H183.632H183.635Z" fill="white"/>
<path d="M194.868 51.9279V54.1978H194.002V52.6605L194.138 52.7932H188.609L188.742 52.6605V54.1978H187.877V51.9279H194.87H194.868ZM188.359 51.9481C188.598 51.6943 188.785 51.3107 188.921 50.803C189.054 50.2954 189.163 49.6522 189.247 48.8735L189.567 45.6345H194.074V52.1759H193.166V46.3671L193.299 46.4998H189.948L190.392 46.096L190.092 49.0581C190.008 49.8282 189.916 50.4338 189.809 50.8723C189.702 51.3135 189.552 51.6712 189.359 51.9452H188.359V51.9481Z" fill="white"/>
<path d="M197.137 52.7932H196.229V45.6345H197.137V52.7932ZM201.221 49.5859H196.97V48.7206H201.221V49.5859ZM201.056 45.6345H201.965V52.7932H201.056V45.6345Z" fill="white"/>
<path d="M204.768 52.0606L204.635 51.9279H208.378V52.7932H203.859V45.6345H208.378V46.4998H204.635L204.768 46.3671V52.0606ZM204.603 48.7293H208.194V49.5859H204.603V48.7293Z" fill="white"/>
<path d="M213.795 49.0898C214.034 49.1504 214.256 49.2513 214.461 49.3898C214.665 49.5282 214.83 49.7099 214.957 49.9406C215.084 50.1714 215.147 50.4454 215.147 50.7598C215.147 51.2068 215.043 51.5818 214.833 51.8846C214.622 52.1875 214.331 52.4153 213.956 52.5653C213.581 52.7153 213.143 52.7932 212.641 52.7932H209.991V45.6345H212.661C213.108 45.6345 213.5 45.7095 213.838 45.8623C214.175 46.0123 214.435 46.2286 214.616 46.5084C214.798 46.7882 214.89 47.1112 214.89 47.4833C214.89 47.9101 214.789 48.2534 214.59 48.5158C214.391 48.7783 214.126 48.9687 213.797 49.0927L213.795 49.0898ZM213.95 47.5958C213.95 47.2439 213.829 46.9757 213.59 46.7853C213.35 46.5949 213.01 46.5026 212.569 46.5026H210.899V48.7322H212.569C213.01 48.7322 213.35 48.6312 213.59 48.4322C213.829 48.2332 213.95 47.9534 213.95 47.5958ZM212.618 51.9279C213.1 51.9279 213.483 51.8298 213.774 51.6337C214.063 51.4376 214.207 51.1434 214.207 50.7511C214.207 50.3589 214.063 50.0676 213.774 49.8743C213.486 49.6811 213.1 49.5859 212.618 49.5859H210.896V51.9279H212.618Z" fill="white"/>
<path d="M219.776 52.8861C219.109 52.8861 218.501 52.7246 217.956 52.4016C217.408 52.0785 216.978 51.6372 216.667 51.0806C216.355 50.5239 216.197 49.9009 216.197 49.2145C216.197 48.528 216.352 47.905 216.667 47.3484C216.978 46.7917 217.411 46.3504 217.956 46.0274C218.504 45.7044 219.109 45.5429 219.776 45.5429C220.442 45.5429 221.047 45.7044 221.59 46.0274C222.132 46.3504 222.561 46.7917 222.873 47.3484C223.184 47.905 223.343 48.528 223.343 49.2145C223.343 49.9009 223.187 50.5239 222.873 51.0806C222.561 51.6372 222.132 52.0785 221.59 52.4016C221.047 52.7246 220.442 52.8861 219.776 52.8861ZM219.776 51.9891C220.272 51.9891 220.719 51.868 221.122 51.6286C221.526 51.3892 221.84 51.0546 222.065 50.6335C222.293 50.2095 222.406 49.7365 222.406 49.2145C222.406 48.6924 222.293 48.2194 222.065 47.7954C221.838 47.3715 221.523 47.0398 221.122 46.8004C220.721 46.561 220.272 46.4399 219.776 46.4399C219.28 46.4399 218.833 46.561 218.429 46.8004C218.028 47.0398 217.711 47.3744 217.48 47.7954C217.249 48.2194 217.134 48.6924 217.134 49.2145C217.134 49.7365 217.249 50.2095 217.48 50.6335C217.711 51.0575 218.028 51.3892 218.429 51.6286C218.833 51.868 219.28 51.9891 219.776 51.9891Z" fill="white"/>
<path d="M170.081 42.6773H168.342V55.8352H170.081V42.6773Z" fill="white"/>
</svg>
