<svg xmlns="http://www.w3.org/2000/svg" version="1.1" xmlns:xlink="http://www.w3.org/1999/xlink" width="36" height="27"><svg width="36" height="27" viewBox="0 0 36 27" fill="none" xmlns="http://www.w3.org/2000/svg">
<path fill-rule="evenodd" clip-rule="evenodd" d="M0 0.49309L0.503147 0H4.16116L18.8204 21.0696V0.586377L19.3235 0.0266528H22.0569L22.56 0.386476V26.5069L22.0569 27H18.4668L3.7396 5.85045V26.4936L3.18206 26.92H0.448752L0 26.4936V0.49309Z" fill="#181A1B"></path>
<path fill-rule="evenodd" clip-rule="evenodd" d="M25.966 22.5224C25.966 22.5224 27.2987 24.4815 29.1073 24.5348C30.9159 24.5881 32.2078 24.095 32.8333 23.1888C33.4588 22.2826 34.4787 19.6838 30.9703 18.5377C27.9242 17.5249 25.8708 17.1118 24.7558 15.0861C23.6407 13.0604 24.5048 9.69378 26.4132 8.52025C28.1452 7.45523 29.5063 7.23874 32.0422 7.66823C33.0941 7.84638 34.4515 8.76923 34.4515 8.76923C34.7007 8.92553 35.5062 9.79829 35.5062 9.79829L35.2897 10.2243L34.1796 11.3013H33.6356C33.1325 10.675 32.4797 10.1819 31.7318 9.86202C30.5623 9.52885 27.897 9.5022 27.0811 11.1547C26.3468 12.2342 26.5372 13.6868 27.5299 14.553C28.9305 15.3393 30.4264 15.9523 31.9766 16.3788C33.1869 16.7386 35.8658 18.1379 35.9882 20.6167C36.1106 23.0955 35.3082 25.0012 33.2549 25.9208C30.9431 27.0802 28.1962 27.0535 25.9116 25.8275C25.1909 25.2411 24.5246 24.5881 23.8991 23.9084C23.8991 23.9084 23.8175 23.5619 23.8991 23.4686L25.3677 22.4025L25.966 22.5091V22.5224Z" fill="#DE063A"></path>
</svg><style>@media (prefers-color-scheme: light) { :root { filter: none; } }
@media (prefers-color-scheme: dark) { :root { filter: none; } }
</style></svg>