<svg width="82" height="30" viewBox="0 0 82 30" fill="none" xmlns="http://www.w3.org/2000/svg">
<path fill-rule="evenodd" clip-rule="evenodd" d="M81.3682 15.8837C80.9763 15.2581 79.3688 14.8045 79.2968 14.7263C79.2328 14.4135 79.2328 14.085 79.2968 13.7643C79.2408 13.2951 79.0169 12.8728 78.657 12.5521C78.473 12.3879 74.9701 10.8003 74.3942 10.5579C73.9064 10.3545 73.3625 10.3311 72.8667 10.5031C72.4988 10.6986 72.1549 10.9411 71.859 11.2383C71.779 11.293 71.5391 11.1522 71.5391 11.1522L69.8436 10.4562C69.6676 10.378 69.8915 10.1277 69.9555 9.97915C70.0035 9.89312 70.0035 9.78363 69.9555 9.6976C69.9555 9.6976 67.4123 8.5245 67.1963 8.45412C66.9804 8.38373 66.7965 8.73566 66.7085 8.87643C66.6205 9.01721 66.5405 8.98592 66.5405 8.98592L66.0847 8.87643C65.6208 8.84515 65.1489 8.8999 64.7011 9.04067C64.2692 9.2049 63.8773 9.45516 63.5494 9.77581L61.446 12.5052L58.9028 15.829C58.9028 15.829 56.7354 18.316 56.7114 19.6298C56.7114 20.4197 57.0713 21.1705 57.6951 21.6867L60.2384 22.8676C61.63 22.1168 62.4457 20.6465 62.3418 19.098C62.2458 16.1105 59.1587 15.438 59.1587 15.438L60.0784 14.257C60.0784 14.257 63.8933 15.1251 63.8933 19.6611C63.8453 21.2252 63.0615 22.6721 61.7739 23.5949L74.9221 29.6324C76.8335 30.7117 78.3371 29.085 78.697 28.7018C79.0569 28.0605 79.3368 27.3801 79.5207 26.6684C79.5207 26.6684 81.5841 19.6298 81.912 18.4489C82.128 17.5574 81.928 16.6189 81.3682 15.8837ZM65.7328 24.5255L65.5328 24.7211H64.4131L64.2532 24.5568V14.1084L64.4531 13.9442H65.5248L65.7248 14.1397V24.5255H65.7328ZM65.6848 12.865C65.3089 13.2013 64.7411 13.2013 64.3652 12.865C64.1012 12.513 64.1812 12.0203 64.5411 11.7623C64.813 11.5667 65.1729 11.5589 65.4528 11.731C65.8127 11.8874 65.9807 12.3019 65.8207 12.6538C65.7887 12.732 65.7408 12.8024 65.6768 12.8571L65.6848 12.865ZM74.7461 24.6194C71.859 25.7065 68.6119 24.2987 67.5002 21.4755C67.3403 21.0766 67.2363 20.6543 67.1723 20.2242C66.8524 17.2132 68.444 14.1241 71.667 13.8034C75.4819 13.4202 77.7053 15.5709 78.0891 18.2769C78.3931 20.4588 77.7372 23.501 74.7461 24.6194Z" fill="#DE063A"/>
<path fill-rule="evenodd" clip-rule="evenodd" d="M60.2064 22.8676L61.7899 23.6027L60.2064 22.8754V22.8676Z" fill="#DE063A"/>
<path fill-rule="evenodd" clip-rule="evenodd" d="M54.4161 14.1397L54.584 13.9755H58.3029C58.3029 13.9755 59.2866 14.0772 59.4546 14.1163L60.0944 14.2805L59.2307 15.438C58.9347 15.3676 58.6388 15.3206 58.3429 15.2972H55.9516V23.4385H58.199C58.199 23.4385 58.8388 23.3603 59.0867 23.329C59.5026 23.2508 59.9025 23.11 60.2704 22.9067L61.8539 23.6418C61.0461 24.1814 60.1264 24.5255 59.1587 24.6507C57.7511 24.7993 54.664 24.7367 54.664 24.7367L54.4321 24.5725L54.4161 14.1475V14.1397Z" fill="#DE063A"/>
<path fill-rule="evenodd" clip-rule="evenodd" d="M0 9.44734L0.295913 9.15798H2.44728L11.0688 21.5224V9.50208L11.3647 9.17362H12.9722L13.2681 9.38478V24.7132L12.9722 25.0026H10.8608L2.19936 12.5912V24.7054L1.87145 24.9557H0.263923L0 24.7054V9.44734Z" fill="white"/>
<path fill-rule="evenodd" clip-rule="evenodd" d="M14.5877 9.44734L14.8836 9.15798H16.4432L16.7391 9.44734V24.7054L16.4832 24.9557H14.9236L14.5877 24.6663V9.44734Z" fill="white"/>
<path fill-rule="evenodd" clip-rule="evenodd" d="M18.0107 9.49427L18.3066 9.1658H19.8662L20.1621 9.45516V15.6569L27.224 9.17362H29.5913L29.7593 9.62722L22.1455 16.3217L30.2152 24.5412L29.9992 24.9557H27.5919L20.1941 17.2602V24.6585L19.9382 24.9479H18.3786L18.0427 24.6585L18.0027 9.48644L18.0107 9.49427Z" fill="white"/>
<path fill-rule="evenodd" clip-rule="evenodd" d="M32.0786 22.5C32.0786 22.5 32.8624 23.6496 33.9261 23.6809C34.9898 23.7122 35.7495 23.4228 36.1174 22.891C36.4853 22.3592 37.0851 20.8342 35.0217 20.1616C33.2303 19.5673 32.0226 19.3248 31.3668 18.1361C30.711 16.9473 31.1589 14.9765 32.2865 14.3665C33.4142 13.7565 33.8301 13.561 35.7975 13.8034C36.2534 13.9364 36.6853 14.1397 37.0691 14.4291V14.2023L37.2691 14.0068H46.5304L46.6983 14.171V20.8733C46.6983 20.8733 46.6983 23.7435 49.5135 23.6887C52.1447 23.6418 52.0568 20.842 52.0568 20.842V14.171L52.2567 13.9442H53.4244L53.6243 14.1397V20.756C53.6243 20.756 53.7443 25.0652 49.4495 24.9791C45.1548 24.8931 45.2907 21.2487 45.2747 20.67C45.2588 20.0912 45.2747 15.2972 45.2747 15.2972H42.1397V24.5334L41.9397 24.7289H40.852L40.6201 24.5334V15.2894H37.741L36.9092 15.915H36.5893C36.2934 15.5474 35.9095 15.2581 35.4696 15.0704C34.7818 14.8749 33.2143 14.8592 32.7344 15.829C32.3025 16.4625 32.4145 17.3149 32.9983 17.8233C33.8221 18.2847 34.7018 18.6444 35.6136 18.8947C36.3254 19.1058 37.9009 19.927 37.9729 21.3816C38.0449 22.8363 37.573 23.9546 36.3654 24.4943C35.0058 25.1747 33.3902 25.159 32.0466 24.4395C31.6227 24.0954 31.2309 23.7122 30.863 23.3133C30.863 23.3133 30.815 23.11 30.863 23.0553L31.7267 22.4296L32.0786 22.4922V22.5Z" fill="#DE063A"/>
<path fill-rule="evenodd" clip-rule="evenodd" d="M63.3175 3.85558C64.2132 3.85558 64.941 4.55944 64.949 5.43535C64.949 6.31126 64.2292 7.02294 63.3335 7.03076C62.4377 7.03076 61.7099 6.3269 61.7019 5.45099C61.7019 4.57508 62.4217 3.87122 63.3175 3.8634V3.85558Z" fill="#DE063A"/>
<path fill-rule="evenodd" clip-rule="evenodd" d="M66.9484 2.48697C67.6122 2.48697 68.1481 3.01095 68.1481 3.66006C68.1481 4.30918 67.6122 4.83316 66.9484 4.83316C66.2846 4.83316 65.7488 4.30918 65.7488 3.66006C65.7488 3.01095 66.2846 2.48697 66.9484 2.48697Z" fill="#DE063A"/>
<path fill-rule="evenodd" clip-rule="evenodd" d="M60.9342 2.75287C61.2861 2.75287 61.574 3.03441 61.574 3.37852C61.574 3.72263 61.2861 4.00417 60.9342 4.00417C60.5823 4.00417 60.2944 3.72263 60.2944 3.37852C60.2944 3.03441 60.5823 2.75287 60.9342 2.75287Z" fill="#DE063A"/>
<path fill-rule="evenodd" clip-rule="evenodd" d="M62.4377 0C62.7896 0 63.0775 0.281543 63.0775 0.625652C63.0775 0.96976 62.7896 1.2513 62.4377 1.2513C62.0858 1.2513 61.7979 0.96976 61.7979 0.625652C61.7979 0.281543 62.0858 0 62.4377 0Z" fill="#DE063A"/>
<path fill-rule="evenodd" clip-rule="evenodd" d="M64.5571 1.72836C64.7091 1.72836 64.837 1.85349 64.837 2.00209C64.837 2.15068 64.7091 2.27581 64.5571 2.27581C64.4052 2.27581 64.2772 2.15068 64.2772 2.00209C64.2772 1.85349 64.4052 1.72836 64.5571 1.72836Z" fill="#DE063A"/>
</svg>
