<svg width="394" height="140" viewBox="0 0 394 140" fill="none" xmlns="http://www.w3.org/2000/svg">
<path fill-rule="evenodd" clip-rule="evenodd" d="M390.567 74.3218C388.686 71.4195 380.97 69.3153 380.625 68.9525C380.318 67.5013 380.318 65.9776 380.625 64.4902C380.356 62.3134 379.281 60.3543 377.554 58.8669C376.671 58.105 359.856 50.7404 357.092 49.6157C354.751 48.6725 352.14 48.5636 349.76 49.3618C347.994 50.2687 346.343 51.3934 344.923 52.772C344.539 53.0259 343.388 52.3729 343.388 52.3729L335.249 49.1441C334.405 48.7813 335.479 47.6204 335.787 46.9311C336.017 46.532 336.017 46.0241 335.787 45.625C335.787 45.625 323.579 40.1831 322.542 39.8566C321.506 39.5301 320.623 41.1627 320.201 41.8157C319.778 42.4687 319.395 42.3236 319.395 42.3236L317.206 41.8157C314.98 41.6706 312.715 41.9245 310.565 42.5776C308.492 43.3394 306.611 44.5004 305.037 45.9878L294.941 58.6492L282.733 74.0678C282.733 74.0678 272.33 85.6046 272.215 91.6995C272.215 95.3637 273.942 98.8465 276.937 101.241L289.144 106.719C295.824 103.236 299.739 96.4158 299.24 89.2325C298.78 75.3739 283.962 72.2539 283.962 72.2539L288.376 66.7757C288.376 66.7757 306.688 70.8027 306.688 91.8446C306.458 99.1004 302.695 105.812 296.515 110.093L359.626 138.1C368.801 143.107 376.018 135.561 377.745 133.783C379.473 130.808 380.817 127.652 381.7 124.351C381.7 124.351 391.604 91.6995 393.178 86.2213C394.214 82.0855 393.255 77.732 390.567 74.3218ZM315.517 114.41L314.558 115.317H309.183L308.415 114.555V66.0864L309.375 65.3246H314.519L315.479 66.2315V114.41H315.517ZM315.287 60.3181C313.483 61.8781 310.757 61.8781 308.953 60.3181C307.686 58.6855 308.07 56.3999 309.797 55.2027C311.103 54.2957 312.83 54.2594 314.174 55.0576C315.901 55.7832 316.707 57.706 315.94 59.3385C315.786 59.7013 315.556 60.0278 315.249 60.2818L315.287 60.3181ZM358.781 114.846C344.923 119.888 329.337 113.358 324.001 100.261C323.233 98.4111 322.734 96.452 322.427 94.4567C320.892 80.4892 328.531 66.159 344.002 64.6715C362.313 62.8939 372.985 72.8706 374.828 85.4232C376.287 95.5451 373.139 109.658 358.781 114.846Z" fill="#DE063A"/>
<path fill-rule="evenodd" clip-rule="evenodd" d="M288.991 106.719L296.592 110.129L288.991 106.755V106.719Z" fill="#DE063A"/>
<path fill-rule="evenodd" clip-rule="evenodd" d="M261.197 66.2315L262.003 65.4697H279.854C279.854 65.4697 284.576 65.9413 285.382 66.1227L288.453 66.8846L284.307 72.2539C282.887 71.9274 281.466 71.7097 280.046 71.6009H268.568V109.367H279.355C279.355 109.367 282.426 109.005 283.616 108.86C285.612 108.497 287.532 107.844 289.298 106.9L296.899 110.311C293.021 112.814 288.607 114.41 283.962 114.991C277.205 115.68 262.387 115.39 262.387 115.39L261.274 114.628L261.197 66.2678V66.2315Z" fill="#DE063A"/>
<path fill-rule="evenodd" clip-rule="evenodd" d="M0 44.4641L1.42038 43.1218H11.747L53.1301 100.479V44.718L54.5504 43.1943H62.2666L63.687 44.1739V115.281L62.2666 116.623H52.1319L10.5569 59.0483V115.245L8.98297 116.406H1.26683L0 115.245V44.4641Z" fill="#0E1011"/>
<path fill-rule="evenodd" clip-rule="evenodd" d="M70.0211 44.4641L71.4415 43.1218H78.9273L80.3477 44.4641V115.245L79.1192 116.406H71.6334L70.0211 115.063V44.4641Z" fill="#0E1011"/>
<path fill-rule="evenodd" clip-rule="evenodd" d="M86.4515 44.6818L87.8719 43.158H95.3577L96.7781 44.5004V73.2697L130.675 43.1943H142.038L142.845 45.2985L106.298 76.3534L145.033 114.483L143.996 116.406H132.441L96.9316 80.7069V115.027L95.7032 116.369H88.2174L86.605 115.027L86.4131 44.6455L86.4515 44.6818Z" fill="#0E1011"/>
<path fill-rule="evenodd" clip-rule="evenodd" d="M153.977 105.014C153.977 105.014 157.739 110.347 162.845 110.492C167.951 110.637 171.598 109.295 173.364 106.828C175.13 104.361 178.009 97.2865 168.104 94.1665C159.505 91.4093 153.709 90.2846 150.561 84.7702C147.413 79.2558 149.563 70.1134 154.975 67.2836C160.388 64.4539 162.384 63.5469 171.828 64.6715C174.016 65.2883 176.089 66.2316 177.932 67.5739V66.5218L178.892 65.6148H223.346L224.152 66.3767V97.4679C224.152 97.4679 224.152 110.782 237.665 110.528C250.295 110.311 249.872 97.3227 249.872 97.3227V66.3767L250.832 65.3246H256.437L257.397 66.2316V96.9237C257.397 96.9237 257.973 116.913 237.358 116.514C216.743 116.115 217.396 99.2093 217.319 96.5246C217.242 93.84 217.319 71.6009 217.319 71.6009H202.27V114.446L201.311 115.353H196.09L194.977 114.446V71.5646H181.157L177.164 74.4669H175.629C174.208 72.7618 172.366 71.4195 170.254 70.5488C166.953 69.6418 159.429 69.5692 157.125 74.0678C155.052 77.0064 155.59 80.9609 158.392 83.319C162.346 85.4595 166.569 87.1283 170.945 88.2892C174.362 89.2688 181.924 93.0781 182.27 99.826C182.615 106.574 180.35 111.762 174.554 114.265C168.028 117.421 160.273 117.349 153.824 114.011C151.789 112.415 149.908 110.637 148.142 108.787C148.142 108.787 147.912 107.844 148.142 107.59L152.288 104.687L153.977 104.978V105.014Z" fill="#DE063A"/>
<path fill-rule="evenodd" clip-rule="evenodd" d="M303.924 18.5245C308.223 18.5245 311.717 21.7896 311.755 25.8529C311.755 29.9162 308.3 33.2176 304.001 33.2538C299.701 33.2538 296.208 29.9887 296.169 25.9255C296.169 21.8622 299.624 18.5971 303.924 18.5608V18.5245Z" fill="#DE063A"/>
<path fill-rule="evenodd" clip-rule="evenodd" d="M321.352 12.1757C324.539 12.1757 327.111 14.6064 327.111 17.6175C327.111 20.6287 324.539 23.0594 321.352 23.0594C318.166 23.0594 315.594 20.6287 315.594 17.6175C315.594 14.6064 318.166 12.1757 321.352 12.1757Z" fill="#DE063A"/>
<path fill-rule="evenodd" clip-rule="evenodd" d="M292.484 13.4092C294.173 13.4092 295.555 14.7152 295.555 16.3115C295.555 17.9078 294.173 19.2138 292.484 19.2138C290.795 19.2138 289.413 17.9078 289.413 16.3115C289.413 14.7152 290.795 13.4092 292.484 13.4092Z" fill="#DE063A"/>
<path fill-rule="evenodd" clip-rule="evenodd" d="M299.701 0.638916C301.39 0.638916 302.772 1.94496 302.772 3.54124C302.772 5.13753 301.39 6.44357 299.701 6.44357C298.012 6.44357 296.63 5.13753 296.63 3.54124C296.63 1.94496 298.012 0.638916 299.701 0.638916Z" fill="#DE063A"/>
<path fill-rule="evenodd" clip-rule="evenodd" d="M309.874 8.6566C310.603 8.6566 311.218 9.23707 311.218 9.92637C311.218 10.6157 310.603 11.1961 309.874 11.1961C309.145 11.1961 308.531 10.6157 308.531 9.92637C308.531 9.23707 309.145 8.6566 309.874 8.6566Z" fill="#DE063A"/>
</svg>
