<svg width="946" height="946" viewBox="0 0 946 946" fill="none" xmlns="http://www.w3.org/2000/svg">
<path d="M571.053 732.594C572.96 732.594 574.506 731.048 574.506 729.141C574.506 727.234 572.96 725.688 571.053 725.688C569.146 725.688 567.6 727.234 567.6 729.141C567.6 731.048 569.146 732.594 571.053 732.594Z" fill="#F4ECEC"/>
<path d="M459.602 780.923C459.602 781.629 459.883 782.305 460.382 782.804C460.881 783.303 461.557 783.584 462.263 783.584C462.789 783.581 463.303 783.423 463.739 783.129C464.175 782.834 464.514 782.417 464.714 781.93C464.913 781.443 464.963 780.908 464.858 780.392C464.753 779.877 464.498 779.404 464.124 779.033C463.75 778.663 463.275 778.412 462.758 778.311C462.242 778.211 461.707 778.266 461.222 778.469C460.737 778.673 460.323 779.016 460.032 779.455C459.742 779.894 459.588 780.409 459.59 780.935L459.602 780.923Z" fill="#F4ECEC"/>
<path d="M505.247 812.106C505.251 811.579 505.1 811.064 504.811 810.623C504.523 810.183 504.111 809.839 503.626 809.633C503.142 809.427 502.607 809.37 502.09 809.468C501.573 809.566 501.097 809.815 500.722 810.184C500.346 810.553 500.089 811.024 499.981 811.54C499.874 812.055 499.922 812.59 500.119 813.078C500.316 813.566 500.654 813.985 501.088 814.281C501.523 814.577 502.036 814.738 502.562 814.742C503.267 814.746 503.945 814.47 504.447 813.977C504.95 813.483 505.237 812.81 505.247 812.106Z" fill="#F4ECEC"/>
<path d="M378.187 694.943C378.187 695.649 378.467 696.326 378.966 696.825C379.465 697.324 380.142 697.604 380.848 697.604C381.375 697.604 381.889 697.448 382.327 697.155C382.765 696.862 383.106 696.446 383.307 695.959C383.508 695.472 383.56 694.936 383.456 694.42C383.353 693.904 383.098 693.43 382.725 693.058C382.352 692.686 381.876 692.434 381.36 692.332C380.843 692.231 380.307 692.286 379.821 692.489C379.335 692.692 378.921 693.035 378.63 693.474C378.339 693.913 378.185 694.429 378.187 694.955V694.943Z" fill="#F4ECEC"/>
<path d="M487.332 674.214L506.618 693.501H534.36L515.073 674.214H487.332Z" fill="#F4ECEC"/>
<path d="M401.4 647.383C402.869 647.383 404.06 646.192 404.06 644.723C404.06 643.253 402.869 642.062 401.4 642.062C399.93 642.062 398.739 643.253 398.739 644.723C398.739 646.192 399.93 647.383 401.4 647.383Z" fill="#F4ECEC"/>
<path d="M241.62 511.952C243.527 511.952 245.073 510.406 245.073 508.499C245.073 506.592 243.527 505.046 241.62 505.046C239.713 505.046 238.167 506.592 238.167 508.499C238.167 510.406 239.713 511.952 241.62 511.952Z" fill="#F4ECEC"/>
<path d="M578.337 693.501L529.855 645.03H458.136L470.103 656.997H522.488L558.98 693.501H578.337Z" fill="#F4ECEC"/>
<path d="M623.568 794.995C625.037 794.995 626.228 793.804 626.228 792.334C626.228 790.865 625.037 789.673 623.568 789.673C622.098 789.673 620.907 790.865 620.907 792.334C620.907 793.804 622.098 794.995 623.568 794.995Z" fill="#F4ECEC"/>
<path d="M558.14 693.501L522.227 657.576H470.694L485.038 671.92H515.972L537.541 693.501H558.14Z" fill="#F4ECEC"/>
<path d="M854.368 119.35L844.104 129.614H946V80.0198H854.368V119.35Z" fill="#F4ECEC"/>
<path d="M275.452 519.117C275.452 520.033 275.815 520.912 276.463 521.559C277.11 522.207 277.989 522.57 278.904 522.57C279.587 522.57 280.255 522.368 280.823 521.988C281.391 521.609 281.833 521.07 282.094 520.439C282.356 519.808 282.424 519.114 282.291 518.444C282.158 517.774 281.829 517.159 281.346 516.676C280.863 516.193 280.248 515.864 279.578 515.731C278.908 515.598 278.214 515.666 277.583 515.927C276.952 516.189 276.413 516.631 276.033 517.199C275.654 517.767 275.452 518.435 275.452 519.117Z" fill="#F4ECEC"/>
<path d="M470.54 68.6087C476.653 68.6087 481.609 63.6533 481.609 57.5405C481.609 51.4277 476.653 46.4722 470.54 46.4722C464.428 46.4722 459.472 51.4277 459.472 57.5405C459.472 63.6533 464.428 68.6087 470.54 68.6087Z" fill="#F4ECEC"/>
<path d="M828.211 145.507H946V130.997H842.72L828.211 145.507Z" fill="#F4ECEC"/>
<path d="M946 64.056H854.368V78.9555H946V64.056Z" fill="#F4ECEC"/>
<path d="M601.112 793.848C601.112 794.553 601.392 795.23 601.891 795.729C602.39 796.228 603.067 796.508 603.773 796.508C604.298 796.506 604.812 796.348 605.248 796.054C605.684 795.76 606.023 795.344 606.222 794.858C606.422 794.371 606.473 793.837 606.369 793.321C606.265 792.806 606.011 792.333 605.638 791.962C605.266 791.591 604.791 791.339 604.276 791.237C603.76 791.136 603.225 791.189 602.74 791.391C602.255 791.592 601.84 791.933 601.548 792.371C601.256 792.808 601.1 793.322 601.1 793.848H601.112Z" fill="#F4ECEC"/>
<path d="M333.382 248.94H345.609L227.75 131.08H0V145.589H230.032L333.382 248.94Z" fill="#F4ECEC"/>
<path d="M668.455 788.148C667.772 788.148 667.105 788.351 666.537 788.73C665.969 789.109 665.527 789.649 665.265 790.28C665.004 790.911 664.936 791.605 665.069 792.275C665.202 792.944 665.531 793.56 666.014 794.043C666.497 794.525 667.112 794.854 667.782 794.987C668.452 795.121 669.146 795.052 669.777 794.791C670.408 794.53 670.947 794.087 671.326 793.519C671.706 792.951 671.908 792.284 671.908 791.601C671.908 790.685 671.544 789.807 670.897 789.159C670.249 788.512 669.371 788.148 668.455 788.148Z" fill="#F4ECEC"/>
<path d="M447.363 64.056H117.067L101.104 80.0198H0V129.685H228.317L347.56 248.94H573.985L770.588 52.3729H832.681V0H181.124L128.703 52.3729H446.985C448.249 46.6415 451.565 41.5702 456.309 38.114C461.053 34.6579 466.896 33.0554 472.739 33.6085C478.582 34.1616 484.021 36.8321 488.032 41.117C492.043 45.4019 494.349 51.0054 494.515 56.8722C494.681 62.7389 492.697 68.4641 488.935 72.9692C485.173 77.4744 479.894 80.4486 474.092 81.3317C468.289 82.2149 462.364 80.946 457.433 77.764C452.501 74.582 448.903 69.7066 447.316 64.056H447.363Z" fill="#F4ECEC"/>
<path d="M262.338 645.42C265.048 645.42 267.245 643.223 267.245 640.513C267.245 637.803 265.048 635.606 262.338 635.606C259.627 635.606 257.43 637.803 257.43 640.513C257.43 643.223 259.627 645.42 262.338 645.42Z" fill="#F4ECEC"/>
<path d="M592.362 805.637C594.269 805.637 595.814 804.091 595.814 802.184C595.814 800.277 594.269 798.732 592.362 798.732C590.455 798.732 588.909 800.277 588.909 802.184C588.909 804.091 590.455 805.637 592.362 805.637Z" fill="#F4ECEC"/>
<path d="M195.278 783.998C195.98 783.998 196.666 783.789 197.249 783.4C197.832 783.01 198.287 782.456 198.556 781.808C198.824 781.159 198.894 780.446 198.757 779.758C198.62 779.07 198.283 778.438 197.787 777.942C197.29 777.445 196.658 777.108 195.97 776.971C195.282 776.834 194.569 776.904 193.92 777.173C193.272 777.441 192.718 777.896 192.328 778.479C191.939 779.063 191.731 779.748 191.731 780.45C191.749 781.385 192.128 782.277 192.79 782.938C193.451 783.6 194.343 783.979 195.278 783.998Z" fill="#F4ECEC"/>
<path d="M132.405 718.061C134.396 718.061 136.011 716.447 136.011 714.455C136.011 712.463 134.396 710.848 132.405 710.848C130.413 710.848 128.798 712.463 128.798 714.455C128.798 716.447 130.413 718.061 132.405 718.061Z" fill="#F4ECEC"/>
<path d="M149.965 728.42C149.263 728.42 148.577 728.628 147.994 729.018C147.41 729.408 146.956 729.962 146.687 730.61C146.419 731.258 146.348 731.971 146.485 732.66C146.622 733.348 146.96 733.98 147.456 734.476C147.952 734.972 148.584 735.31 149.273 735.447C149.961 735.584 150.674 735.513 151.322 735.245C151.97 734.977 152.524 734.522 152.914 733.938C153.304 733.355 153.512 732.669 153.512 731.967C153.512 731.027 153.138 730.124 152.473 729.459C151.808 728.794 150.906 728.42 149.965 728.42Z" fill="#F4ECEC"/>
<path d="M61.289 702.606C63.2809 702.606 64.8956 700.991 64.8956 698.999C64.8956 697.008 63.2809 695.393 61.289 695.393C59.2971 695.393 57.6824 697.008 57.6824 698.999C57.6824 700.991 59.2971 702.606 61.289 702.606Z" fill="#F4ECEC"/>
<path d="M142.751 802.598C141.795 802.598 140.878 802.978 140.201 803.655C139.525 804.331 139.145 805.248 139.145 806.205C139.145 807.161 139.525 808.079 140.201 808.755C140.878 809.431 141.795 809.812 142.751 809.812C143.702 809.812 144.613 809.434 145.285 808.762C145.957 808.09 146.334 807.179 146.334 806.229C146.334 805.278 145.957 804.367 145.285 803.695C144.613 803.023 143.702 802.646 142.751 802.646V802.598Z" fill="#F4ECEC"/>
<path d="M602.247 316.804C604.605 316.804 606.516 314.892 606.516 312.535C606.516 310.177 604.605 308.266 602.247 308.266C599.89 308.266 597.978 310.177 597.978 312.535C597.978 314.892 599.89 316.804 602.247 316.804Z" fill="#F4ECEC"/>
<path d="M673.197 269.35C673.187 269.499 673.187 269.65 673.197 269.799L676.887 266.11C676.737 266.099 676.587 266.099 676.437 266.11C675.582 266.122 674.765 266.467 674.16 267.072C673.555 267.677 673.209 268.494 673.197 269.35Z" fill="#F4ECEC"/>
<path d="M832.681 110.351V80.008H786.67V78.9437H832.681V64.056H775.436L578.834 260.658H359.279L478.475 379.854H563.189L591.664 351.368H558.14C558.046 351.367 557.957 351.328 557.892 351.262L539.125 332.495C539.06 332.429 539.024 332.34 539.024 332.247C539.024 332.154 539.06 332.065 539.125 331.999L602.531 268.593C602.597 268.526 602.686 268.488 602.779 268.487H670.478C670.683 267.014 671.414 265.666 672.535 264.69C673.656 263.715 675.093 263.177 676.579 263.177C677.507 263.184 678.421 263.402 679.252 263.816L832.681 110.351Z" fill="#F4ECEC"/>
<path d="M255.314 503.591C256.783 503.591 257.974 502.4 257.974 500.931C257.974 499.461 256.783 498.27 255.314 498.27C253.844 498.27 252.653 499.461 252.653 500.931C252.653 502.4 253.844 503.591 255.314 503.591Z" fill="#F4ECEC"/>
<path d="M611.14 312.18H630.876L671.01 271.975C670.595 271.141 670.376 270.222 670.371 269.291V269.172H602.886L539.823 332.283L558.258 350.73H592.314L630.154 312.89H611.14C611.047 315.225 610.042 317.43 608.341 319.033C606.64 320.636 604.378 321.507 602.041 321.461C599.705 321.414 597.479 320.454 595.843 318.785C594.207 317.116 593.291 314.872 593.291 312.535C593.291 310.198 594.207 307.954 595.843 306.285C597.479 304.616 599.705 303.655 602.041 303.609C604.378 303.562 606.64 304.434 608.341 306.036C610.042 307.639 611.047 309.845 611.14 312.18Z" fill="#F4ECEC"/>
<path d="M69.9212 260.552C72.3833 260.552 74.3793 258.556 74.3793 256.094C74.3793 253.632 72.3833 251.636 69.9212 251.636C67.4591 251.636 65.4632 253.632 65.4632 256.094C65.4632 258.556 67.4591 260.552 69.9212 260.552Z" fill="#F4ECEC"/>
<path d="M447.044 849.756C447.573 849.759 448.091 849.604 448.532 849.312C448.973 849.019 449.318 848.603 449.522 848.115C449.726 847.627 449.78 847.089 449.678 846.57C449.577 846.051 449.323 845.573 448.95 845.198C448.577 844.823 448.1 844.568 447.582 844.464C447.063 844.36 446.525 844.412 446.036 844.614C445.547 844.816 445.129 845.158 444.835 845.598C444.541 846.038 444.383 846.555 444.383 847.084C444.38 847.436 444.447 847.785 444.579 848.111C444.711 848.437 444.906 848.734 445.154 848.985C445.401 849.235 445.695 849.434 446.02 849.571C446.344 849.707 446.692 849.778 447.044 849.78V849.756Z" fill="#F4ECEC"/>
<path d="M92.9327 248.94H300L224.982 173.922H0V946H180.733L317.229 809.457V695.452L268.747 646.969C267.087 648.647 264.839 649.611 262.479 649.657C260.12 649.704 257.836 648.829 256.111 647.219C254.386 645.608 253.357 643.389 253.241 641.032C253.126 638.675 253.934 636.366 255.494 634.595C257.053 632.824 259.241 631.731 261.594 631.547C263.947 631.363 266.278 632.104 268.094 633.611C269.909 635.118 271.066 637.274 271.318 639.62C271.57 641.966 270.898 644.318 269.444 646.177L318.317 695.026V809.918L182.259 946H832.634V824.829L723.016 715.211H655.613L718.995 778.593L676.839 820.75H610.477L597.269 807.541C595.873 808.832 594.027 809.523 592.127 809.467C590.227 809.412 588.424 808.613 587.106 807.242C585.789 805.872 585.061 804.04 585.08 802.139C585.098 800.238 585.862 798.42 587.206 797.076C588.55 795.732 590.368 794.968 592.269 794.95C594.17 794.931 596.002 795.659 597.372 796.977C598.743 798.294 599.542 800.097 599.597 801.997C599.653 803.897 598.961 805.743 597.671 807.139L610.749 820.217H676.674L718.239 778.653L654.821 715.223H637.367L700.797 778.653L671.66 807.837H618.116L607.391 797.111C606.529 798.083 605.323 798.68 604.028 798.776C602.732 798.872 601.451 798.46 600.455 797.626C599.459 796.792 598.828 795.603 598.694 794.312C598.561 793.02 598.937 791.727 599.742 790.708C600.546 789.688 601.717 789.023 603.004 788.853C604.292 788.682 605.595 789.021 606.637 789.796C607.679 790.571 608.377 791.722 608.585 793.004C608.792 794.286 608.491 795.598 607.746 796.662L618.294 807.21H671.317L700.04 778.629L636.622 715.211H617.596L623.083 720.698V772.433L641.175 790.525H661.278C661.562 788.657 662.56 786.971 664.062 785.824C665.564 784.677 667.452 784.157 669.329 784.375C671.206 784.592 672.926 785.529 674.126 786.989C675.327 788.448 675.914 790.317 675.764 792.201C675.614 794.085 674.739 795.837 673.323 797.089C671.907 798.34 670.061 798.994 668.173 798.911C666.285 798.829 664.502 798.017 663.201 796.647C661.899 795.277 661.18 793.455 661.195 791.566V791.093H640.915L622.492 772.669V720.935L616.768 715.211H600.864L608.254 722.602V776.24L620.481 788.467C621.356 787.763 622.445 787.379 623.568 787.379C624.709 787.387 625.812 787.79 626.69 788.518C627.568 789.247 628.167 790.256 628.385 791.376C628.604 792.496 628.428 793.657 627.888 794.662C627.348 795.667 626.477 796.454 625.422 796.89C624.368 797.326 623.195 797.384 622.103 797.053C621.011 796.723 620.067 796.025 619.43 795.078C618.794 794.13 618.506 792.992 618.613 791.856C618.721 790.721 619.218 789.657 620.02 788.846L607.639 776.465V722.827L600.024 715.211H580.69L595.874 730.395V778.759L562.515 812.117H507.505C507.43 813.398 506.859 814.599 505.913 815.465C504.966 816.331 503.72 816.794 502.438 816.757C501.156 816.719 499.939 816.183 499.045 815.263C498.152 814.343 497.652 813.11 497.652 811.828C497.652 810.545 498.152 809.313 499.045 808.392C499.939 807.472 501.156 806.936 502.438 806.899C503.72 806.861 504.966 807.324 505.913 808.191C506.859 809.057 507.43 810.257 507.505 811.538H562.279L595.306 778.511V730.619L579.874 715.188H559.263L567.151 723.075C568.31 722.312 569.665 721.901 571.053 721.893H571.124C572.763 721.891 574.355 722.448 575.636 723.471C576.918 724.494 577.813 725.922 578.176 727.521C578.538 729.12 578.346 730.795 577.63 732.27C576.915 733.746 575.719 734.934 574.239 735.639C572.759 736.345 571.083 736.526 569.486 736.153C567.889 735.78 566.467 734.876 565.453 733.587C564.438 732.299 563.892 730.704 563.904 729.065C563.916 727.425 564.486 725.838 565.519 724.565L556.059 715.105H520.194L566.11 761.057L546.078 781.207H467.194C467.119 782.49 466.546 783.694 465.598 784.562C464.649 785.431 463.4 785.896 462.115 785.858C460.829 785.82 459.609 785.283 458.714 784.361C457.818 783.438 457.317 782.203 457.317 780.917C457.317 779.631 457.818 778.396 458.714 777.474C459.609 776.551 460.829 776.014 462.115 775.976C463.4 775.939 464.649 776.403 465.598 777.272C466.546 778.14 467.119 779.344 467.194 780.627H545.842L565.33 761.14L519.401 715.211H497.631L477.647 695.239H385.779C385.705 696.523 385.133 697.728 384.185 698.598C383.238 699.467 381.988 699.933 380.702 699.896C379.416 699.859 378.196 699.322 377.299 698.4C376.403 697.477 375.901 696.242 375.901 694.955C375.901 693.669 376.403 692.433 377.299 691.511C378.196 690.588 379.416 690.051 380.702 690.014C381.988 689.977 383.238 690.443 384.185 691.313C385.133 692.182 385.705 693.387 385.779 694.671H477.08L456.634 674.226H381.711L224.439 516.954H103.824L27.7887 440.895L29.397 439.263L104.758 514.624H225.373L382.645 671.896H454.376L440.032 657.553H390.225L246.516 513.855C245.12 515.146 243.274 515.838 241.374 515.782C239.473 515.726 237.671 514.927 236.353 513.557C235.036 512.187 234.308 510.354 234.327 508.453C234.345 506.552 235.109 504.735 236.453 503.39C237.797 502.046 239.615 501.283 241.516 501.264C243.417 501.245 245.249 501.973 246.619 503.291C247.989 504.608 248.788 506.411 248.844 508.311C248.9 510.211 248.208 512.057 246.918 513.453L390.485 656.997H439.405L427.438 645.03H406.331C406.257 646.314 405.685 647.519 404.737 648.389C403.789 649.258 402.54 649.724 401.254 649.687C399.968 649.65 398.747 649.113 397.851 648.191C396.955 647.268 396.453 646.033 396.453 644.746C396.453 643.46 396.955 642.224 397.851 641.302C398.747 640.379 399.968 639.842 401.254 639.805C402.54 639.769 403.789 640.234 404.737 641.104C405.685 641.973 406.257 643.178 406.331 644.462H426.883L395.96 613.552H371.636L283.138 525.03C281.659 526.101 279.831 526.576 278.017 526.36C276.204 526.143 274.539 525.251 273.354 523.862C272.169 522.473 271.551 520.688 271.623 518.863C271.696 517.038 272.453 515.308 273.744 514.016C275.035 512.725 276.766 511.968 278.591 511.895C280.415 511.823 282.2 512.441 283.59 513.626C284.979 514.811 285.871 516.476 286.087 518.29C286.304 520.103 285.829 521.931 284.758 523.41L372.582 611.234H393.654L269.125 486.752L258.625 497.253C259.596 498.115 260.193 499.322 260.289 500.617C260.385 501.912 259.973 503.193 259.139 504.189C258.306 505.185 257.117 505.817 255.825 505.95C254.533 506.083 253.24 505.707 252.221 504.903C251.201 504.098 250.536 502.927 250.366 501.64C250.196 500.353 250.534 499.049 251.309 498.008C252.084 496.966 253.235 496.267 254.517 496.06C255.799 495.853 257.111 496.153 258.175 496.898L268.723 486.35L255.42 473.071L230.316 498.175H115.211L73.4096 456.362C71.9615 457.55 70.1055 458.122 68.2401 457.956C66.3747 457.79 64.6487 456.9 63.4327 455.476C62.2166 454.052 61.6075 452.207 61.736 450.339C61.8646 448.471 62.7206 446.727 64.1203 445.483C65.52 444.239 67.3518 443.593 69.2223 443.685C71.0928 443.776 72.8529 444.597 74.1247 445.972C75.3964 447.346 76.0785 449.165 76.0244 451.037C75.9703 452.909 75.1844 454.685 73.8353 455.984L115.436 497.596H230.138L255.077 472.657L60.8514 278.526L60.9934 278.467C57.208 276.963 53.8653 274.525 51.2772 271.379C48.6892 268.234 46.9401 264.484 46.1933 260.48C45.4465 256.476 45.7263 252.348 47.0065 248.481C48.2867 244.614 50.5257 241.135 53.5144 238.368C56.5032 235.6 60.1443 233.635 64.098 232.656C68.0517 231.676 72.189 231.714 76.124 232.767C80.059 233.819 83.6632 235.851 86.6005 238.673C89.5377 241.495 91.7121 245.015 92.9209 248.904L92.9327 248.94ZM35.2385 919.311L114.206 840.308H179.657L248.751 771.215V749.622L172.054 672.925H86.1806L65.4159 693.69C66.7872 694.762 67.6867 696.327 67.9236 698.052C68.1604 699.776 67.716 701.525 66.6846 702.928C65.6531 704.33 64.1159 705.275 62.399 705.563C60.6821 705.851 58.9206 705.458 57.4884 704.469C56.0561 703.479 55.0658 701.97 54.7275 700.263C54.3892 698.555 54.7296 696.783 55.6764 695.322C56.6232 693.861 58.1019 692.827 59.7989 692.438C61.4958 692.05 63.2773 692.337 64.7655 693.241L85.8613 672.145H172.385L249.508 749.327V771.546L179.965 841.089H114.525L35.7825 919.843L35.2385 919.311ZM126.894 710.482C127.672 709.395 128.754 708.563 130.003 708.091C131.253 707.618 132.615 707.527 133.917 707.828C135.219 708.128 136.402 708.808 137.318 709.78C138.234 710.753 138.842 711.975 139.064 713.292C139.286 714.61 139.114 715.964 138.567 717.183C138.021 718.402 137.126 719.433 135.995 720.144C134.864 720.855 133.548 721.215 132.212 721.179C130.877 721.143 129.582 720.713 128.49 719.941L120.379 728.006V806.051L132.546 818.219H158.006L190.773 785.452C189.769 784.545 189.064 783.356 188.75 782.041C188.435 780.726 188.527 779.346 189.012 778.084C189.497 776.822 190.353 775.736 191.468 774.97C192.582 774.204 193.902 773.794 195.254 773.793C196.305 773.797 197.34 774.049 198.275 774.528C199.21 775.006 200.02 775.698 200.638 776.548C201.256 777.398 201.665 778.381 201.833 779.418C202 780.455 201.921 781.517 201.602 782.518C201.283 783.519 200.733 784.431 199.996 785.18C199.259 785.929 198.356 786.493 197.361 786.829C196.365 787.164 195.304 787.26 194.265 787.109C193.225 786.958 192.235 786.565 191.376 785.96L158.266 819.07H132.251L119.622 806.441V727.805L127.899 719.528C126.635 718.413 125.832 716.867 125.648 715.191C125.465 713.516 125.913 711.832 126.906 710.47L126.894 710.482ZM153.796 737.454C152.383 738.461 150.633 738.878 148.917 738.615C147.202 738.353 145.656 737.432 144.609 736.049C143.561 734.665 143.094 732.928 143.307 731.206C143.519 729.484 144.395 727.912 145.747 726.825C147.1 725.738 148.823 725.22 150.55 725.383C152.278 725.545 153.874 726.375 155 727.695C156.126 729.015 156.693 730.723 156.581 732.454C156.469 734.186 155.686 735.806 154.399 736.969L172.468 755.038V777.506L172.349 777.612L147.931 802.031C149.034 803.41 149.555 805.166 149.384 806.924C149.214 808.682 148.364 810.305 147.017 811.447C145.669 812.589 143.929 813.16 142.167 813.04C140.405 812.92 138.759 812.118 137.578 810.803C136.398 809.489 135.777 807.766 135.846 806.001C135.916 804.236 136.671 802.568 137.951 801.35C139.231 800.133 140.935 799.462 142.701 799.481C144.467 799.5 146.157 800.207 147.41 801.451L171.675 777.198V755.357L153.796 737.454ZM141.155 788.302C141.232 789.625 140.915 790.942 140.244 792.085C139.574 793.228 138.579 794.147 137.386 794.725C136.193 795.303 134.856 795.515 133.543 795.333C132.23 795.152 131 794.585 130.009 793.704C129.018 792.824 128.31 791.67 127.975 790.387C127.64 789.105 127.692 787.752 128.126 786.499C128.559 785.246 129.354 784.15 130.411 783.349C131.467 782.548 132.737 782.078 134.06 781.999V743.792C132.322 743.691 130.691 742.916 129.515 741.632C128.339 740.348 127.709 738.656 127.76 736.916C127.811 735.175 128.538 733.523 129.787 732.31C131.036 731.097 132.709 730.418 134.45 730.418C136.192 730.418 137.864 731.097 139.113 732.31C140.362 733.523 141.09 735.175 141.14 736.916C141.191 738.656 140.562 740.348 139.385 741.632C138.209 742.916 136.579 743.691 134.84 743.792V781.975C136.489 782.066 138.046 782.762 139.213 783.929C140.381 785.096 141.076 786.653 141.167 788.302H141.155ZM175.53 827.466L232.503 770.458V752.72L170.635 690.876H103.942V743.485L103.835 743.603L76.082 771.345C77.3887 772.524 78.184 774.167 78.2989 775.924C78.4139 777.68 77.8395 779.413 76.6977 780.752C75.5559 782.092 73.9367 782.934 72.1841 783.099C70.4315 783.265 68.6835 782.74 67.3115 781.637C65.9395 780.534 65.0516 778.94 64.8363 777.192C64.6211 775.445 65.0955 773.683 66.1588 772.28C67.222 770.877 68.7904 769.944 70.5307 769.679C72.271 769.413 74.0461 769.837 75.479 770.86L103.173 743.166V690.107H170.99L233.319 752.437V770.801L175.885 828.235H112.03L35.8061 904.4L35.2621 903.856L111.652 827.466H175.53ZM277.225 743.45V761.317L186.173 852.37H118.404L86.7127 884.061C87.8921 885.282 88.5673 886.902 88.6036 888.6C88.6398 890.297 88.0344 891.945 86.9082 893.215C85.7821 894.485 84.2181 895.284 82.5289 895.451C80.8397 895.618 79.1495 895.142 77.7962 894.117C76.4428 893.093 75.526 891.595 75.2287 889.924C74.9315 888.252 75.2758 886.531 76.1929 885.102C77.11 883.674 78.5322 882.644 80.1756 882.218C81.8189 881.793 83.5622 882.003 85.0572 882.807L117.552 850.218H185.31L275.18 760.347V744.242L21.3796 490.477L22.8459 489.011L277.225 743.45ZM421.277 934.175C419.403 934.354 417.533 933.793 416.066 932.611C414.6 931.43 413.654 929.722 413.43 927.852C413.206 925.982 413.722 924.099 414.868 922.605C416.014 921.11 417.699 920.124 419.563 919.855V841.183L354.419 776.039V688.771L213.761 548.053H93.1455L23.2125 478.156L24.8325 476.547L94.1152 545.83H214.73L356.689 687.813V775.152L421.833 840.296V919.89C423.487 920.254 424.959 921.187 425.994 922.526C427.029 923.866 427.56 925.527 427.493 927.218C427.427 928.909 426.768 930.524 425.632 931.778C424.495 933.033 422.954 933.848 421.277 934.08V934.175ZM96.965 528.696H219.874L371.151 679.938V769.902L444.242 842.992C445.065 842.422 446.043 842.116 447.044 842.117C448.161 842.116 449.246 842.493 450.121 843.188C450.996 843.882 451.61 844.852 451.863 845.94C452.117 847.028 451.994 848.169 451.515 849.178C451.037 850.188 450.23 851.005 449.227 851.497C448.225 851.99 447.085 852.128 445.994 851.889C444.902 851.651 443.924 851.049 443.218 850.184C442.512 849.318 442.121 848.239 442.107 847.122C442.093 846.005 442.458 844.916 443.142 844.033L369.638 770.529V680.612L219.235 530.221H96.3619L23.4845 457.344L24.5605 456.268L96.965 528.696Z" fill="#F4ECEC"/>
<path d="M68.9161 454.139C70.8231 454.139 72.369 452.593 72.369 450.686C72.369 448.779 70.8231 447.233 68.9161 447.233C67.0091 447.233 65.4632 448.779 65.4632 450.686C65.4632 452.593 67.0091 454.139 68.9161 454.139Z" fill="#F4ECEC"/>
<path d="M138.081 737.135C138.081 736.433 137.872 735.748 137.483 735.164C137.093 734.581 136.539 734.126 135.891 733.858C135.242 733.589 134.529 733.519 133.841 733.656C133.153 733.793 132.521 734.13 132.025 734.627C131.528 735.123 131.191 735.755 131.054 736.443C130.917 737.131 130.987 737.844 131.256 738.493C131.524 739.141 131.979 739.695 132.562 740.085C133.146 740.474 133.831 740.683 134.533 740.683C135.468 740.664 136.36 740.285 137.021 739.623C137.683 738.962 138.062 738.07 138.081 737.135Z" fill="#F4ECEC"/>
<path d="M134.474 785.062C133.775 785.062 133.091 785.268 132.509 785.656C131.927 786.043 131.473 786.594 131.202 787.238C130.932 787.883 130.859 788.593 130.991 789.28C131.123 789.966 131.455 790.598 131.945 791.097C132.436 791.595 133.062 791.938 133.746 792.081C134.43 792.225 135.142 792.163 135.791 791.903C136.44 791.644 136.998 791.198 137.395 790.623C137.792 790.047 138.01 789.367 138.021 788.668C138.029 788.198 137.943 787.73 137.769 787.293C137.594 786.855 137.334 786.457 137.003 786.122C136.673 785.786 136.28 785.519 135.845 785.337C135.411 785.155 134.945 785.062 134.474 785.062Z" fill="#F4ECEC"/>
<path d="M71.624 772.705C70.9224 772.705 70.2365 772.913 69.6531 773.302C69.0698 773.692 68.6151 774.246 68.3466 774.895C68.0781 775.543 68.0078 776.256 68.1447 776.944C68.2816 777.632 68.6194 778.264 69.1156 778.761C69.6117 779.257 70.2438 779.595 70.9319 779.731C71.6201 779.868 72.3334 779.798 72.9816 779.53C73.6298 779.261 74.1839 778.806 74.5737 778.223C74.9635 777.64 75.1715 776.954 75.1715 776.252C75.1715 775.311 74.7978 774.409 74.1325 773.744C73.4672 773.078 72.5649 772.705 71.624 772.705Z" fill="#F4ECEC"/>
<path d="M81.8881 885.054C80.9316 885.054 80.0142 885.434 79.3379 886.11C78.6615 886.787 78.2815 887.704 78.2815 888.661C78.2815 889.617 78.6615 890.534 79.3379 891.211C80.0142 891.887 80.9316 892.267 81.8881 892.267C82.8447 892.267 83.762 891.887 84.4384 891.211C85.1148 890.534 85.4948 889.617 85.4948 888.661C85.4948 887.704 85.1148 886.787 84.4384 886.11C83.762 885.434 82.8447 885.054 81.8881 885.054Z" fill="#F4ECEC"/>
<path d="M420.414 930.415C422.321 930.415 423.867 928.869 423.867 926.962C423.867 925.055 422.321 923.509 420.414 923.509C418.507 923.509 416.961 925.055 416.961 926.962C416.961 928.869 418.507 930.415 420.414 930.415Z" fill="#F4ECEC"/>
<path d="M486.611 539.35C488.08 539.35 489.271 538.159 489.271 536.689C489.271 535.22 488.08 534.029 486.611 534.029C485.141 534.029 483.95 535.22 483.95 536.689C483.95 538.159 485.141 539.35 486.611 539.35Z" fill="#F4ECEC"/>
<path d="M494.971 594.892C496.878 594.892 498.424 593.346 498.424 591.439C498.424 589.532 496.878 587.986 494.971 587.986C493.064 587.986 491.518 589.532 491.518 591.439C491.518 593.346 493.064 594.892 494.971 594.892Z" fill="#F4ECEC"/>
<path d="M529.606 630.273C529.606 630.978 529.887 631.655 530.386 632.154C530.885 632.653 531.561 632.933 532.267 632.933C532.973 632.933 533.649 632.653 534.148 632.154C534.647 631.655 534.927 630.978 534.927 630.273C534.927 629.567 534.647 628.89 534.148 628.391C533.649 627.892 532.973 627.612 532.267 627.612C531.561 627.612 530.885 627.892 530.386 628.391C529.887 628.89 529.606 629.567 529.606 630.273Z" fill="#F4ECEC"/>
<path d="M488.893 635.215C489.595 635.209 490.267 634.927 490.763 634.429C491.259 633.931 491.539 633.257 491.542 632.555C491.542 632.029 491.386 631.514 491.093 631.077C490.801 630.639 490.385 630.298 489.899 630.097C489.413 629.895 488.878 629.843 488.362 629.945C487.846 630.048 487.372 630.301 487 630.673C486.628 631.045 486.374 631.52 486.271 632.036C486.169 632.552 486.221 633.087 486.423 633.573C486.624 634.059 486.965 634.475 487.403 634.767C487.84 635.059 488.355 635.215 488.881 635.215H488.893Z" fill="#F4ECEC"/>
<path d="M633.891 596.347C633.368 596.386 632.879 596.622 632.522 597.007C632.165 597.392 631.966 597.897 631.966 598.422C631.966 598.947 632.165 599.452 632.522 599.837C632.879 600.222 633.368 600.458 633.891 600.497C634.414 600.458 634.903 600.222 635.26 599.837C635.617 599.452 635.815 598.947 635.815 598.422C635.815 597.897 635.617 597.392 635.26 597.007C634.903 596.622 634.414 596.386 633.891 596.347Z" fill="#F4ECEC"/>
<path d="M440.966 616.189C442.873 616.189 444.419 614.643 444.419 612.736C444.419 610.829 442.873 609.283 440.966 609.283C439.059 609.283 437.513 610.829 437.513 612.736C437.513 614.643 439.059 616.189 440.966 616.189Z" fill="#F4ECEC"/>
<path d="M584.001 571.396C585.49 571.396 586.697 570.189 586.697 568.7C586.697 567.211 585.49 566.004 584.001 566.004C582.512 566.004 581.305 567.211 581.305 568.7C581.305 570.189 582.512 571.396 584.001 571.396Z" fill="#F4ECEC"/>
<path d="M497.265 560.647C499.172 560.647 500.718 559.101 500.718 557.194C500.718 555.287 499.172 553.741 497.265 553.741C495.358 553.741 493.812 555.287 493.812 557.194C493.812 559.101 495.358 560.647 497.265 560.647Z" fill="#F4ECEC"/>
<path d="M677.868 619.464C677.153 619.464 676.467 619.748 675.962 620.254C675.456 620.76 675.172 621.445 675.172 622.161C675.172 622.876 675.456 623.561 675.962 624.067C676.467 624.573 677.153 624.857 677.868 624.857C678.222 624.857 678.573 624.787 678.9 624.651C679.227 624.516 679.524 624.317 679.775 624.067C680.025 623.817 680.224 623.519 680.359 623.192C680.495 622.865 680.564 622.515 680.564 622.161C680.564 621.806 680.495 621.456 680.359 621.129C680.224 620.802 680.025 620.504 679.775 620.254C679.524 620.004 679.227 619.805 678.9 619.67C678.573 619.534 678.222 619.464 677.868 619.464Z" fill="#F4ECEC"/>
<path d="M799.878 173.827L661.526 312.18H727.959L750.426 289.712C750.492 289.646 750.581 289.607 750.675 289.606H892.054C892.158 287.313 893.141 285.147 894.799 283.56C896.457 281.972 898.663 281.084 900.959 281.08C902.707 281.079 904.417 281.593 905.876 282.556C907.336 283.52 908.479 284.891 909.165 286.499C909.851 288.108 910.049 289.882 909.734 291.602C909.419 293.322 908.605 294.911 907.394 296.172C906.183 297.434 904.627 298.311 902.921 298.695C901.216 299.079 899.435 298.953 897.8 298.332C896.165 297.712 894.749 296.624 893.727 295.205C892.706 293.786 892.124 292.098 892.054 290.351H750.793L728.325 312.819C728.26 312.885 728.171 312.924 728.077 312.925H660.793L622.953 350.765H685.353C685.447 349.212 686.129 347.753 687.26 346.685C688.391 345.617 689.887 345.021 691.443 345.018V344.959C692.635 344.959 693.801 345.307 694.797 345.962C695.792 346.617 696.575 347.549 697.047 348.643C697.519 349.737 697.661 350.946 697.454 352.119C697.247 353.293 696.701 354.38 695.883 355.247C695.066 356.114 694.012 356.723 692.852 356.998C691.693 357.273 690.478 357.202 689.358 356.794C688.238 356.387 687.262 355.66 686.551 354.704C685.839 353.748 685.423 352.605 685.353 351.415H622.338L593.852 379.854H729.047V362.413C725.811 362.284 722.755 360.892 720.535 358.535C718.315 356.179 717.107 353.045 717.171 349.808C717.235 346.571 718.566 343.488 720.879 341.221C723.191 338.954 726.3 337.684 729.537 337.684C732.775 337.684 735.884 338.954 738.196 341.221C740.509 343.488 741.84 346.571 741.904 349.808C741.968 353.045 740.76 356.179 738.54 358.535C736.32 360.892 733.264 362.284 730.028 362.413V379.854H741.073L854.238 493.008C855.001 492.443 855.925 492.136 856.875 492.133C857.882 492.134 858.858 492.475 859.648 493.099C860.437 493.723 860.994 494.595 861.228 495.574C861.461 496.553 861.359 497.582 860.936 498.496C860.514 499.409 859.796 500.154 858.899 500.61C858.001 501.066 856.977 501.207 855.99 501.009C855.003 500.812 854.111 500.288 853.458 499.522C852.805 498.756 852.429 497.793 852.39 496.787C852.351 495.781 852.652 494.791 853.245 493.978L740.493 381.226H730.028V395.026H737.241L879.082 536.855C881.299 535.717 883.756 535.125 886.248 535.129C889.679 535.128 893.015 536.249 895.75 538.32C898.485 540.391 900.468 543.299 901.398 546.601C902.328 549.903 902.154 553.418 900.902 556.612C899.65 559.806 897.389 562.503 894.463 564.293C891.537 566.084 888.106 566.869 884.692 566.53C881.278 566.19 878.069 564.745 875.552 562.414C873.036 560.082 871.35 556.992 870.751 553.615C870.153 550.237 870.674 546.756 872.236 543.702L733.256 404.722H730.028V424.435L876.445 570.852C877.577 569.999 878.955 569.538 880.371 569.539C881.87 569.537 883.325 570.047 884.494 570.986C885.662 571.926 886.474 573.236 886.794 574.701C887.114 576.165 886.923 577.695 886.253 579.036C885.583 580.377 884.474 581.448 883.11 582.071C881.747 582.694 880.211 582.832 878.759 582.461C877.306 582.09 876.024 581.233 875.127 580.032C874.229 578.832 873.769 577.36 873.824 575.862C873.879 574.364 874.445 572.93 875.428 571.798L729.981 426.35V467.419L729.839 467.56L717.375 480.095H600.71C600.362 488.293 597.745 496.234 593.152 503.033C588.559 509.833 582.17 515.225 574.695 518.609C567.219 521.993 558.952 523.237 550.812 522.202C542.672 521.167 534.979 517.893 528.589 512.746C522.198 507.598 517.362 500.778 514.617 493.046C511.872 485.313 511.327 476.97 513.042 468.946C514.756 460.921 518.664 453.53 524.329 447.594C529.995 441.659 537.197 437.412 545.133 435.326C545.788 435.156 546.473 435.138 547.137 435.275C547.8 435.411 548.423 435.697 548.958 436.112C549.494 436.526 549.927 437.057 550.225 437.665C550.523 438.273 550.678 438.941 550.678 439.618V442.48C550.652 443.419 550.326 444.326 549.747 445.066C549.168 445.807 548.367 446.342 547.462 446.595C541.647 448.238 536.396 451.451 532.287 455.881C528.177 460.312 525.368 465.788 524.166 471.711C522.964 477.633 523.417 483.772 525.474 489.454C527.532 495.135 531.115 500.141 535.83 503.921C540.545 507.7 546.21 510.108 552.203 510.88C558.196 511.652 564.287 510.759 569.806 508.297C575.324 505.836 580.059 501.902 583.489 496.927C586.919 491.952 588.913 486.128 589.252 480.095H568.688H568.747C568.593 483.336 567.177 486.389 564.802 488.6C562.427 490.811 559.281 492.005 556.037 491.928C552.793 491.851 549.708 490.508 547.441 488.187C545.174 485.865 543.905 482.749 543.905 479.504C543.905 476.259 545.174 473.143 547.441 470.821C549.708 468.499 552.793 467.156 556.037 467.079C559.281 467.002 562.427 468.197 564.802 470.408C567.177 472.619 568.593 475.671 568.747 478.912V479.078H589.287C589.287 478.782 589.287 478.487 589.287 478.191C589.257 471.008 586.884 464.032 582.528 458.32C578.172 452.609 572.071 448.476 565.152 446.547C564.266 446.287 563.49 445.744 562.941 445.001C562.392 444.258 562.101 443.356 562.113 442.432V439.571C562.085 438.919 562.208 438.269 562.473 437.672C562.738 437.076 563.137 436.549 563.641 436.133C564.144 435.717 564.736 435.423 565.372 435.275C566.008 435.126 566.669 435.128 567.304 435.278C576.833 437.756 585.276 443.314 591.318 451.089C597.36 458.863 600.662 468.416 600.71 478.262C600.71 478.558 600.71 478.853 600.71 479.149H716.95L729.047 467.088V425.404L728.751 425.109H476.169L311.719 260.658H93.5712C92.6196 265.558 90.1693 270.042 86.559 273.489L270.39 457.296L286.39 441.297H392.377L483.737 532.657C484.571 532.058 485.572 531.735 486.599 531.735C487.75 531.735 488.865 532.138 489.75 532.873C490.636 533.609 491.236 534.631 491.447 535.763C491.657 536.895 491.465 538.065 490.904 539.07C490.343 540.075 489.448 540.852 488.373 541.266C487.299 541.681 486.114 541.706 485.023 541.338C483.932 540.97 483.005 540.232 482.401 539.252C481.797 538.272 481.555 537.112 481.717 535.972C481.879 534.832 482.435 533.785 483.288 533.012L392.141 441.865H286.638L270.793 457.698L284.084 470.99L298.558 456.516H381.711L449.504 524.297C450.553 523.564 451.846 523.268 453.11 523.473C454.373 523.678 455.507 524.367 456.27 525.394C457.034 526.421 457.367 527.706 457.199 528.974C457.031 530.243 456.375 531.397 455.37 532.19C454.366 532.983 453.092 533.353 451.818 533.222C450.545 533.091 449.373 532.469 448.551 531.488C447.729 530.507 447.322 529.244 447.416 527.968C447.51 526.691 448.098 525.502 449.054 524.652L381.486 457.084H298.794L284.486 471.392L295.873 482.779L306.516 472.137H375.621L489.851 586.366C490.52 585.698 491.315 585.168 492.189 584.807C493.064 584.446 494.001 584.26 494.947 584.261C496.595 584.258 498.195 584.817 499.481 585.848C500.768 586.878 501.663 588.317 502.019 589.926C502.375 591.535 502.17 593.218 501.438 594.695C500.706 596.171 499.492 597.353 497.996 598.045C496.5 598.736 494.812 598.896 493.213 598.496C491.614 598.097 490.2 597.163 489.205 595.849C488.21 594.535 487.694 592.921 487.742 591.273C487.791 589.626 488.401 588.045 489.472 586.792L375.373 472.704H306.788L296.287 483.205L406.579 593.485H449.433L485.239 629.267C485.701 628.754 486.267 628.343 486.898 628.062C487.53 627.781 488.213 627.635 488.905 627.636C490.013 627.638 491.088 628.013 491.958 628.699C492.827 629.386 493.441 630.345 493.7 631.423C493.959 632.5 493.849 633.633 493.386 634.64C492.924 635.647 492.137 636.47 491.151 636.976C490.165 637.482 489.038 637.642 487.95 637.43C486.862 637.219 485.877 636.648 485.153 635.809C484.429 634.97 484.007 633.912 483.957 632.805C483.906 631.698 484.228 630.607 484.872 629.705L449.22 594.052H407.147L424.364 611.27H433.907C434.256 609.649 435.151 608.198 436.443 607.158C437.734 606.118 439.344 605.553 441.002 605.558C442.397 605.559 443.763 605.965 444.934 606.726C446.104 607.486 447.029 608.57 447.597 609.845C448.164 611.121 448.35 612.533 448.132 613.912C447.914 615.291 447.301 616.577 446.368 617.615C445.434 618.653 444.22 619.398 442.872 619.761C441.524 620.123 440.1 620.087 438.772 619.657C437.443 619.228 436.268 618.422 435.388 617.339C434.508 616.255 433.96 614.94 433.812 613.552H426.717L457.568 644.463H530.103L579.153 693.513H595.093L535.554 633.974C534.589 634.834 533.327 635.284 532.036 635.229C530.745 635.173 529.526 634.616 528.638 633.676C527.751 632.737 527.265 631.488 527.283 630.195C527.302 628.903 527.823 627.669 528.737 626.755C529.651 625.841 530.886 625.319 532.178 625.301C533.471 625.282 534.719 625.768 535.659 626.656C536.599 627.543 537.156 628.762 537.211 630.053C537.267 631.345 536.816 632.607 535.956 633.572L595.885 693.501H614.9L535.578 614.179C534.613 615.039 533.351 615.489 532.06 615.434C530.768 615.378 529.549 614.821 528.662 613.881C527.774 612.942 527.288 611.693 527.307 610.4C527.325 609.108 527.847 607.874 528.761 606.96C529.675 606.046 530.909 605.524 532.202 605.506C533.494 605.487 534.743 605.973 535.683 606.861C536.622 607.748 537.179 608.967 537.235 610.258C537.29 611.55 536.84 612.812 535.98 613.777L615.704 693.501H633.111L502.16 562.527C500.765 563.818 498.918 564.509 497.018 564.453C495.118 564.398 493.316 563.599 491.998 562.228C490.68 560.858 489.953 559.026 489.971 557.125C489.99 555.224 490.753 553.406 492.097 552.062C493.442 550.718 495.259 549.954 497.16 549.936C499.061 549.917 500.894 550.645 502.264 551.962C503.634 553.28 504.433 555.083 504.489 556.983C504.545 558.883 503.853 560.729 502.562 562.125L633.95 693.501H732.098L854.368 815.807V946H946V173.827H799.878ZM806.37 269.988C805.47 269.988 804.59 269.721 803.841 269.221C803.092 268.721 802.509 268.01 802.164 267.178C801.82 266.346 801.73 265.431 801.905 264.548C802.081 263.664 802.515 262.853 803.151 262.217C803.788 261.58 804.599 261.146 805.482 260.971C806.365 260.795 807.281 260.885 808.113 261.23C808.944 261.574 809.656 262.158 810.156 262.906C810.656 263.655 810.923 264.535 810.923 265.436C810.925 266.035 810.808 266.628 810.58 267.182C810.352 267.735 810.017 268.239 809.594 268.663C809.171 269.087 808.668 269.423 808.115 269.653C807.562 269.882 806.969 270 806.37 270V269.988ZM360.32 529.76C359.844 530.223 359.28 530.585 358.662 530.825C358.043 531.065 357.382 531.177 356.719 531.156C356.056 531.134 355.404 530.979 354.802 530.699C354.2 530.42 353.661 530.022 353.217 529.529C352.773 529.036 352.432 528.459 352.216 527.831C352.001 527.204 351.914 526.539 351.961 525.877C352.008 525.215 352.188 524.57 352.491 523.979C352.793 523.389 353.212 522.865 353.721 522.44L324.159 492.878C323.696 493.392 323.131 493.802 322.499 494.083C321.868 494.365 321.184 494.51 320.493 494.51C319.385 494.507 318.31 494.133 317.44 493.446C316.57 492.759 315.957 491.8 315.698 490.723C315.439 489.645 315.549 488.512 316.011 487.505C316.474 486.498 317.261 485.675 318.247 485.169C319.233 484.663 320.36 484.503 321.448 484.715C322.535 484.927 323.52 485.498 324.245 486.336C324.969 487.175 325.39 488.233 325.441 489.34C325.492 490.447 325.169 491.539 324.525 492.44L354.159 522.074C355.185 521.352 356.449 521.048 357.691 521.226C358.934 521.403 360.062 522.047 360.846 523.027C361.63 524.007 362.011 525.249 361.911 526.5C361.811 527.751 361.237 528.917 360.308 529.76H360.32ZM423.453 570.544C422.823 571.301 422.044 571.922 421.166 572.369C420.288 572.815 419.328 573.079 418.345 573.142C417.361 573.206 416.375 573.069 415.447 572.739C414.518 572.41 413.666 571.895 412.943 571.225C412.22 570.556 411.641 569.747 411.24 568.846C410.84 567.946 410.627 566.974 410.615 565.988C410.603 565.003 410.791 564.026 411.168 563.115C411.546 562.205 412.105 561.381 412.811 560.694L355.932 503.851C355.029 504.66 353.858 505.107 352.645 505.105C351.514 505.105 350.417 504.718 349.537 504.006C348.657 503.295 348.047 502.304 347.81 501.198C347.573 500.091 347.723 498.937 348.234 497.928C348.745 496.919 349.588 496.116 350.62 495.652C351.652 495.189 352.812 495.094 353.906 495.383C355 495.672 355.961 496.328 356.63 497.24C357.299 498.153 357.634 499.267 357.581 500.397C357.527 501.527 357.087 502.604 356.335 503.449L413.177 560.292C414.56 559.054 416.365 558.393 418.22 558.444C420.076 558.496 421.841 559.256 423.154 560.568C424.466 561.881 425.226 563.646 425.277 565.501C425.329 567.357 424.668 569.161 423.43 570.544H423.453ZM634.104 602.271C633.34 602.317 632.58 602.134 631.919 601.748C631.259 601.361 630.728 600.787 630.394 600.098C630.06 599.41 629.938 598.638 630.043 597.88C630.149 597.122 630.476 596.412 630.985 595.841C631.494 595.269 632.16 594.861 632.901 594.669C633.642 594.476 634.423 594.508 635.145 594.759C635.868 595.011 636.5 595.472 636.961 596.082C637.421 596.693 637.691 597.427 637.734 598.191H739.334C739.393 596.716 740.028 595.323 741.103 594.31C742.178 593.298 743.607 592.747 745.083 592.777C746.559 592.806 747.965 593.413 748.998 594.467C750.032 595.522 750.611 596.939 750.611 598.416C750.611 599.892 750.032 601.31 748.998 602.365C747.965 603.419 746.559 604.026 745.083 604.055C743.607 604.085 742.178 603.534 741.103 602.522C740.028 601.509 739.393 600.116 739.334 598.641H637.746C637.693 599.587 637.293 600.481 636.624 601.153C635.955 601.824 635.062 602.226 634.116 602.283L634.104 602.271ZM836.11 622.373H683.485C683.426 623.849 682.791 625.242 681.716 626.255C680.642 627.267 679.213 627.818 677.737 627.788C676.26 627.759 674.855 627.152 673.821 626.097C672.787 625.043 672.208 623.625 672.208 622.149C672.208 620.672 672.787 619.255 673.821 618.2C674.855 617.146 676.26 616.539 677.737 616.509C679.213 616.48 680.642 617.031 681.716 618.043C682.791 619.055 683.426 620.449 683.485 621.924H835.649V604.459L800.174 568.984H589.689C589.63 570.459 588.995 571.852 587.921 572.865C586.846 573.877 585.417 574.428 583.941 574.398C582.464 574.369 581.059 573.762 580.025 572.707C578.991 571.653 578.413 570.235 578.413 568.759C578.413 567.282 578.991 565.865 580.025 564.81C581.059 563.756 582.464 563.149 583.941 563.119C585.417 563.09 586.846 563.641 587.921 564.653C588.995 565.665 589.63 567.059 589.689 568.534H800.328L836.122 604.258L836.11 622.373Z" fill="#F4ECEC"/>
<path d="M529.594 610.489C529.594 611.195 529.875 611.872 530.374 612.371C530.873 612.87 531.549 613.15 532.255 613.15C532.96 613.144 533.633 612.859 534.13 612.359C534.626 611.858 534.904 611.182 534.904 610.477C534.904 609.772 534.624 609.095 534.125 608.596C533.626 608.097 532.949 607.817 532.243 607.817C531.538 607.817 530.861 608.097 530.362 608.596C529.863 609.095 529.583 609.772 529.583 610.477L529.594 610.489Z" fill="#F4ECEC"/>
<path d="M859.299 496.65C859.299 496.182 859.16 495.725 858.901 495.336C858.641 494.947 858.271 494.644 857.839 494.465C857.407 494.286 856.931 494.239 856.473 494.33C856.014 494.422 855.593 494.647 855.262 494.978C854.931 495.308 854.706 495.73 854.615 496.189C854.523 496.647 854.57 497.123 854.749 497.555C854.928 497.987 855.231 498.357 855.62 498.616C856.009 498.876 856.466 499.015 856.934 499.015C857.561 499.015 858.163 498.766 858.606 498.322C859.05 497.879 859.299 497.277 859.299 496.65Z" fill="#F4ECEC"/>
<path d="M694.79 351.084C694.79 350.434 694.597 349.798 694.236 349.258C693.875 348.717 693.361 348.296 692.76 348.047C692.16 347.798 691.499 347.733 690.861 347.86C690.223 347.987 689.638 348.3 689.178 348.76C688.718 349.219 688.405 349.805 688.278 350.443C688.151 351.081 688.216 351.742 688.465 352.342C688.714 352.943 689.135 353.456 689.676 353.818C690.217 354.179 690.852 354.372 691.502 354.372C692.374 354.372 693.21 354.025 693.827 353.409C694.443 352.792 694.79 351.956 694.79 351.084Z" fill="#F4ECEC"/>
<path d="M452.377 530.978C453.847 530.978 455.038 529.787 455.038 528.317C455.038 526.848 453.847 525.657 452.377 525.657C450.908 525.657 449.717 526.848 449.717 528.317C449.717 529.787 450.908 530.978 452.377 530.978Z" fill="#F4ECEC"/>
<path d="M900.982 294.241C901.826 294.241 902.652 293.991 903.354 293.522C904.056 293.053 904.603 292.386 904.926 291.606C905.249 290.826 905.334 289.968 905.169 289.14C905.004 288.312 904.598 287.551 904.001 286.954C903.404 286.357 902.643 285.951 901.815 285.786C900.987 285.621 900.129 285.706 899.349 286.029C898.569 286.352 897.902 286.899 897.433 287.601C896.964 288.303 896.713 289.128 896.713 289.973C896.713 291.105 897.163 292.191 897.964 292.991C898.764 293.792 899.85 294.241 900.982 294.241Z" fill="#F4ECEC"/>
<path d="M550.525 478.913C550.525 480.082 550.871 481.225 551.521 482.197C552.171 483.17 553.094 483.927 554.175 484.375C555.255 484.822 556.444 484.94 557.591 484.711C558.738 484.483 559.791 483.92 560.618 483.093C561.445 482.266 562.008 481.213 562.236 480.066C562.464 478.919 562.347 477.73 561.9 476.65C561.452 475.569 560.694 474.646 559.722 473.996C558.75 473.347 557.607 473 556.437 473C555.656 473 554.882 473.155 554.161 473.456C553.44 473.756 552.785 474.197 552.235 474.753C551.686 475.308 551.251 475.967 550.958 476.691C550.664 477.415 550.517 478.19 550.525 478.972V478.913Z" fill="#F4ECEC"/>
<path d="M735.515 350.02C735.515 348.452 734.892 346.948 733.783 345.839C732.674 344.73 731.171 344.108 729.602 344.108C728.034 344.108 726.531 344.73 725.422 345.839C724.313 346.948 723.69 348.452 723.69 350.02C723.69 351.588 724.313 353.092 725.422 354.201C726.531 355.31 728.034 355.933 729.602 355.933C731.171 355.933 732.674 355.31 733.783 354.201C734.892 353.092 735.515 351.588 735.515 350.02Z" fill="#F4ECEC"/>
<path d="M886.248 559.027C887.86 559.027 889.435 558.549 890.775 557.654C892.115 556.759 893.159 555.486 893.776 553.997C894.392 552.509 894.554 550.87 894.239 549.29C893.925 547.71 893.149 546.258 892.009 545.118C890.87 543.979 889.418 543.203 887.838 542.889C886.257 542.574 884.619 542.736 883.13 543.352C881.642 543.969 880.369 545.013 879.474 546.353C878.579 547.693 878.101 549.268 878.101 550.879C878.104 553.039 878.963 555.11 880.491 556.637C882.018 558.164 884.088 559.024 886.248 559.027Z" fill="#F4ECEC"/>
<path d="M548.03 395.026L561.818 381.226H477.896L357.328 260.658H345.101L479.48 395.026H548.03Z" fill="#F4ECEC"/>
<path d="M880.383 579.212C881.005 579.212 881.613 579.028 882.131 578.682C882.648 578.336 883.051 577.845 883.289 577.27C883.527 576.696 883.589 576.063 883.468 575.453C883.347 574.843 883.047 574.282 882.607 573.843C882.167 573.403 881.607 573.103 880.997 572.982C880.387 572.86 879.754 572.923 879.179 573.161C878.605 573.399 878.113 573.802 877.768 574.319C877.422 574.836 877.238 575.445 877.238 576.067C877.236 576.48 877.316 576.89 877.474 577.272C877.631 577.655 877.863 578.002 878.155 578.294C878.448 578.587 878.795 578.818 879.178 578.976C879.56 579.133 879.97 579.214 880.383 579.212Z" fill="#F4ECEC"/>
<path d="M357.044 523.445C356.339 523.449 355.664 523.73 355.166 524.228C354.668 524.726 354.387 525.401 354.383 526.106C354.383 526.632 354.539 527.147 354.832 527.584C355.124 528.022 355.54 528.363 356.026 528.564C356.512 528.766 357.047 528.818 357.563 528.716C358.079 528.613 358.553 528.359 358.925 527.987C359.297 527.615 359.551 527.141 359.654 526.625C359.756 526.109 359.704 525.574 359.502 525.088C359.301 524.602 358.96 524.186 358.522 523.894C358.085 523.601 357.57 523.445 357.044 523.445Z" fill="#F4ECEC"/>
<path d="M127.202 52.3729L179.551 0H0V52.3729H127.202Z" fill="#F4ECEC"/>
<path d="M946 155.179H820.844L819.697 154.021L801.262 172.456H946V155.179Z" fill="#F4ECEC"/>
<path d="M320.517 486.93C319.989 486.93 319.473 487.087 319.035 487.381C318.597 487.675 318.256 488.092 318.055 488.581C317.855 489.069 317.804 489.606 317.91 490.123C318.016 490.64 318.273 491.114 318.648 491.484C319.024 491.855 319.501 492.106 320.02 492.204C320.538 492.303 321.074 492.245 321.56 492.038C322.045 491.831 322.458 491.485 322.746 491.043C323.034 490.601 323.184 490.083 323.177 489.555C323.165 488.856 322.88 488.191 322.382 487.7C321.885 487.209 321.215 486.933 320.517 486.93Z" fill="#F4ECEC"/>
<path d="M946 0H854.368V52.3729H946V0Z" fill="#F4ECEC"/>
<path d="M0 78.9555H100.631L115.53 64.056H0V78.9555Z" fill="#F4ECEC"/>
<path d="M729.047 381.226H592.48L578.68 395.026H729.047V381.226Z" fill="#F4ECEC"/>
<path d="M319.701 248.94L226.023 155.262H0V172.539H225.562L301.951 248.94H319.701Z" fill="#F4ECEC"/>
<path d="M729.047 423.737V404.722H475.495L331.419 260.658H313.67L476.749 423.737H729.047Z" fill="#F4ECEC"/>
<path d="M418.12 562.172C417.437 562.172 416.77 562.375 416.202 562.754C415.634 563.134 415.191 563.673 414.93 564.304C414.669 564.935 414.6 565.629 414.734 566.299C414.867 566.969 415.196 567.584 415.679 568.067C416.161 568.55 416.777 568.878 417.447 569.012C418.116 569.145 418.811 569.077 419.442 568.815C420.072 568.554 420.612 568.111 420.991 567.544C421.371 566.976 421.573 566.308 421.573 565.625C421.573 564.709 421.209 563.831 420.562 563.184C419.914 562.536 419.036 562.172 418.12 562.172Z" fill="#F4ECEC"/>
<path d="M352.692 497.501C352.34 497.501 351.99 497.571 351.664 497.707C351.339 497.843 351.043 498.042 350.794 498.293C350.546 498.543 350.35 498.841 350.217 499.168C350.084 499.495 350.017 499.845 350.02 500.198C350.02 500.724 350.176 501.238 350.468 501.676C350.761 502.113 351.176 502.454 351.662 502.656C352.149 502.857 352.684 502.91 353.2 502.807C353.716 502.704 354.19 502.451 354.562 502.079C354.934 501.707 355.187 501.233 355.29 500.717C355.393 500.2 355.34 499.666 355.139 499.179C354.937 498.693 354.596 498.278 354.159 497.985C353.721 497.693 353.207 497.537 352.681 497.537L352.692 497.501Z" fill="#F4ECEC"/>
<path d="M744.975 601.148C745.69 601.148 746.376 600.863 746.881 600.358C747.387 599.852 747.671 599.166 747.671 598.451C747.671 597.736 747.387 597.051 746.881 596.545C746.376 596.039 745.69 595.755 744.975 595.755C744.263 595.755 743.58 596.038 743.077 596.542C742.574 597.045 742.291 597.728 742.291 598.44C742.291 599.151 742.574 599.834 743.077 600.338C743.58 600.841 744.263 601.124 744.975 601.124V601.148Z" fill="#F4ECEC"/>
</svg>
